<!--?xml version="1.0" standalone="no"?-->
              <svg id="sw-js-blob-svg" viewBox="0 0 100 100" xmlns="http://www.w3.org/2000/svg" version="1.1">
                    <defs> 
                        <linearGradient id="sw-gradient" x1="0" x2="1" y1="1" y2="0">
                            <stop id="stop1" stop-color="rgba(214, 82, 57, 1)" offset="0%"></stop>
                            <stop id="stop2" stop-color="rgba(232.65, 116.072, 93.993, 1)" offset="100%"></stop>
                        </linearGradient>
                    </defs>
                <path fill="url(#sw-gradient)" d="M22.6,-35.8C29.1,-31.1,33.9,-24.4,34.2,-17.5C34.4,-10.6,30.1,-3.4,28.3,3.5C26.4,10.5,27.1,17.2,24.2,21.5C21.3,25.8,15,27.7,8.1,31.3C1.3,35,-6.1,40.4,-12.2,39.5C-18.4,38.7,-23.3,31.5,-26.7,24.7C-30.2,17.9,-32.2,11.4,-32.7,5C-33.1,-1.4,-32.1,-7.8,-29.9,-14.1C-27.8,-20.5,-24.5,-26.8,-19.3,-32.1C-14.2,-37.5,-7.1,-41.9,0.5,-42.6C8.1,-43.4,16.2,-40.6,22.6,-35.8Z" width="100%" height="100%" transform="translate(50 50)" style="transition: all 0.3s ease 0s;" stroke-width="0" stroke="url(#sw-gradient)"></path>
              </svg>