<svg xmlns="http://www.w3.org/2000/svg" data-name="Layer 1" viewBox="0 0 24 24"><path fill="#8b8891" d="M7.71,8.65H1.43a1,1,0,0,0-1,1v12a1,1,0,0,0,1,1h21a1,1,0,0,0,1-1v-12a1,1,0,0,0-1-1H17.16A1,1,0,0,1,16.21,8l-.54-1.63a1,1,0,0,0-.95-.68H10.16a1,1,0,0,0-.95.68L8.66,8A1,1,0,0,1,7.71,8.65Z"/><circle cx="19.43" cy="10.52" r=".5" fill="#fdd331"/><circle cx="3.93" cy="12.02" r="1.5" fill="#fff"/><path fill="#e0e1ef" d="M19.43 6.52h1a1 1 0 0 1 1 1v1a0 0 0 0 1 0 0h-3a0 0 0 0 1 0 0v-1A1 1 0 0 1 19.43 6.52zM3.43 6.52h2a1 1 0 0 1 1 1v1a0 0 0 0 1 0 0h-4a0 0 0 0 1 0 0v-1A1 1 0 0 1 3.43 6.52z"/><circle cx="12.43" cy="15.52" r="5" fill="#57565c"/><circle cx="12.43" cy="15.52" r="3" fill="#fff"/><path d="M3.93,10a2,2,0,1,0,2,2A2,2,0,0,0,3.93,10Zm0,3a1,1,0,1,1,1-1A1,1,0,0,1,3.93,13Zm18.5-5h-.5v-.5A1.5,1.5,0,0,0,20.43,6h-1a1.5,1.5,0,0,0-1.5,1.5V8h-.78a.5.5,0,0,1-.47-.34l-.54-1.63a1.5,1.5,0,0,0-1.42-1H10.16a1.5,1.5,0,0,0-1.42,1L8.19,7.68A.5.5,0,0,1,7.71,8H6.93v-.5A1.5,1.5,0,0,0,5.43,6h-2a1.5,1.5,0,0,0-1.5,1.5V8h-.5a1.5,1.5,0,0,0-1.5,1.5v12A1.5,1.5,0,0,0,1.43,23h21a1.5,1.5,0,0,0,1.5-1.5v-12A1.5,1.5,0,0,0,22.43,8Zm-3.5-.5a.5.5,0,0,1,.5-.5h1a.5.5,0,0,1,.5.5V8h-2Zm-16,0a.5.5,0,0,1,.5-.5h2a.5.5,0,0,1,.5.5V8h-3Zm20,14a.5.5,0,0,1-.5.5h-21a.5.5,0,0,1-.5-.5v-12a.5.5,0,0,1,.5-.5H7.71A1.5,1.5,0,0,0,9.14,8l.54-1.63A.5.5,0,0,1,10.16,6h4.56a.5.5,0,0,1,.47.34L15.73,8a1.5,1.5,0,0,0,1.42,1h5.28a.5.5,0,0,1,.5.5ZM12.43,12a3.5,3.5,0,1,0,3.5,3.5A3.5,3.5,0,0,0,12.43,12Zm0,6a2.5,2.5,0,1,1,2.5-2.5A2.5,2.5,0,0,1,12.43,18Zm-1-10h2a.5.5,0,0,0,0-1h-2a.5.5,0,0,0,0,1Zm1,2a5.5,5.5,0,1,0,5.5,5.5A5.51,5.51,0,0,0,12.43,10Zm0,10a4.5,4.5,0,1,1,4.5-4.5A4.5,4.5,0,0,1,12.43,20Zm7-10a.5.5,0,1,0,.5.5A.5.5,0,0,0,19.43,10Z"/></svg>