<svg xmlns="http://www.w3.org/2000/svg" xmlns:xlink="http://www.w3.org/1999/xlink" enable-background="new 0 0 1080 1080" viewBox="0 0 1080 1080" id="android-device"><path fill="#ffbe55" d="M573.1 680.5h-57.5c-15.6 0-28.4-12.8-28.4-28.4V471.9c0-15.6 12.8-28.4 28.4-28.4h57.5c15.6 0 28.4 12.8 28.4 28.4v180.2c0 15.6-12.8 28.4-28.4 28.4z"></path><path fill="#fff" d="M596.1 471.9H492.6v118.7l103.5-102.8z"></path><path fill="#fff" d="M492.6 590.6v61.7h103.5V487.8z"></path><circle cx="544.4" cy="665.8" r="8.3" fill="#f0ede6" transform="rotate(-67.5 544.348 665.803)"></circle><path fill="#f0ede6" d="M553.4 459.6h-18.2c-.4 0-.8-.3-.8-.8 0-.4.3-.8.8-.8h18.2c.4 0 .8.3.8.8s-.3.8-.8.8zM545.4 451.2c0-.6-.5-1.1-1.1-1.1-.6 0-1.1.5-1.1 1.1s.5 1.1 1.1 1.1c.7-.1 1.1-.5 1.1-1.1z"></path><circle cx="526.4" cy="458.8" r="2" fill="#f0ede6"></circle><path fill="#0b4870" d="M570.9 541v38.7c0 2.3-.7 4.3-2.9 5.3-.8.4-1.8.5-2.7.6-1.5.1-3 .1-4.5 0-.6 0-.8.2-.8.8v12.2c0 3-1.5 5.1-4.1 5.9-3.7 1.2-7.5-1.4-7.6-5.3-.1-3.1 0-6.3 0-9.4v-3.7c0-.2-.2-.6-.4-.6h-7.4v13.3c0 4.2-4 7-8 5.5-2.2-.8-3.6-2.5-3.7-4.8-.1-2.8-.1-5.6-.1-8.5v-4.7c0-.6-.2-.8-.8-.8-1.8 0-3.7.1-5.5-.1-2.5-.2-4.3-2.2-4.5-4.7 0-.4-.1-.8-.1-1.2V542c0-1.1 0-1.1 1-1.1h51c.4.1.7.1 1.1.1zM571.1 538.7h-52.4c-.7 0-1-.1-1-.9-.1-5.9 2-10.9 6-15.1 1.9-2.1 4.2-3.7 6.7-5 .2-.1.5-.3.8-.4-.4-.7-.8-1.3-1.2-1.9-1-1.6-2.1-3.2-3.1-4.8-.3-.5-.4-1 .1-1.4.5-.4 1-.3 1.5.4 1.3 1.9 2.5 3.9 3.8 5.8.9 1.3.5 1.2 2 .6 4.9-1.7 9.9-2.2 15-1.3 2 .4 4 1 6 1.6.5.1.7.1 1-.3l3.9-6c.1-.2.3-.4.4-.6.3-.4.8-.5 1.2-.2.4.3.6.8.3 1.2-.5.8-1 1.6-1.6 2.5-.9 1.5-1.9 2.9-2.9 4.4 8.5 4.5 13.7 11.2 13.5 21.4zm-39.1-9.2c1.4 0 2.5-1.2 2.5-2.5 0-1.4-1.2-2.5-2.5-2.5-1.4 0-2.6 1.2-2.5 2.6 0 1.3 1.1 2.4 2.5 2.4zm27.2-2.5c0-1.4-1.1-2.5-2.5-2.5s-2.6 1.2-2.6 2.6c0 1.4 1.2 2.5 2.6 2.5 1.4-.1 2.5-1.2 2.5-2.6zM515.1 558.4v12.1c0 4.3-3.8 7.1-7.9 5.7-2.1-.7-3.3-2.3-3.7-4.5-.1-.4-.1-.9-.1-1.3v-24c0-2.4.9-4.2 3-5.4 3.9-2.2 8.6.5 8.7 5v12.4zM573.6 558.3v-12.2c0-4.3 3.9-7 7.9-5.6 2.2.8 3.4 2.4 3.7 4.7.1.4.1.7.1 1.1v24c0 2.4-.9 4.3-3 5.5-3.9 2.1-8.5-.5-8.7-4.9-.1-1.7 0-3.5 0-5.3v-7.3z"></path><defs><path id="a" d="M262.1 298.1h563.5v417.7H262.1z"></path></defs><clipPath id="b"><use overflow="visible" xlink:href="#a"></use></clipPath><g clip-path="url(#b)" opacity=".5"><path fill="#ffbe55" d="M436.9 438.3c-.2 0-.3 0-.5-.1-18.5-12-17.6-23.3-17.5-24.3 0-5 4.2-9 9.4-9 3.8 0 7.1 2.2 8.5 5.3 1.5-3.1 4.8-5.3 8.5-5.3 5.2 0 9.4 4.1 9.4 9.1v.1c.2 2.2 0 12.8-17.5 24.2h-.3zm-8.5-31.8c-4.2 0-7.7 3.3-7.7 7.4v.1c0 .1-1.3 10.8 16.2 22.4 16.3-10.8 16.4-20.5 16.2-22.4v-.2c0-4.1-3.5-7.4-7.7-7.4s-7.7 3.3-7.7 7.4c0 .5-.4.8-.8.8-.5 0-.8-.4-.8-.8 0-4-3.5-7.3-7.7-7.3zM672 490c-9.8 0-17.8-8-17.8-17.8s8-17.8 17.8-17.8 17.8 8 17.8 17.8-8 17.8-17.8 17.8zm0-34c-8.9 0-16.1 7.2-16.1 16.1s7.2 16.1 16.1 16.1 16.1-7.2 16.1-16.1S680.9 456 672 456z"></path><path fill="#ffbe55" d="M672 473h-9.5c-.5 0-.8-.4-.8-.8s.4-.8.8-.8h8.7v-11c0-.5.4-.8.8-.8s.8.4.8.8v11.8c0 .4-.4.8-.8.8zM691.6 539.2h-44.4c-.5 0-.8-.4-.8-.8v-30.9c0-.5.4-.8.8-.8h44.4c.5 0 .8.4.8.8v30.9c.1.4-.3.8-.8.8zm-43.5-1.7h42.7v-29.2h-42.7v29.2z"></path><path fill="#ffbe55" d="M669.4 526c-1.4 0-2.8-.5-3.9-1.5L646.7 508c-.4-.3-.4-.8-.1-1.2.3-.4.8-.4 1.2-.1l18.8 16.4c1.6 1.4 4 1.4 5.6 0l18.8-16.4c.4-.3.9-.3 1.2.1.3.4.3.9-.1 1.2l-18.8 16.4c-1.1 1.1-2.5 1.6-3.9 1.6z"></path><path fill="#ffbe55" d="M691.6 539.2c-.2 0-.4-.1-.6-.2l-17.5-15.2c-.4-.3-.4-.8-.1-1.2.3-.4.8-.4 1.2-.1l17.5 15.2c.4.3.4.8.1 1.2-.1.2-.3.3-.6.3zM647.2 539.2c-.2 0-.5-.1-.6-.3-.3-.4-.3-.9.1-1.2l17.5-15.2c.4-.3.9-.3 1.2.1.3.4.3.9-.1 1.2L647.8 539c-.2.1-.4.2-.6.2zM676 593.2c-.2 0-.3-.1-.5-.2l-11.2-8.1-11.2 8.1c-.3.2-.7.2-1 0-.3-.2-.4-.6-.3-.9l4.3-13.2-11.2-8.1c-.3-.2-.4-.6-.3-.9s.4-.6.8-.6h13.8l4.3-13.2c.1-.3.4-.6.8-.6s.7.2.8.6l4.3 13.2h13.8c.4 0 .7.2.8.6s0 .7-.3.9l-11.2 8.1 4.3 13.2c.1.3 0 .7-.3.9-.2.1-.3.2-.5.2zM664.3 583c.2 0 .3.1.5.2l9.6 7-3.7-11.3c-.1-.3 0-.7.3-.9l9.6-7h-11.8c-.4 0-.7-.2-.8-.6l-3.7-11.3-3.7 11.3c-.1.3-.4.6-.8.6H648l9.6 7c.3.2.4.6.3.9l-3.7 11.3 9.6-7c.2-.2.3-.2.5-.2zM395.8 520.9h-41.7c-2.6 0-4.7-2.1-4.7-4.7v-22.9c0-2.6 2.1-4.7 4.7-4.7h41.7c2.6 0 4.7 2.1 4.7 4.7v22.9c0 2.6-2.1 4.7-4.7 4.7zm-41.7-30.5c-1.6 0-3 1.3-3 3v22.9c0 1.6 1.3 3 3 3h41.7c1.6 0 3-1.3 3-3v-22.9c0-1.6-1.3-3-3-3h-41.7z"></path><path fill="#ffbe55" d="M374.9 516.2c-6.3 0-11.4-5.1-11.4-11.4s5.1-11.4 11.4-11.4c6.3 0 11.4 5.1 11.4 11.4s-5.1 11.4-11.4 11.4zm0-21.1c-5.3 0-9.7 4.3-9.7 9.7 0 5.3 4.3 9.7 9.7 9.7s9.7-4.3 9.7-9.7c0-5.3-4.3-9.7-9.7-9.7zM387.3 490.4h-23.7c-.3 0-.6-.2-.8-.5-.1-.3-.1-.7.2-.9l5.3-5.5c.2-.2.4-.3.6-.3h13.3c.2 0 .5.1.6.3l5.1 5.5c.2.2.3.6.2.9-.2.3-.5.5-.8.5zm-21.7-1.7h19.7l-3.5-3.8h-12.6l-3.6 3.8zM360.8 490.4h-5.3c-.5 0-.8-.4-.8-.8v-4c0-.5.4-.8.8-.8h5.3c.5 0 .8.4.8.8v4c0 .4-.3.8-.8.8zm-4.4-1.7h3.6v-2.4h-3.6v2.4zM736.6 753.2c-.2 0-.4-.1-.5-.2l-8.3-6.7h-7.2c-.5 0-.8-.4-.8-.8V735c0-.2.1-.4.2-.6.2-.2.4-.2.6-.2h7.7l7.8-6.7c.3-.2.6-.3.9-.1.3.1.5.4.5.8v24.3c0 .3-.2.6-.5.8-.1-.2-.2-.1-.4-.1zm-15.2-8.6h6.7c.2 0 .4.1.5.2l7.2 5.8v-20.7l-6.6 5.7c-.2.1-.3.2-.6.2h-7.2v8.8zM744.3 748.1c-.2 0-.4-.1-.5-.2-.4-.3-.4-.8-.1-1.2 5.1-6.4.2-12.8 0-13.1-.3-.4-.2-.9.1-1.2s.9-.2 1.2.1c.1.1 5.9 7.7 0 15.2-.2.3-.5.4-.7.4zM751 751.4c-.2 0-.3-.1-.5-.2-.4-.3-.5-.8-.2-1.2 7.1-9.7.3-19.3 0-19.7-.3-.4-.2-.9.2-1.2.4-.3.9-.2 1.2.2.1.1 7.8 11 0 21.7-.2.2-.4.4-.7.4zM757 756.6c-.2 0-.3-.1-.5-.2-.4-.3-.5-.8-.2-1.2 10.6-14.9.1-30 0-30.2-.3-.4-.2-.9.2-1.2.4-.3.9-.2 1.2.2.1.2 11.3 16.3 0 32.2-.1.3-.4.4-.7.4zM471.1 403.2c-.1 0-.2 0-.3-.1-.3-.1-.5-.4-.5-.8v-14l-7.1 6.4c-.3.3-.9.3-1.2-.1-.3-.3-.3-.9.1-1.2l8.3-7.5v-.7l-8.3-7.7c-.3-.3-.4-.9 0-1.2.3-.3.9-.4 1.2 0l7.1 6.6v-12.5c0-.3.2-.6.5-.8.3-.1.7-.1.9.2l8.5 8.1c.2.2.3.4.3.6 0 .2-.1.5-.3.6l-7.1 6.4 7.1 6.6c.3.3.4.8 0 1.2l-8.5 9.4c-.2.4-.4.5-.7.5zm.9-16.2v13.2l6.5-7.1-6.5-6.1zm0-14.4v12l6.5-5.8-6.5-6.2zM546.1 419.4c-.2 0-.4-.1-.6-.2l-6.5-6.5c-.3-.3-.3-.9 0-1.2 1.9-1.9 4.4-2.9 7.1-2.9 2.7 0 5.2 1 7.1 2.9.3.3.3.9 0 1.2l-6.5 6.5c-.2.2-.4.2-.6.2zm-5.3-7.3 5.3 5.3 5.3-5.3c-1.5-1.2-3.3-1.9-5.3-1.9s-3.8.7-5.3 1.9z"></path><path fill="#ffbe55" d="M556.9 408.6c-.2 0-.4-.1-.6-.2-2.7-2.7-6.4-4.3-10.3-4.3-3.9 0-7.5 1.5-10.3 4.3-.3.3-.9.3-1.2 0l-4.3-4.3c-.3-.3-.3-.9 0-1.2 4.2-4.2 9.8-6.5 15.8-6.5s11.6 2.3 15.8 6.5c.3.3.3.9 0 1.2l-4.3 4.3c-.1.1-.3.2-.6.2zm-10.8-6.2c4 0 7.9 1.5 10.8 4.2l3.1-3.1c-3.8-3.5-8.8-5.5-14-5.5s-10.2 1.9-14 5.5l3.1 3.1c3.1-2.7 7-4.2 11-4.2z"></path><path fill="#ffbe55" d="M565.3 400.3c-.2 0-.4-.1-.6-.2-5-5-11.6-7.7-18.6-7.7-7 0-13.6 2.7-18.6 7.7-.3.3-.9.3-1.2 0l-4.3-4.3c-.2-.2-.2-.4-.2-.6 0-.2.1-.4.2-.6 6.4-6.4 15-10 24.1-10 9.1 0 17.7 3.6 24.1 10 .3.3.3.9 0 1.2l-4.3 4.3c-.2.1-.4.2-.6.2zm-41.5-5.2 3.1 3.1c5.2-4.9 12-7.6 19.2-7.6s13.9 2.7 19.2 7.6l3.1-3.1c-6.1-5.8-13.9-8.9-22.3-8.9s-16.3 3.1-22.3 8.9zM439.2 653.9h-32.6c-2.5 0-4.5-2-4.5-4.5v-47.3c0-2.5 2-4.5 4.5-4.5h32.6c2.5 0 4.5 2 4.5 4.5v47.3c0 2.5-2 4.5-4.5 4.5zm-32.6-54.7c-1.6 0-2.8 1.3-2.8 2.8v47.3c0 1.6 1.3 2.8 2.8 2.8h32.6c1.6 0 2.8-1.3 2.8-2.8V602c0-1.6-1.3-2.8-2.8-2.8h-32.6z"></path><path fill="#ffbe55" d="M437.7 613H408c-.5 0-.8-.4-.8-.8v-6.9c0-.5.4-.8.8-.8h29.7c.5 0 .8.4.8.8v6.9c.1.4-.3.8-.8.8zm-28.8-1.7h28v-5.2h-28v5.2zM415.8 626h-7.7c-.5 0-.8-.4-.8-.8v-7.7c0-.5.4-.8.8-.8h7.7c.5 0 .8.4.8.8v7.7c0 .5-.3.8-.8.8zm-6.9-1.7h6v-6h-6v6zM426.8 626H419c-.5 0-.8-.4-.8-.8v-7.7c0-.5.4-.8.8-.8h7.7c.5 0 .8.4.8.8v7.7c.1.5-.3.8-.7.8zm-6.9-1.7h6v-6h-6v6zM415.8 637.1h-7.7c-.5 0-.8-.4-.8-.8v-7.7c0-.5.4-.8.8-.8h7.7c.5 0 .8.4.8.8v7.7c0 .4-.3.8-.8.8zm-6.9-1.7h6v-6h-6v6zM426.8 637.1H419c-.5 0-.8-.4-.8-.8v-7.7c0-.5.4-.8.8-.8h7.7c.5 0 .8.4.8.8v7.7c.1.4-.3.8-.7.8zm-6.9-1.7h6v-6h-6v6zM415.8 648.4h-7.7c-.5 0-.8-.4-.8-.8v-7.7c0-.5.4-.8.8-.8h7.7c.5 0 .8.4.8.8v7.7c0 .4-.3.8-.8.8zm-6.9-1.7h6v-6h-6v6zM426.8 648.4H419c-.5 0-.8-.4-.8-.8v-7.7c0-.5.4-.8.8-.8h7.7c.5 0 .8.4.8.8v7.7c.1.4-.3.8-.7.8zm-6.9-1.7h6v-6h-6v6zM437.7 626H430c-.5 0-.8-.4-.8-.8v-7.7c0-.5.4-.8.8-.8h7.7c.5 0 .8.4.8.8v7.7c.1.5-.3.8-.8.8zm-6.8-1.7h6v-6h-6v6zM437.9 648.4h-8c-.5 0-.8-.4-.8-.8v-19c0-.5.4-.8.8-.8h8c.5 0 .8.4.8.8v19c0 .4-.4.8-.8.8zm-7.2-1.7h6.3v-17.3h-6.3v17.3zM439.5 524.7h-.1c-.5-.1-.8-.5-.7-.9 0-.1 1-8.5-2.7-12.8-1.4-1.6-3.4-2.4-5.9-2.4-2.7 0-4.9.9-6.4 2.6-3.8 4.3-2.7 12.5-2.7 12.6.1.5-.3.9-.7 1-.5.1-.9-.3-1-.7 0-.4-1.2-9 3.1-13.9 1.9-2.1 4.4-3.2 7.7-3.2 3 0 5.4 1 7.2 3 4.3 4.8 3.2 13.7 3.1 14.1-.2.3-.5.6-.9.6z"></path><path fill="#ffbe55" d="M445.3 546.4h-30.9c-.5 0-.8-.4-.8-.8v-23.3c0-.5.4-.8.8-.8h30.9c.5 0 .8.4.8.8v23.3c0 .4-.4.8-.8.8zm-30.1-1.7h29.2V523h-29.2v21.7z"></path><path fill="#ffbe55" d="M429.8 541.7c-1.2 0-2.2-1-2.2-2.2v-5.4c-1.3-.8-2.1-2.2-2.1-3.7 0-2.4 1.9-4.3 4.3-4.3s4.3 1.9 4.3 4.3c0 1.5-.8 2.9-2.1 3.7v5.4c0 1.2-1 2.2-2.2 2.2zm0-14c-1.5 0-2.7 1.2-2.7 2.6 0 1.1.7 2.1 1.7 2.5.4.2.6.7.5 1.1V539.5c0 .3.2.5.5.5s.5-.2.5-.5V533.9c-.2-.4.1-.9.5-1.1 1-.4 1.7-1.4 1.7-2.5-.1-1.4-1.3-2.6-2.7-2.6zM721.3 589.6c-13 0-23.6-10.6-23.6-23.6s10.6-23.6 23.6-23.6 23.6 10.6 23.6 23.6-10.6 23.6-23.6 23.6zm0-45.5c-12.1 0-21.9 9.8-21.9 21.9 0 12.1 9.8 21.9 21.9 21.9 12.1 0 21.9-9.8 21.9-21.9 0-12.1-9.9-21.9-21.9-21.9z"></path><path fill="#ffbe55" d="M721.3 549c-.5 0-.8-.4-.8-.8v-2c0-.5.4-.8.8-.8s.8.4.8.8v2c0 .5-.3.8-.8.8zM718.2 549.3c-.4 0-.8-.3-.8-.7l-.3-2c-.1-.5.2-.9.7-1 .5-.1.9.2 1 .7l.3 2c.1.5-.2.9-.7 1h-.2zM715.2 550.1c-.3 0-.7-.2-.8-.6l-.7-1.9c-.2-.4.1-.9.5-1.1.4-.2.9.1 1.1.5l.7 1.9c.2.4-.1.9-.5 1.1-.1.1-.2.1-.3.1zM712.4 551.5c-.3 0-.6-.2-.7-.4l-1-1.7c-.2-.4-.1-.9.3-1.2.4-.2.9-.1 1.2.3l1 1.7c.2.4.1.9-.3 1.2-.2 0-.3.1-.5.1zM709.9 553.2c-.2 0-.5-.1-.6-.3l-1.3-1.5c-.3-.4-.3-.9.1-1.2.4-.3.9-.3 1.2.1l1.3 1.5c.3.4.3.9-.1 1.2-.2.2-.4.2-.6.2zM707.7 555.4c-.2 0-.4-.1-.5-.2l-1.5-1.3c-.4-.3-.4-.8-.1-1.2.3-.4.8-.4 1.2-.1l1.5 1.3c.4.3.4.8.1 1.2-.2.2-.4.3-.7.3zM706 558c-.1 0-.3 0-.4-.1l-1.7-1c-.4-.2-.5-.8-.3-1.2.2-.4.8-.5 1.2-.3l1.7 1c.4.2.5.8.3 1.2-.3.2-.5.4-.8.4zM704.7 560.8c-.1 0-.2 0-.3-.1l-1.9-.7c-.4-.2-.7-.6-.5-1.1.2-.4.6-.7 1.1-.5l1.9.7c.4.2.7.6.5 1.1-.2.4-.5.6-.8.6zM703.9 563.8h-.1l-2-.3c-.5-.1-.8-.5-.7-1 .1-.5.5-.8 1-.7l2 .3c.5.1.8.5.7 1-.2.4-.5.7-.9.7zM703.6 566.9h-2c-.5 0-.8-.4-.8-.8s.4-.8.8-.8h2c.5 0 .8.4.8.8s-.3.8-.8.8zM701.9 570.3c-.4 0-.8-.3-.8-.7-.1-.5.2-.9.7-1l2-.3c.5-.1.9.2 1 .7.1.5-.2.9-.7 1l-2 .3h-.2zM702.8 573.6c-.3 0-.7-.2-.8-.6-.2-.4.1-.9.5-1.1l1.9-.7c.4-.2.9.1 1.1.5.2.4-.1.9-.5 1.1l-1.9.7c-.1.1-.2.1-.3.1zM704.3 576.7c-.3 0-.6-.2-.7-.4-.2-.4-.1-.9.3-1.2l1.7-1c.4-.2.9-.1 1.2.3.2.4.1.9-.3 1.2l-1.7 1c-.2.1-.3.1-.5.1zM706.3 579.5c-.2 0-.5-.1-.6-.3-.3-.4-.3-.9.1-1.2l1.5-1.3c.4-.3.9-.3 1.2.1.3.4.3.9-.1 1.2l-1.5 1.3c-.2.1-.4.2-.6.2zM708.7 581.9c-.2 0-.4-.1-.5-.2-.4-.3-.4-.8-.1-1.2l1.3-1.5c.3-.4.8-.4 1.2-.1s.4.8.1 1.2l-1.3 1.5c-.2.2-.4.3-.7.3zM711.6 583.9c-.1 0-.3 0-.4-.1-.4-.2-.5-.8-.3-1.2l1-1.7c.2-.4.8-.5 1.2-.3.4.2.5.8.3 1.2l-1 1.7c-.3.2-.5.4-.8.4zM714.7 585.3c-.1 0-.2 0-.3-.1-.4-.2-.7-.6-.5-1.1l.7-1.9c.2-.4.6-.7 1.1-.5.4.2.7.6.5 1.1l-.7 1.9c-.1.4-.5.6-.8.6zM718 586.2h-.1c-.5-.1-.8-.5-.7-1l.3-2c.1-.5.5-.8 1-.7.5.1.8.5.7 1l-.3 2c-.1.4-.5.7-.9.7zM721.4 586.5c-.5 0-.8-.4-.8-.8v-2c0-.5.4-.8.8-.8.5 0 .8.4.8.8v2c.1.4-.3.8-.8.8zM724.9 586.2c-.4 0-.8-.3-.8-.7l-.3-2c-.1-.5.2-.9.7-1 .5-.1.9.2 1 .7l.3 2c.1.5-.2.9-.7 1h-.2zM728.2 585.3c-.3 0-.7-.2-.8-.6l-.7-1.9c-.2-.4.1-.9.5-1.1.4-.2.9.1 1.1.5l.7 1.9c.2.4-.1.9-.5 1.1-.1.1-.2.1-.3.1zM731.3 583.8c-.3 0-.6-.2-.7-.4l-1-1.7c-.2-.4-.1-.9.3-1.2.4-.2.9-.1 1.2.3l1 1.7c.2.4.1.9-.3 1.2-.2.1-.4.1-.5.1zM734.1 581.8c-.2 0-.5-.1-.6-.3l-1.3-1.5c-.3-.4-.3-.9.1-1.2.4-.3.9-.3 1.2.1l1.3 1.5c.3.4.3.9-.1 1.2-.2.2-.4.2-.6.2zM736.5 579.4c-.2 0-.4-.1-.5-.2l-1.5-1.3c-.4-.3-.4-.8-.1-1.2.3-.4.8-.4 1.2-.1l1.5 1.3c.4.3.4.8.1 1.2-.2.2-.4.3-.7.3zM738.5 576.6c-.1 0-.3 0-.4-.1l-1.7-1c-.4-.2-.5-.8-.3-1.2.2-.4.8-.5 1.2-.3l1.7 1c.4.2.5.8.3 1.2-.2.2-.5.4-.8.4zM739.9 573.4c-.1 0-.2 0-.3-.1l-1.9-.7c-.4-.2-.7-.6-.5-1.1.2-.4.6-.7 1.1-.5l1.9.7c.4.2.7.6.5 1.1-.1.4-.4.6-.8.6zM740.8 570.1h-.1l-2-.3c-.5-.1-.8-.5-.7-1 .1-.5.5-.8 1-.7l2 .3c.5.1.8.5.7 1-.1.4-.5.7-.9.7zM741.1 566.7h-2c-.5 0-.8-.4-.8-.8s.4-.8.8-.8h2c.5 0 .8.4.8.8s-.3.8-.8.8zM738.8 563.6c-.4 0-.8-.3-.8-.7-.1-.5.2-.9.7-1l2-.3c.5-.1.9.2 1 .7.1.5-.2.9-.7 1l-2 .3h-.2zM738 560.6c-.3 0-.7-.2-.8-.6-.2-.4.1-.9.5-1.1l1.9-.7c.4-.2.9.1 1.1.5.2.4-.1.9-.5 1.1l-1.9.7c-.1.1-.2.1-.3.1zM736.7 557.8c-.3 0-.6-.2-.7-.4-.2-.4-.1-.9.3-1.2l1.7-1c.4-.2.9-.1 1.2.3.2.4.1.9-.3 1.2l-1.7 1c-.2.1-.4.1-.5.1zM734.9 555.3c-.2 0-.5-.1-.6-.3-.3-.4-.3-.9.1-1.2l1.5-1.3c.4-.3.9-.3 1.2.1.3.4.3.9-.1 1.2l-1.5 1.3c-.2.1-.4.2-.6.2zM732.7 553.1c-.2 0-.4-.1-.5-.2-.4-.3-.4-.8-.1-1.2l1.3-1.5c.3-.4.8-.4 1.2-.1.4.3.4.8.1 1.2l-1.3 1.5c-.2.2-.5.3-.7.3zM730.2 551.4c-.1 0-.3 0-.4-.1-.4-.2-.5-.8-.3-1.2l1-1.7c.2-.4.8-.5 1.2-.3.4.2.5.8.3 1.2l-1 1.7c-.3.2-.5.4-.8.4zM727.4 550.1c-.1 0-.2 0-.3-.1-.4-.2-.7-.6-.5-1.1l.7-1.9c.2-.4.6-.7 1.1-.5.4.2.7.6.5 1.1l-.7 1.9c-.2.4-.5.6-.8.6zM724.4 549.3h-.1c-.5-.1-.8-.5-.7-1l.3-2c.1-.5.5-.8 1-.7.5.1.8.5.7 1l-.3 2c-.2.4-.5.7-.9.7z"></path><path fill="#ffbe55" d="M706.9 579.6c-.2 0-.5-.1-.6-.3-.3-.3-.3-.7 0-1.1l11.7-16c.1-.1.2-.2.3-.2l17.1-8.9c.3-.2.8-.1 1 .2.3.3.3.7 0 1L725.2 570l-.3.3-17.6 9.2c-.2.1-.3.1-.4.1zm12.3-16.2-9.5 12.9 14.2-7.5 9-12.7-13.7 7.3z"></path><path fill="#ffbe55" d="M724.5 570.3c-.2 0-.5-.1-.6-.3l-5.9-6.8c-.3-.4-.3-.9.1-1.2.4-.3.9-.3 1.2.1l5.9 6.8c.3.4.3.9-.1 1.2-.2.2-.4.2-.6.2zM702 780.2h-.3c-11.5-3.7-24.1 0-24.2 0-.3.1-.5 0-.7-.1-.2-.2-.3-.4-.3-.7v-37.1c0-.4.2-.7.6-.8.5-.2 13.2-3.9 25.2 0 .3.1.6.4.6.8v37.1c0 .3-.1.5-.3.7-.2 0-.4.1-.6.1zm-23.9-37.3v35.3c3.3-.8 13.3-2.8 23.1 0v-35.3c-9.9-3-20.5-.7-23.1 0z"></path><path fill="#ffbe55" d="M652.5 780.2c-.2 0-.4-.1-.5-.2-.2-.2-.3-.4-.3-.7v-37.1c0-.4.2-.7.6-.8 12-3.9 24.7-.2 25.2 0 .4.1.6.4.6.8v37.1c0 .3-.1.5-.3.7-.2.2-.5.2-.7.1-.1 0-12.8-3.7-24.2 0-.2 0-.3.1-.4.1zm11.8-3.5c5.5 0 10.1 1 12.2 1.5v-35.3c-2.6-.7-13.2-3-23.1 0v35.3c3.7-1.1 7.5-1.5 10.9-1.5zM360.2 462.4c-8.6 0-15.6-7-15.6-15.6s7-15.6 15.6-15.6 15.6 7 15.6 15.6-7 15.6-15.6 15.6zm0-29.4c-7.7 0-13.9 6.2-13.9 13.9s6.2 13.9 13.9 13.9 13.9-6.2 13.9-13.9-6.2-13.9-13.9-13.9z"></path><path fill="#ffbe55" d="M360.2 454.1c-.5 0-.8-.4-.8-.8v-13.1c0-.5.4-.8.8-.8s.8.4.8.8v13.1c.1.4-.3.8-.8.8z"></path><path fill="#ffbe55" d="M366.7 447.5h-13.1c-.5 0-.8-.4-.8-.8 0-.5.4-.8.8-.8h13.1c.5 0 .8.4.8.8.1.5-.3.8-.8.8zM358.2 754.4c-8.6 0-15.6-7-15.6-15.6s7-15.6 15.6-15.6 15.6 7 15.6 15.6c-.1 8.6-7 15.6-15.6 15.6zm0-29.4c-7.7 0-13.9 6.2-13.9 13.9s6.2 13.9 13.9 13.9 13.9-6.2 13.9-13.9c-.1-7.7-6.3-13.9-13.9-13.9z"></path><path fill="#ffbe55" d="M364.7 739.5h-13.1c-.5 0-.8-.4-.8-.8s.4-.8.8-.8h13.1c.5 0 .8.4.8.8s-.3.8-.8.8zM593 417.8c-.5 0-.8-.4-.8-.8v-29.4c0-.5.4-.8.8-.8s.8.4.8.8V417c0 .4-.4.8-.8.8z"></path><path fill="#ffbe55" d="M584.9 396.5c-.2 0-.4-.1-.6-.2-.3-.3-.3-.9 0-1.2l8-8c.3-.3.9-.3 1.2 0s.3.9 0 1.2l-8 8c-.1.1-.3.2-.6.2z"></path><path fill="#ffbe55" d="M601 396.5c-.2 0-.4-.1-.6-.2l-8-8c-.3-.3-.3-.9 0-1.2s.9-.3 1.2 0l8 8c.3.3.3.9 0 1.2-.2.1-.4.2-.6.2zM608.6 417.8c-.5 0-.8-.4-.8-.8v-29.4c0-.5.4-.8.8-.8.5 0 .8.4.8.8V417c0 .4-.3.8-.8.8z"></path><path fill="#ffbe55" d="M608.6 417.8c-.2 0-.4-.1-.6-.2-.3-.3-.3-.9 0-1.2l8-8c.3-.3.9-.3 1.2 0 .3.3.3.9 0 1.2l-8 8c-.2.1-.4.2-.6.2z"></path><path fill="#ffbe55" d="M608.6 417.8c-.2 0-.4-.1-.6-.2l-8-8c-.3-.3-.3-.9 0-1.2s.9-.3 1.2 0l8 8c.3.3.3.9 0 1.2-.2.1-.4.2-.6.2zM723.2 514.9c-8.9 0-16.1-7.2-16.1-16.1 0-6.8 4.3-12.8 10.6-15.2.3-.1.7 0 1 .3.2.3.2.7.1 1-1.5 2.3-2.3 5-2.3 7.8 0 8 6.5 14.5 14.5 14.5 1.7 0 3.3-.3 4.9-.9.3-.1.7 0 .9.3.2.3.2.7.1 1-3.1 4.5-8.2 7.3-13.7 7.3zm-7.1-28.7c-4.4 2.5-7.3 7.3-7.3 12.5 0 8 6.5 14.5 14.5 14.5 4.1 0 8-1.7 10.7-4.7-1 .2-2 .3-3 .3-8.9 0-16.1-7.2-16.1-16.1-.2-2.3.3-4.4 1.2-6.5zM378.1 596c-.3 0-.6-.1-.9-.2-.7-.4-.9-1.2-.7-1.9l6.3-19.2h-17v2.2c0 .9-.4 1.7-1.1 2.3-.7.6-1.6.8-2.4.7-1.4-.2-2.5-1.6-2.5-3.1v-14.7c0-.9.4-1.7 1.1-2.3.7-.6 1.6-.8 2.4-.7 1.4.2 2.5 1.6 2.5 3.1v2.1h17l-6.3-19c-.2-.8 0-1.5.7-2 .7-.4 1.5-.3 2.1.3l20.1 20.7h13.2c2.5 0 4.7 1.7 5.2 4.1.3 1.5-.1 3.1-1 4.4-1 1.2-2.5 1.9-4 1.9h-13.4l-20.2 20.8c-.3.3-.7.5-1.1.5zM365 573h19c.3 0 .5.1.7.4.2.2.2.5.1.8l-6.6 20 20.3-20.9c.2-.2.4-.3.6-.3h13.7c1.1 0 2-.5 2.7-1.3.7-.8.9-1.9.7-2.9-.3-1.6-1.8-2.7-3.6-2.7H399c-.2 0-.4-.1-.6-.3L378 544.9l6.7 20.1c.1.3 0 .5-.1.8-.2.2-.4.4-.7.4H365c-.5 0-.8-.4-.8-.8v-3c0-.7-.5-1.3-1.1-1.4-.4-.1-.8 0-1.1.3-.3.2-.5.6-.5 1V577c0 .7.5 1.3 1.1 1.4.4.1.8 0 1.1-.3.3-.2.5-.6.5-1V574c-.1-.7.3-1 .8-1zM501.4 420.5c-6 0-10.8-4.9-10.8-10.8 0-6 4.9-10.8 10.8-10.8.5 0 .8.4.8.8 0 .5-.4.8-.8.8-5 0-9.1 4.1-9.1 9.1s4.1 9.1 9.1 9.1 9.1-4.1 9.1-9.1c0-.5.4-.8.8-.8.5 0 .8.4.8.8.1 6-4.7 10.9-10.7 10.9z"></path><path fill="#ffbe55" d="M501.4 395.8v9.4l7.5-4.7zM450 894.1c-.5 0-.8-.4-.8-.8 0-.5.4-.8.8-.8 5 0 9.1-4.1 9.1-9.1s-4.1-9.1-9.1-9.1-9.1 4.1-9.1 9.1c0 .5-.4.8-.8.8-.5 0-.8-.4-.8-.8 0-6 4.9-10.8 10.8-10.8s10.8 4.9 10.8 10.8c-.1 5.8-4.9 10.7-10.9 10.7z"></path><path fill="#ffbe55" d="M436.2 883.2h9.4l-4.7 7.5zM710.3 454.1c-.2 0-.5-.1-.6-.3l-9.2-9.7c-.3-.3-.3-.9 0-1.2.3-.3.9-.3 1.2 0l8.5 8.9 14.4-21.5c.3-.4.8-.5 1.2-.2.4.3.5.8.2 1.2l-15 22.4c-.1.2-.4.4-.7.4.1 0 0 0 0 0zM659.2 722.2c-.2 0-.3 0-.4-.1-6.3-3.9-10.1-10.6-10.1-18 0-11.6 9.5-21.1 21.1-21.1 11.6 0 21.1 9.5 21.1 21.1 0 7.4-3.8 14.1-10.1 18-.4.2-.9.1-1.2-.3-.2-.4-.1-.9.3-1.2 5.8-3.6 9.3-9.7 9.3-16.5 0-10.7-8.7-19.4-19.4-19.4s-19.4 8.7-19.4 19.4c0 6.8 3.5 12.9 9.3 16.5.4.2.5.8.3 1.2-.2.2-.5.4-.8.4z"></path><path fill="#ffbe55" d="M678.4 719c-.3 0-.6-.1-.7-.4-.2-.4-.1-.9.3-1.2 4.7-2.9 7.5-7.9 7.5-13.3 0-8.6-7-15.7-15.7-15.7-8.6 0-15.7 7-15.7 15.7 0 5.5 2.8 10.5 7.5 13.3.4.2.5.8.3 1.2-.2.4-.8.5-1.2.3-5.2-3.2-8.3-8.7-8.3-14.8 0-9.6 7.8-17.3 17.3-17.3s17.3 7.8 17.3 17.3c0 6.1-3.1 11.6-8.3 14.8 0 .1-.2.1-.3.1z"></path><path fill="#ffbe55" d="M676.4 715.8c-.3 0-.6-.1-.7-.4-.2-.4-.1-.9.3-1.2 3.6-2.2 5.7-6 5.7-10.2 0-6.6-5.3-11.9-11.9-11.9-6.6 0-11.9 5.3-11.9 11.9 0 4.2 2.1 8 5.7 10.2.4.2.5.8.3 1.2-.2.4-.8.5-1.2.3-4.1-2.5-6.5-6.8-6.5-11.6 0-7.5 6.1-13.6 13.6-13.6s13.6 6.1 13.6 13.6c0 4.8-2.4 9.1-6.5 11.6-.1.1-.3.1-.5.1z"></path><path fill="#ffbe55" d="M676.4 715.8c-.3 0-.6-.1-.7-.4-.2-.4-.1-.9.3-1.2 3.6-2.2 5.7-6 5.7-10.2 0-6.6-5.3-11.9-11.9-11.9-6.6 0-11.9 5.3-11.9 11.9 0 4.2 2.1 8 5.7 10.2.4.2.5.8.3 1.2-.2.4-.8.5-1.2.3-4.1-2.5-6.5-6.8-6.5-11.6 0-7.5 6.1-13.6 13.6-13.6s13.6 6.1 13.6 13.6c0 4.8-2.4 9.1-6.5 11.6-.1.1-.3.1-.5.1z"></path><path fill="#ffbe55" d="M674.5 712.6c-.3 0-.6-.1-.7-.4-.2-.4-.1-.9.3-1.2 2.5-1.5 3.9-4.1 3.9-7 0-4.5-3.7-8.2-8.2-8.2-4.5 0-8.2 3.7-8.2 8.2 0 2.8 1.5 5.4 3.9 7 .4.2.5.8.3 1.2-.2.4-.8.5-1.2.3-3-1.8-4.7-5-4.7-8.4 0-5.4 4.4-9.9 9.9-9.9 5.4 0 9.9 4.4 9.9 9.9 0 3.4-1.8 6.6-4.7 8.4-.2.1-.4.1-.5.1z"></path><path fill="#ffbe55" d="M672.5 709.5c-.3 0-.6-.1-.7-.4-.2-.4-.1-.9.3-1.2 1.3-.8 2.1-2.2 2.1-3.8 0-2.5-2-4.5-4.5-4.5s-4.5 2-4.5 4.5c0 1.5.8 3 2.1 3.8.4.2.5.8.3 1.2-.2.4-.8.5-1.2.3-1.8-1.1-2.9-3.1-2.9-5.2 0-3.4 2.8-6.1 6.1-6.1 3.4 0 6.1 2.8 6.1 6.1 0 2.1-1.1 4.1-2.9 5.2.1 0-.1.1-.3.1z"></path><path fill="#ffbe55" d="M672.5 709.5c-.3 0-.6-.1-.7-.4-.2-.4-.1-.9.3-1.2 1.3-.8 2.1-2.2 2.1-3.8 0-2.5-2-4.5-4.5-4.5s-4.5 2-4.5 4.5c0 1.5.8 3 2.1 3.8.4.2.5.8.3 1.2-.2.4-.8.5-1.2.3-1.8-1.1-2.9-3.1-2.9-5.2 0-3.4 2.8-6.1 6.1-6.1 3.4 0 6.1 2.8 6.1 6.1 0 2.1-1.1 4.1-2.9 5.2.1 0-.1.1-.3.1z"></path><path fill="#ffbe55" d="M671.9 704c0-1.2-.9-2.1-2.1-2.1-1.2 0-2.1.9-2.1 2.1 0 1.2.9 2.1 2.1 2.1 1.2.1 2.1-.9 2.1-2.1zM645.5 442.7c-.4 0-.7-.3-.8-.6-.1-.4.1-.8.5-1 1.4-.5 3.3-3.2 4.4-5.2-8.9-4.3-14.4-12.2-14.4-20.7 0-13.2 13.1-24 29.2-24s29.2 10.8 29.2 24-13.1 24-29.2 24c-2.4 0-4.9-.3-7.2-.8-4.4 3.3-11.2 4.3-11.5 4.3h-.2zm18.8-49.9c-15.1 0-27.5 10-27.5 22.3 0 8.1 5.5 15.6 14.3 19.6.2.1.4.3.5.5.1.2.1.5 0 .7-.2.4-1.4 2.6-2.9 4.5 2.3-.6 5.5-1.7 7.7-3.5.2-.2.5-.2.7-.2 2.4.5 4.8.8 7.3.8 15.1 0 27.5-10 27.5-22.3-.1-12.4-12.5-22.4-27.6-22.4zM424.9 774c-.1 0-.3 0-.4-.1-.3-.2-.4-.5-.4-.8.1-1.1.1-2.1.2-2.9v-.9c0-.3.1-.5.3-.7 2.6-2.5 4-5.8 4-9.3 0-7.1-5.8-12.9-12.9-12.9s-12.9 5.8-12.9 12.9c0 3.6 1.4 6.9 4 9.3.2.2.3.4.3.7v.9c0 .8.1 1.8.2 2.9 0 .3-.1.6-.4.8-.3.2-.6.2-.9 0-4.9-3.3-7.8-8.7-7.8-14.6 0-9.7 7.9-17.6 17.6-17.6s17.6 7.9 17.6 17.6c0 5.8-2.9 11.3-7.8 14.6-.4 0-.5.1-.7.1zm1-4.5v.7c0 .4 0 .7-.1 1.1 3.5-3 5.6-7.4 5.6-12.1 0-8.7-7.1-15.9-15.9-15.9s-15.9 7.1-15.9 15.9c0 4.7 2.1 9.1 5.6 12.1 0-.4 0-.8-.1-1.1v-.7c-2.7-2.8-4.3-6.4-4.3-10.3 0-8 6.5-14.6 14.6-14.6s14.6 6.5 14.6 14.6c.2 3.9-1.3 7.6-4.1 10.3z"></path><path fill="#ffbe55" d="M407.4 783.9h-.3c-10.5-3.6-17.6-13.5-17.6-24.6 0-14.4 11.7-26.1 26.1-26.1s26.1 11.7 26.1 26.1c0 11.1-7.1 21-17.6 24.6-.3.1-.6 0-.8-.1-.2-.2-.3-.5-.3-.8.1-.9.3-2.1.4-3.3 0-.3.2-.6.5-.7 8-3.4 13.1-11.1 13.1-19.7 0-11.8-9.6-21.4-21.4-21.4s-21.4 9.6-21.4 21.4c0 8.6 5.1 16.4 13.1 19.7.3.1.5.4.5.7.1 1.2.3 2.4.4 3.3 0 .3-.1.6-.3.8-.2 0-.3.1-.5.1zm8.2-49c-13.4 0-24.4 10.9-24.4 24.4 0 9.9 6 18.8 15.1 22.5-.1-.5-.1-.9-.2-1.5-8.3-3.7-13.7-12-13.7-21.1 0-12.7 10.4-23.1 23.1-23.1 12.7 0 23.1 10.4 23.1 23.1 0 9.1-5.3 17.4-13.7 21.1-.1.5-.1 1-.2 1.5 9.1-3.7 15.1-12.6 15.1-22.5.2-13.5-10.8-24.4-24.2-24.4z"></path><path fill="#ffbe55" d="M415.6 764.2c-3.7 0-6.8-3-6.8-6.8 0-3.7 3-6.8 6.8-6.8 3.7 0 6.8 3 6.8 6.8s-3.1 6.8-6.8 6.8zm0-11.8c-2.8 0-5.1 2.3-5.1 5.1s2.3 5.1 5.1 5.1 5.1-2.3 5.1-5.1-2.3-5.1-5.1-5.1zM415.6 790c-3.9 0-5.1-3.1-5.2-4.8 0-.3-1.4-9.9-1.6-15.2-.1-1.7.4-3 1.5-3.9 1.8-1.5 4.6-1.2 5.3-1.1.7-.1 3.5-.4 5.3 1.1 1 .9 1.5 2.2 1.5 3.9-.2 5.3-1.5 14.9-1.6 15.3-.1 1.6-1.3 4.7-5.2 4.7zm-1.4-23.4c-.9 0-2 .1-2.8.8-.6.6-.9 1.4-.9 2.6.2 5.2 1.6 15 1.6 15.1 0 .4.3 3.2 3.5 3.2s3.5-2.8 3.5-3.2c0-.2 1.4-10 1.6-15.2 0-1.2-.2-2-.9-2.6-1.4-1.2-4-.7-4-.7h-.3c-.1.1-.6 0-1.3 0zM654.8 666.8c-3 0-7.4-1.4-8.3-6.8-1.3-8 8.1-9.5 11.2-10 .8-.1 1.4-.8 1.4-1.7.2-6.9 0-27.7-.1-32.3 0-.9.6-1.7 1.5-1.9l31.6-6.9c.5-.1 1 0 1.4.4.4.3.6.8.6 1.3v44.2c0 .1-.5 7.7-8.5 7.8-2.8.3-8.3-.6-9.3-6.7-1.2-7.9 7.9-9.4 10.8-9.9 1-.2 1.7-1 1.7-2v-19.8l-24.8 5.1V659c0 .1-.5 7.7-8.5 7.8h-.7zm37.7-57.9-31.6 6.8c-.1 0-.2.1-.2.2.1 4.6.3 25.5.1 32.4 0 1.6-1.2 3-2.9 3.3-7.5 1.2-10.5 3.7-9.8 8 1 6 7.2 5.3 7.5 5.3h.1c6.4 0 6.8-5.9 6.8-6.1v-32.1c0-.4.3-.7.7-.8l26.4-5.5c.2-.1.5 0 .7.2.2.2.3.4.3.7v20.8c0 1.8-1.3 3.4-3.1 3.7-7.1 1.2-10.1 3.7-9.4 8 1 6.1 7.2 5.3 7.5 5.3h.1c6.4 0 6.8-5.9 6.8-6.1v-44.1zM433.6 481.2h-.3c-22.8-3.5-41.6-30.1-43.1-39.9-1.4-9.2 6-12 8.3-12.7.8-.2 1.6.1 2 .7l8.7 11.9c.4.6.5 1.4.1 2l-3.6 6.4v.2c4.9 8.2 13.8 14.7 15.5 15.9h.2l6.9-2.8c.6-.2 1.2-.2 1.7.1l12.2 7.4c.7.4 1 1.1.9 1.9-1.2 8-8.5 8.8-9.4 8.9h-.1zm-34.7-51c-2.6.7-8.3 3.2-7.1 10.8 1.4 9.5 19.6 35.1 41.7 38.5 1.2-.1 6.9-.8 7.9-7.4 0-.1 0-.1-.1-.2l-12.2-7.4h-.2l-6.9 2.8c-.6.2-1.3.2-1.8-.2-2.5-1.8-11.1-8.1-16-16.4-.3-.6-.4-1.3 0-1.9l3.6-6.4v-.2l-8.7-11.9c-.1 0-.1-.1-.2-.1zM559.9 363.6c-8.2 0-14.9-6.7-14.9-14.9s6.7-14.9 14.9-14.9 14.9 6.7 14.9 14.9-6.7 14.9-14.9 14.9zm0-28.1c-7.3 0-13.2 5.9-13.2 13.2 0 7.3 5.9 13.2 13.2 13.2 7.3 0 13.2-5.9 13.2-13.2 0-7.3-5.9-13.2-13.2-13.2z"></path><path fill="#ffbe55" d="M586.4 374.2h-25.8c-4.8 0-8.8-3.9-8.8-8.8 0-4.2 3.1-7.9 7.2-8.6-.1-.5-.1-1.1-.1-1.6 0-8 6.5-14.5 14.5-14.5 5.7 0 10.8 3.3 13.2 8.5 6.8.1 12.3 5.6 12.3 12.5s-5.6 12.5-12.5 12.5zm-13-31.8c-7 0-12.8 5.7-12.8 12.8 0 .7.1 1.4.2 2.2 0 .2 0 .5-.2.7-.1.2-.4.3-.6.3-3.7.3-6.5 3.4-6.5 7.1 0 3.9 3.2 7.1 7.1 7.1h25.8c5.9 0 10.8-4.8 10.8-10.8 0-5.9-4.8-10.8-10.8-10.8h-.4c-.4 0-.7-.2-.8-.5-1.9-4.9-6.6-8.1-11.8-8.1zM656.9 842.2h-9.3c-.5 0-.8-.4-.8-.8 0-.1-.1-9-7.3-14.1-4.7-3.4-6.6-12.2-4.3-19.4 1.4-4.2 5.4-11.3 17.1-11.3 11.7 0 15.7 7.1 17.1 11.3 2.3 7.1.3 16-4.3 19.4-7.2 5.2-7.3 14-7.3 14.1 0 .4-.4.8-.9.8zm-8.5-1.7h7.7c.2-2.5 1.3-9.9 7.9-14.6 3.6-2.6 6-10.4 3.7-17.5-1.2-3.8-4.9-10.2-15.5-10.2s-14.3 6.4-15.5 10.2c-2.3 7.1.1 14.9 3.7 17.5 6.7 4.7 7.8 12.1 8 14.6z"></path><path fill="#ffbe55" d="M659.6 820.2H645c-.5 0-.8-.4-.8-.8 0-.5.4-.8.8-.8h14.5c.5 0 .8.4.8.8.1.4-.3.8-.7.8z"></path><path fill="#ffbe55" d="M652.3 838.8c-.5 0-.8-.4-.8-.8v-18.6c0-.5.4-.8.8-.8.5 0 .8.4.8.8V838c0 .4-.3.8-.8.8zM657.1 845.4h-9.9c-.5 0-.8-.4-.8-.8 0-.5.4-.8.8-.8h9.9c.5 0 .8.4.8.8 0 .5-.3.8-.8.8zM655.9 849.1h-7.5c-.5 0-.8-.4-.8-.8 0-.5.4-.8.8-.8h7.5c.5 0 .8.4.8.8s-.3.8-.8.8zM654.3 852.6H650c-.5 0-.8-.4-.8-.8s.4-.8.8-.8h4.4c.5 0 .8.4.8.8s-.4.8-.9.8zM751 477.2c-4.4 0-8-3.6-8-8v-19.4c0-4.4 3.6-8 8-8s8 3.6 8 8v19.4c0 4.4-3.6 8-8 8zm0-33.7c-3.5 0-6.3 2.8-6.3 6.3v19.4c0 3.5 2.8 6.3 6.3 6.3s6.3-2.8 6.3-6.3v-19.4c0-3.5-2.9-6.3-6.3-6.3z"></path><path fill="#ffbe55" d="M751 480.8c-6.4 0-11.6-5.2-11.6-11.6v-9.3c0-.5.4-.8.8-.8.5 0 .8.4.8.8v9.3c0 5.5 4.4 9.9 9.9 9.9s9.9-4.4 9.9-9.9v-9.7c0-.5.4-.8.8-.8.5 0 .8.4.8.8v9.7c.2 6.4-5 11.6-11.4 11.6z"></path><path fill="#ffbe55" d="M751 488.1c-.5 0-.8-.4-.8-.8v-7.4c0-.5.4-.8.8-.8.5 0 .8.4.8.8v7.4c0 .5-.4.8-.8.8z"></path><path fill="#ffbe55" d="M757.4 488.1h-12.8c-.5 0-.8-.4-.8-.8 0-.5.4-.8.8-.8h12.8c.5 0 .8.4.8.8 0 .5-.3.8-.8.8zM475 817.4h-11.3c-.5 0-.8-.4-.8-.8v-11.3c0-.3.2-.7.5-.8.3-.1.7-.1.9.2l11.3 11.3c.2.2.3.6.2.9-.2.3-.5.5-.8.5zm-10.5-1.7h8.4l-8.4-8.4v8.4z"></path><path fill="#ffbe55" d="M475 853.5h-36.1c-.5 0-.8-.4-.8-.8v-47.4c0-.5.4-.8.8-.8h24.8c.2 0 .4.1.6.2l11.3 11.3c.2.2.2.4.2.6v36.1c0 .4-.4.8-.8.8zm-35.3-1.7h34.4v-34.9l-10.8-10.8h-23.6v45.7zM750.2 809.3c-10.5 0-19-8.5-19-19s8.5-19 19-19 19 8.5 19 19-8.6 19-19 19zm0-36.3c-9.5 0-17.3 7.8-17.3 17.3s7.8 17.3 17.3 17.3 17.3-7.8 17.3-17.3-7.8-17.3-17.3-17.3z"></path><path fill="#ffbe55" d="M750.2 809.3c-.5 0-.8-.4-.8-.8v-36.3c0-.5.4-.8.8-.8.5 0 .8.4.8.8v36.3c0 .4-.4.8-.8.8zM747.6 809.1c-.2 0-.4-.1-.6-.2-.3-.2-6.2-5.6-6.2-18.6 0-13 6-18.4 6.2-18.6.4-.3.9-.3 1.2.1.3.4.3.9-.1 1.2-.1 0-5.7 5.1-5.7 17.3 0 12.2 5.6 17.3 5.7 17.3.3.3.4.8.1 1.2-.1.2-.4.3-.6.3zM753 809.1c-.2 0-.5-.1-.6-.3-.3-.4-.3-.9.1-1.2.1-.1 5.7-5.1 5.7-17.3 0-12.2-5.6-17.3-5.7-17.3-.3-.3-.4-.8-.1-1.2.3-.4.8-.4 1.2-.1.3.2 6.2 5.6 6.2 18.6 0 13-6 18.4-6.2 18.6-.2.1-.4.2-.6.2z"></path><path fill="#ffbe55" d="M768.3 791.2H732c-.5 0-.8-.4-.8-.8 0-.5.4-.8.8-.8h36.3c.5 0 .8.4.8.8.1.4-.3.8-.8.8zM764.3 802.7c-.1 0-.3 0-.4-.1-2.6-1.4-7.1-3-13.7-3-6.4 0-10.8 1.6-13.4 2.9-.4.2-.9.1-1.1-.4-.2-.4-.1-.9.4-1.1 2.7-1.4 7.4-3.1 14.2-3.1 7 0 11.7 1.8 14.5 3.2.4.2.6.7.3 1.1-.2.3-.5.5-.8.5zM750.5 783.6c-7 0-11.7-1.8-14.5-3.2-.4-.2-.6-.7-.3-1.1.2-.4.7-.6 1.1-.3 2.6 1.4 7.1 3 13.7 3 6.4 0 10.8-1.6 13.4-2.9.4-.2.9-.1 1.1.4.2.4.1.9-.4 1.1-2.7 1.3-7.3 3-14.1 3zM407.1 840.5c-8.7 0-15.8-7.1-15.8-15.8 0-8.7 7.1-15.8 15.8-15.8 8.7 0 15.8 7.1 15.8 15.8 0 8.7-7.1 15.8-15.8 15.8zm0-29.9c-7.8 0-14.1 6.3-14.1 14.1s6.3 14.1 14.1 14.1 14.1-6.3 14.1-14.1-6.3-14.1-14.1-14.1z"></path><path fill="#ffbe55" d="M412.6 834.1c-.2 0-.4-.1-.6-.2l-5-4.5-5.1 4.5c-.3.2-.7.3-1 .1-.3-.2-.5-.6-.3-1l5.7-18.1c.1-.4.4-.6.8-.6s.7.2.8.6l5.5 18.1c.1.4 0 .8-.4 1-.1 0-.2.1-.4.1zm-5.5-16.1-4 12.7 3.4-3c.3-.3.8-.3 1.1 0l3.3 2.9-3.8-12.6zM734.7 636.5c-.5 0-.8-.4-.8-.8v-20.9c0-.5.4-.8.8-.8s.8.4.8.8v20.9c0 .4-.4.8-.8.8z"></path><path fill="#ffbe55" d="M737.4 629.2c0-1.5-1.2-2.7-2.7-2.7-1.5 0-2.7 1.2-2.7 2.7 0 1.5 1.2 2.7 2.7 2.7 1.5 0 2.7-1.3 2.7-2.7z"></path><path fill="#ffbe55" d="M734.7 632.7c-2 0-3.6-1.6-3.6-3.6s1.6-3.6 3.6-3.6 3.6 1.6 3.6 3.6c-.1 2-1.7 3.6-3.6 3.6zm0-5.4c-1 0-1.9.8-1.9 1.9 0 1 .8 1.9 1.9 1.9 1 0 1.9-.8 1.9-1.9-.1-1.1-.9-1.9-1.9-1.9z"></path><path fill="#ffbe55" d="M734.7 649.2c-11 0-20-9-20-20s9-20 20-20 20 9 20 20-9 20-20 20zm0-38.4c-10.1 0-18.3 8.2-18.3 18.3 0 10.1 8.2 18.3 18.3 18.3 10.1 0 18.3-8.2 18.3-18.3 0-10.1-8.2-18.3-18.3-18.3z"></path><path fill="#ffbe55" d="M736.8 610.3c-.5 0-.8-.4-.8-.8v-2.1c0-.6-.5-1.1-1.1-1.1-.6 0-1.1.5-1.1 1.1v2.1c0 .5-.4.8-.8.8s-.8-.4-.8-.8v-2.1c0-1.6 1.3-2.8 2.8-2.8 1.6 0 2.8 1.3 2.8 2.8v2.1c-.2.4-.5.8-1 .8zM752.2 615.3c-.5 0-.9-.2-1.3-.5l-1.8-1.8c-.7-.7-.7-1.8 0-2.5l.7-.7c.7-.7 1.8-.7 2.5 0l1.8 1.8c.7.7.7 1.8 0 2.5l-.7.7c-.3.3-.8.5-1.2.5zm-.1-1.8h.2l.7-.7v-.2l-1.8-1.8h-.2l-.7.7v.2l1.8 1.8z"></path><path fill="#ffbe55" d="M748.2 616.4c-.2 0-.4-.1-.6-.2-.3-.3-.3-.9 0-1.2l2.4-2.4c.3-.3.9-.3 1.2 0 .3.3.3.9 0 1.2l-2.4 2.4c-.1.2-.4.2-.6.2zM594.3 881.1h-11.2c-.5 0-.8-.4-.8-.8v-8.8c0-.5.4-.8.8-.8h11.2c.5 0 .8.4.8.8v8.8c.1.4-.3.8-.8.8zm-10.3-1.7h9.5v-7.1H584v7.1zM608 881.1h-11.2c-.5 0-.8-.4-.8-.8v-19.9c0-.5.4-.8.8-.8H608c.5 0 .8.4.8.8v19.9c.1.4-.3.8-.8.8zm-10.4-1.7h9.5v-18.2h-9.5v18.2zM621.7 881.1h-11.2c-.5 0-.8-.4-.8-.8v-42.6c0-.5.4-.8.8-.8h11.2c.5 0 .8.4.8.8v42.6c0 .4-.3.8-.8.8zm-10.4-1.7h9.5v-40.9h-9.5v40.9zM635.4 881.1h-11.2c-.5 0-.8-.4-.8-.8v-29.7c0-.5.4-.8.8-.8h11.2c.5 0 .8.4.8.8v29.7c0 .4-.4.8-.8.8zm-10.4-1.7h9.5v-28H625v28zM635.4 884.3h-52.3c-.6 0-1.1-.5-1.1-1.1 0-.6.5-1.1 1.1-1.1h52.3c.6 0 1.1.5 1.1 1.1-.1.6-.5 1.1-1.1 1.1zM514 848.8c-11 0-20-9-20-20s9-20 20-20 20 9 20 20-9 20-20 20zm0-38.3c-10.1 0-18.3 8.2-18.3 18.3 0 10.1 8.2 18.3 18.3 18.3 10.1 0 18.3-8.2 18.3-18.3 0-10.1-8.2-18.3-18.3-18.3z"></path><path fill="#ffbe55" d="M514 841.6c-7.1 0-12.8-5.8-12.8-12.8 0-7.1 5.8-12.8 12.8-12.8s12.8 5.8 12.8 12.8c0 7.1-5.8 12.8-12.8 12.8zm0-24c-6.1 0-11.1 5-11.1 11.1s5 11.1 11.1 11.1 11.1-5 11.1-11.1-5-11.1-11.1-11.1z"></path><path fill="#ffbe55" d="M514 835.5a6.7 6.7 0 1 1 0-13.4 6.7 6.7 0 0 1 0 13.4zm0-11.7c-2.8 0-5 2.3-5 5 0 2.8 2.3 5 5 5 2.8 0 5-2.3 5-5 0-2.8-2.3-5-5-5z"></path><path fill="#ffbe55" d="M514 829.6c-.2 0-.4-.1-.6-.2-.3-.3-.3-.9 0-1.2l13.6-13.6c.3-.3.9-.3 1.2 0s.3.9 0 1.2l-13.6 13.6c-.2.2-.4.2-.6.2zM367 834.6h-22.2c-1.1 0-2.1-.9-2.1-2.1 0-1.1.9-2.1 2.1-2.1h9v-20.1c0-.5.4-.8.8-.8h2.5c.5 0 .8.4.8.8v20.1h9c1.1 0 2.1.9 2.1 2.1.1 1.2-.8 2.1-2 2.1zm-22.2-2.4c-.2 0-.4.2-.4.4s.2.4.4.4H367c.2 0 .4-.2.4-.4s-.2-.4-.4-.4h-9.9c-.5 0-.8-.4-.8-.8v-20.1h-.8v20.1c0 .5-.4.8-.8.8h-9.9zM380.1 804.5h-48.4c-.2 0-.4-.1-.6-.3-.2-.2-.2-.4-.2-.6l.6-18.1c0-2.4 1.9-4.3 4.3-4.3H376c2.4 0 4.3 1.9 4.3 4.3l.6 18.1c0 .2-.1.5-.2.6-.1.2-.4.3-.6.3zm-47.5-1.7h46.7l-.6-17.2c0-1.5-1.2-2.7-2.6-2.7h-40.2c-1.5 0-2.6 1.2-2.6 2.6l-.7 17.3zM378.7 809.5h-47c-1.8 0-3.1-2.5-3.3-3-.1-.3-.1-.6.1-.8.2-.2.4-.4.7-.4h52c.3 0 .6.1.7.4.2.2.2.5.1.8-.2.5-1.4 3-3.3 3zm-48-2.5c.4.5.8.8 1 .8h47c.3 0 .7-.4 1-.8h-49z"></path><path fill="#ffbe55" d="M336.6 782.9c-.5 0-.8-.4-.8-.8v-2.8c0-2.4 1.9-4.3 4.3-4.3h5.4c.5 0 .8.4.8.8 0 .5-.4.8-.8.8h-5.4c-1.4 0-2.6 1.2-2.6 2.6v2.8c0 .5-.4.9-.9.9z"></path><path fill="#ffbe55" d="M352.8 778.9h-5c-1.8 0-3.2-1.5-3.2-3.2 0-1.8 1.5-3.2 3.2-3.2h5c1.8 0 3.2 1.5 3.2 3.2.1 1.7-1.4 3.2-3.2 3.2zm-5-4.8c-.9 0-1.5.7-1.5 1.5 0 .9.7 1.5 1.5 1.5h5c.9 0 1.5-.7 1.5-1.5 0-.9-.7-1.5-1.5-1.5h-5zM353.1 703.9H327c-3.4 0-6.1-2.7-6.1-6.1v-21.1c0-3.4 2.7-6.1 6.1-6.1h26.1c3.4 0 6.1 2.7 6.1 6.1v21.1c0 3.4-2.8 6.1-6.1 6.1zm-26.2-31.6c-2.4 0-4.4 2-4.4 4.4v21.1c0 2.4 2 4.4 4.4 4.4H353c2.4 0 4.4-2 4.4-4.4v-21.1c0-2.4-2-4.4-4.4-4.4h-26.1z"></path><path fill="#ffbe55" d="M372.7 701.1c-.1 0-.2 0-.4-.1l-14.4-6.8c-.3-.1-.5-.4-.5-.8v-11.8c0-.3.2-.6.5-.7l14.4-7.6c.3-.1.6-.1.8 0 .3.2.4.4.4.7v26.2c0 .3-.1.6-.4.7-.1.1-.2.2-.4.2zm-13.5-8.2 12.7 6v-23.5l-12.7 6.7v10.8z"></path><path fill="#ffbe55" d="M370 699.8c-.5 0-.8-.4-.8-.8v-23.5c0-.5.4-.8.8-.8s.8.4.8.8V699c.1.4-.3.8-.8.8zM532.3 897.3h-50c-.5 0-.8-.4-.8-.8v-10.8c0-.5.4-.8.8-.8 1.6 0 2.9-1.3 2.9-2.9 0-1.6-1.3-2.9-2.9-2.9-.5 0-.8-.4-.8-.8v-10.8c0-.5.4-.8.8-.8h50c.5 0 .8.4.8.8v10.8c0 .5-.4.8-.8.8-1.6 0-2.9 1.3-2.9 2.9 0 1.6 1.3 2.9 2.9 2.9.5 0 .8.4.8.8v10.8c0 .5-.3.8-.8.8zm-49.1-1.7h48.3v-9.2c-2.1-.4-3.8-2.3-3.8-4.5 0-2.3 1.6-4.1 3.8-4.5v-9.2h-48.3v9.2c2.1.4 3.8 2.3 3.8 4.5 0 2.3-1.6 4.1-3.8 4.5v9.2z"></path><path fill="#ffbe55" d="M525.8 894.8c-.5 0-.8-.4-.8-.8v-24.1c0-.5.4-.8.8-.8.5 0 .8.4.8.8V894c0 .4-.3.8-.8.8zM489.2 894.8c-.5 0-.8-.4-.8-.8v-24.1c0-.5.4-.8.8-.8.5 0 .8.4.8.8V894c0 .4-.4.8-.8.8zM588 849.4h-32.5c-.5 0-.8-.4-.8-.8v-16.8h-1.5c-.8 0-1.4-.5-1.7-1.1-.3-.7-.1-1.5.4-2l19.5-19.7c.2-.2.4-.2.6-.3.2 0 .4.1.6.3l18.9 19.7c.5.5.7 1.3.4 2s-1 1.1-1.7 1.1h-1.3v16.8c-.1.4-.5.8-.9.8zm-31.7-1.7h30.8v-16.8c0-.5.4-.8.8-.8h2.1c.1 0 .1 0 .2-.1v-.2l-18.3-19-18.9 19s-.1.1 0 .2c0 .1.1.1.2.1h2.4c.5 0 .8.4.8.8v16.8z"></path><path fill="#ffbe55" d="M558.7 823.6c-.1 0-.2 0-.3-.1-.3-.1-.5-.4-.5-.8v-7c-.4-.1-.7-.4-.7-.8v-2.1c0-.5.4-.8.8-.8h6.1c.5 0 .8.4.8.8v2.1c0 .4-.3.8-.7.8v2.4c0 .2-.1.4-.2.6l-4.6 4.7c-.3.1-.5.2-.7.2zm.1-9.5c.4.1.7.4.7.8v5.8l2.9-3v-2.8c0-.4.3-.8.7-.8v-.4h-4.4v.4zM576.7 849.4h-9.9c-.5 0-.8-.4-.8-.8v-14.7c0-.5.4-.8.8-.8h9.9c.5 0 .8.4.8.8v14.7c0 .4-.4.8-.8.8zm-9.1-1.7h8.3v-13h-8.3v13zM572.8 831.5h-2.1c-1.2 0-2.2-1-2.2-2.2v-2.1c0-1.2 1-2.2 2.2-2.2h2.1c1.2 0 2.2 1 2.2 2.2v2.1c-.1 1.2-1 2.2-2.2 2.2zm-2.2-4.8c-.3 0-.5.2-.5.5v2.1c0 .3.2.5.5.5h2.1c.3 0 .5-.2.5-.5v-2.1c0-.3-.2-.5-.5-.5h-2.1zM756.5 420.5c-.2 0-.5-.1-.6-.3l-9-10c-.3-.3-.3-.9.1-1.2.3-.3.9-.3 1.2.1l7.5 8.3v-21.7c0-.5.4-.8.8-.8.5 0 .8.4.8.8v23.9c0 .3-.2.7-.5.8-.1.1-.2.1-.3.1z"></path><path fill="#ffbe55" d="M756.5 420.5c-.2 0-.4-.1-.6-.2-.4-.3-.4-.8-.1-1.2l8.5-9.8c.3-.4.8-.4 1.2-.1.4.3.4.8.1 1.2l-8.5 9.8c-.2.2-.4.3-.6.3zM560.7 909.7c-.5 0-.8-.4-.8-.8v-28.1c0-.3.2-.7.5-.8.3-.1.7 0 .9.2l10.6 11.7c.3.3.3.9-.1 1.2-.3.3-.9.3-1.2-.1l-9.1-10.1v25.9c0 .5-.3.9-.8.9z"></path><path fill="#ffbe55" d="M550.7 893.1c-.2 0-.4-.1-.6-.2-.4-.3-.4-.8-.1-1.2l10-11.5c.3-.4.8-.4 1.2-.1.4.3.4.8.1 1.2l-10 11.5c-.1.2-.3.3-.6.3zM775.1 597.5c-.2 0-.5-.1-.6-.3-.3-.3-.3-.9.1-1.2l10.2-9.3h-26.2c-.5 0-.8-.4-.8-.8s.4-.8.8-.8H787c.3 0 .7.2.8.5.1.3 0 .7-.2.9l-11.9 10.7c-.2.2-.4.3-.6.3z"></path><path fill="#ffbe55" d="M787 586.7c-.2 0-.4-.1-.6-.2l-11.6-10.1c-.4-.3-.4-.8-.1-1.2.3-.4.8-.4 1.2-.1l11.6 10.1c.4.3.4.8.1 1.2-.2.2-.4.3-.6.3zM372.3 649.3h-19.9c-3.9 0-7-3.1-7-7v-19.9c0-3.9 3.1-7 7-7h19.9c3.9 0 7 3.1 7 7v19.9c0 3.9-3.1 7-7 7zm-19.9-32.2c-2.9 0-5.3 2.4-5.3 5.3v19.9c0 2.9 2.4 5.3 5.3 5.3h19.9c2.9 0 5.3-2.4 5.3-5.3v-19.9c0-2.9-2.4-5.3-5.3-5.3h-19.9z"></path><path fill="#ffbe55" d="M376.5 623.6c-3.1 0-5.7-2.6-5.7-5.7s2.6-5.7 5.7-5.7 5.7 2.6 5.7 5.7c0 3.2-2.5 5.7-5.7 5.7zm0-9.7c-2.2 0-4 1.8-4 4s1.8 4 4 4 4-1.8 4-4-1.8-4-4-4zM706 865.4h-.2l-31.2-7c-.5-.1-.7-.6-.6-1 .1-.5.6-.7 1-.6l31.2 7c.5.1.7.6.6 1-.1.4-.4.6-.8.6z"></path><path fill="#ffbe55" d="M710.3 896.4H674c-2.3 0-4.2-1.9-4.2-4.2v-24.3c0-2.3 1.9-4.2 4.2-4.2h36.3c2.3 0 4.2 1.9 4.2 4.2v24.3c0 2.3-1.9 4.2-4.2 4.2zm-36.2-31c-1.4 0-2.5 1.1-2.5 2.5v24.3c0 1.4 1.1 2.5 2.5 2.5h36.3c1.4 0 2.5-1.1 2.5-2.5v-24.3c0-1.4-1.1-2.5-2.5-2.5h-36.3z"></path><path fill="#ffbe55" d="M706.6 874.3c-1.7 0-3.1-1.4-3.1-3.1 0-1.7 1.4-3.1 3.1-3.1 1.7 0 3.1 1.4 3.1 3.1 0 1.7-1.4 3.1-3.1 3.1zm0-4.6c-.8 0-1.4.6-1.4 1.4s.6 1.4 1.4 1.4 1.4-.6 1.4-1.4-.7-1.4-1.4-1.4zM706.6 882.4c-1.7 0-3.1-1.4-3.1-3.1 0-1.7 1.4-3.1 3.1-3.1 1.7 0 3.1 1.4 3.1 3.1 0 1.7-1.4 3.1-3.1 3.1zm0-4.5c-.8 0-1.4.6-1.4 1.4 0 .8.6 1.4 1.4 1.4s1.4-.6 1.4-1.4c0-.8-.7-1.4-1.4-1.4zM711.3 838.3h-11.8c-4.6 0-8.3-3.7-8.3-8.3 0-4.6 3.7-8.3 8.3-8.3h11.8c4.6 0 8.3 3.7 8.3 8.3 0 4.6-3.7 8.3-8.3 8.3zm-11.9-14.9c-3.7 0-6.6 3-6.6 6.6 0 3.7 3 6.6 6.6 6.6h11.8c3.7 0 6.6-3 6.6-6.6 0-3.7-3-6.6-6.6-6.6h-11.8z"></path><path fill="#ffbe55" d="M711.1 838.5c-4.7 0-8.5-3.8-8.5-8.5s3.8-8.5 8.5-8.5 8.5 3.8 8.5 8.5-3.8 8.5-8.5 8.5zm0-15.3c-3.7 0-6.8 3-6.8 6.8 0 3.7 3 6.8 6.8 6.8 3.7 0 6.8-3 6.8-6.8s-3-6.8-6.8-6.8zM711.3 817.3h-11.8c-4.6 0-8.3-3.7-8.3-8.3 0-4.6 3.7-8.3 8.3-8.3h11.8c4.6 0 8.3 3.7 8.3 8.3 0 4.6-3.7 8.3-8.3 8.3zm-11.9-15c-3.7 0-6.6 3-6.6 6.6 0 3.7 3 6.6 6.6 6.6h11.8c3.7 0 6.6-3 6.6-6.6 0-3.7-3-6.6-6.6-6.6h-11.8z"></path><path fill="#ffbe55" d="M699.6 817.4c-4.7 0-8.5-3.8-8.5-8.5s3.8-8.5 8.5-8.5 8.5 3.8 8.5 8.5-3.9 8.5-8.5 8.5zm0-15.2c-3.7 0-6.8 3-6.8 6.8 0 3.7 3 6.8 6.8 6.8 3.7 0 6.8-3 6.8-6.8-.1-3.8-3.1-6.8-6.8-6.8zM398.2 399.7h-8c-.5 0-.8-.4-.8-.8s.4-.8.8-.8h7.1v-17.9H365V398h7.3c.5 0 .8.4.8.8s-.4.8-.8.8h-8.1c-.5 0-.8-.4-.8-.8v-19.6c0-.5.4-.8.8-.8h34.1c.5 0 .8.4.8.8v19.6c0 .5-.4.9-.9.9z"></path><path fill="#ffbe55" d="M394 408.4h-25.4c-.3 0-.6-.2-.8-.5s-.1-.7.1-.9l12.6-14.4c.2-.2.4-.3.6-.3.2 0 .5.1.6.3l12.8 14.4c.2.2.3.6.1.9 0 .3-.3.5-.6.5zm-23.5-1.7h21.6l-10.9-12.3-10.7 12.3zM326.5 436.1c-.5 0-.8-.4-.8-.8v-49.8c0-.5.4-.8.8-.8.5 0 .8.4.8.8v49.8c.1.4-.3.8-.8.8zM324 421.7c-.5 0-.8-.4-.8-.8v-21c0-.5.4-.8.8-.8.5 0 .8.4.8.8v21c0 .5-.4.8-.8.8zM321.4 417.1c-.5 0-.8-.4-.8-.8v-11.7c0-.5.4-.8.8-.8s.8.4.8.8v11.7c.1.4-.3.8-.8.8zM318.9 413.3c-.5 0-.8-.4-.8-.8v-4.1c0-.5.4-.8.8-.8.5 0 .8.4.8.8v4.1c0 .4-.3.8-.8.8zM329 427.7c-.5 0-.8-.4-.8-.8V394c0-.5.4-.8.8-.8.5 0 .8.4.8.8v32.9c.1.4-.3.8-.8.8zM331.6 420.9c-.5 0-.8-.4-.8-.8v-19.3c0-.5.4-.8.8-.8s.8.4.8.8V420c0 .5-.3.9-.8.9zM334.1 414.1c-.5 0-.8-.4-.8-.8v-5.8c0-.5.4-.8.8-.8.5 0 .8.4.8.8v5.8c.1.4-.3.8-.8.8zM336.7 417.5c-.5 0-.8-.4-.8-.8v-12.5c0-.5.4-.8.8-.8.5 0 .8.4.8.8v12.5c0 .4-.4.8-.8.8zM339.2 415.8c-.5 0-.8-.4-.8-.8v-9.2c0-.5.4-.8.8-.8s.8.4.8.8v9.2c0 .4-.3.8-.8.8zM341.7 413.3c-.5 0-.8-.4-.8-.8v-4.1c0-.5.4-.8.8-.8.5 0 .8.4.8.8v4.1c.1.4-.3.8-.8.8zM437.9 705.2h-39.8c-3.1 0-5.5-2.5-5.5-5.5v-17.4c0-3.1 2.5-5.5 5.5-5.5h39.8c3.1 0 5.5 2.5 5.5 5.5v17.4c.1 3-2.4 5.5-5.5 5.5zm-39.7-26.8c-2.1 0-3.9 1.7-3.9 3.9v17.4c0 2.1 1.7 3.9 3.9 3.9H438c2.1 0 3.9-1.7 3.9-3.9v-17.4c0-2.1-1.7-3.9-3.9-3.9h-39.8z"></path><path fill="#ffbe55" d="M433.7 678.4h-31.3c-.5 0-.8-.4-.8-.8V674c0-.5.4-.8.8-.8h31.3c.5 0 .8.4.8.8v3.5c.1.5-.3.9-.8.9zm-30.4-1.7h29.6v-1.8h-29.6v1.8zM433.7 718.6h-31.3c-.5 0-.8-.4-.8-.8V691c0-.5.4-.8.8-.8h31.3c.5 0 .8.4.8.8v26.8c.1.5-.3.8-.8.8zm-30.4-1.7h29.6v-25.1h-29.6v25.1zM722.2 699.3c-.3 0-.5-.1-.8-.2-.5-.3-.7-.8-.7-1.3v-18c0-.5.3-1 .7-1.3.5-.3 1-.3 1.5 0l16.3 9c.5.3.8.8.8 1.3 0 .6-.3 1.1-.8 1.3l-16.3 9c-.2.2-.4.2-.7.2zm.2-19.2v17.4l15.8-8.7-15.8-8.7z"></path><path fill="#ffbe55" d="M740.1 709.4h-22.2c-5.3 0-9.5-4.3-9.5-9.5v-22.2c0-5.3 4.3-9.5 9.5-9.5h22.2c5.3 0 9.5 4.3 9.5 9.5v22.2c.1 5.3-4.2 9.5-9.5 9.5zm-22.2-39.5c-4.3 0-7.8 3.5-7.8 7.8v22.2c0 4.3 3.5 7.8 7.8 7.8h22.2c4.3 0 7.8-3.5 7.8-7.8v-22.2c0-4.3-3.5-7.8-7.8-7.8h-22.2zM782 537.3h-24c-4.5 0-8.2-3.7-8.2-8.2 0-4 2.9-7.3 6.7-8.1-.1-.5-.1-1-.1-1.4 0-7.4 6.1-13.5 13.5-13.5 5.3 0 10.1 3.1 12.3 7.9 6.4.1 11.5 5.3 11.5 11.6-.1 6.5-5.3 11.7-11.7 11.7zm-12.1-29.5c-6.5 0-11.8 5.3-11.8 11.8 0 .6.1 1.3.2 2 0 .2 0 .5-.2.7-.1.2-.4.3-.6.3-3.4.3-6 3.1-6 6.5 0 3.6 2.9 6.5 6.5 6.5h24c5.5 0 10-4.5 10-10s-4.5-10-10-10h-.4c-.3 0-.7-.2-.8-.5-1.8-4.4-6.1-7.3-10.9-7.3z"></path><path fill="#ffbe55" d="M780.9 540.2c-.4-.4-.9-.4-1.3 0l-7.1 7.1v-21.4c0-.5-.4-.9-.9-.9s-.9.4-.9.9v21.4l-7.1-7.1c-.4-.4-.9-.4-1.3 0s-.4.9 0 1.3l8.7 8.7c.1.1.2.2.3.2.1 0 .2.1.4.1.1 0 .2 0 .4-.1.1 0 .2-.1.3-.2l8.7-8.7c.1-.3.1-.9-.2-1.3zM330.2 564.2h-24c-4.5 0-8.2-3.7-8.2-8.2 0-4 2.9-7.3 6.7-8.1-.1-.5-.1-1-.1-1.4 0-7.4 6.1-13.5 13.5-13.5 5.3 0 10.1 3.1 12.3 7.9 6.4.1 11.5 5.3 11.5 11.6 0 6.4-5.3 11.7-11.7 11.7zm-12.1-29.6c-6.5 0-11.8 5.3-11.8 11.8 0 .6.1 1.3.2 2 0 .2 0 .5-.2.7-.1.2-.4.3-.6.3-3.4.3-6 3.1-6 6.5 0 3.6 2.9 6.5 6.5 6.5h24c5.5 0 10-4.5 10-10s-4.5-10-10-10h-.4c-.3 0-.7-.2-.8-.5-1.8-4.4-6.1-7.3-10.9-7.3z"></path><path fill="#ffbe55" d="M310.4 559.6c.4.4.9.4 1.3 0l7.1-7.1v21.4c0 .5.4.9.9.9s.9-.4.9-.9v-21.4l7.1 7.1c.4.4.9.4 1.3 0s.4-.9 0-1.3l-8.7-8.7c-.1-.1-.2-.2-.3-.2-.1 0-.2-.1-.4-.1-.1 0-.2 0-.4.1-.1 0-.2.1-.3.2l-8.7 8.7c-.1.4-.1.9.2 1.3zM770 833.2V867h-26.3v-33.8H770m1.7-1.7H742v37.2h29.7v-37.2z"></path><path fill="#ffbe55" d="M764.6 838.6v33.8h-26.3v-33.8h26.3m1.7-1.7h-29.7v37.2h29.7v-37.2zM323.7 642.2l-18-2.9-18 2.9v-43.5h36v43.5zm-18.1-4.6 16.3 2.6v-39.8h-32.7v39.8l16.4-2.6z"></path><path fill="#ffbe55" d="M312.1 629.8c-.2 0-.3-.1-.5-.2l-6-4.3-6 4.3c-.3.2-.7.2-1 0-.3-.2-.4-.6-.3-.9l2.3-7-6-4.3c-.3-.2-.4-.6-.3-.9.1-.3.4-.6.8-.6h7.4l2.3-7c.1-.3.4-.6.8-.6s.7.2.8.6l2.3 7h7.4c.4 0 .7.2.8.6.1.3 0 .7-.3.9l-6 4.3 2.3 7c.1.3 0 .7-.3.9-.1.2-.3.2-.5.2zm-6.5-6.3c.2 0 .3.1.5.2l4.4 3.2-1.7-5.1c-.1-.3 0-.7.3-.9l4.4-3.2h-5.4c-.4 0-.7-.2-.8-.6l-1.7-5.1-1.6 5c-.1.3-.4.6-.8.6h-5.4l4.4 3.2c.3.2.4.6.3.9l-1.7 5.1 4.4-3.2c.1-.1.3-.1.4-.1zM329.9 500.9h-28.4v-27.1H318v1.7h-14.9v23.7h25.2v-10h1.6z"></path><path fill="#ffbe55" d="M317.6 489.8c-.4 0-.8-.3-.8-.7 0-.1-.6-3.7 2-6.8 2.4-2.8 6.5-4.2 12.3-4.2.5 0 .8.4.8.8s-.4.8-.8.8c-5.3 0-9 1.2-11 3.6-2.1 2.5-1.7 5.4-1.7 5.4.1.5-.2.9-.7 1 0 .1-.1.1-.1.1z"></path><path fill="#ffbe55" d="M327.3 484.8c-.2 0-.5-.1-.6-.3-.3-.4-.3-.9.1-1.2l5.2-4.4-5.3-5c-.3-.3-.4-.9 0-1.2.3-.3.9-.4 1.2 0l6 5.7c.2.2.3.4.3.6 0 .2-.1.5-.3.6l-6 5c-.2.2-.4.2-.6.2zM293.8 787.9c-1.7 0-3.1-1.4-3.1-3.1 0-1.7 1.4-3.1 3.1-3.1 1.7 0 3.1 1.4 3.1 3.1 0 1.7-1.4 3.1-3.1 3.1zm0-4.5c-.8 0-1.4.6-1.4 1.4s.6 1.4 1.4 1.4c.8 0 1.4-.6 1.4-1.4s-.6-1.4-1.4-1.4zM301.4 787.9c-1.7 0-3.1-1.4-3.1-3.1 0-1.7 1.4-3.1 3.1-3.1 1.7 0 3.1 1.4 3.1 3.1 0 1.7-1.4 3.1-3.1 3.1zm0-4.5c-.8 0-1.4.6-1.4 1.4s.6 1.4 1.4 1.4c.8 0 1.4-.6 1.4-1.4s-.6-1.4-1.4-1.4zM309 787.9c-1.7 0-3.1-1.4-3.1-3.1 0-1.7 1.4-3.1 3.1-3.1 1.7 0 3.1 1.4 3.1 3.1 0 1.7-1.4 3.1-3.1 3.1zm0-4.5c-.8 0-1.4.6-1.4 1.4s.6 1.4 1.4 1.4c.8 0 1.4-.6 1.4-1.4s-.6-1.4-1.4-1.4zM634.8 382.7c-.1 0-.1 0 0 0-.5 0-.8-.3-.8-.7l-2.9-14.3-14.3-4c-.4-.1-.6-.4-.6-.8s.2-.7.6-.8l30.1-10.3c.3-.1.7 0 .9.2.2.2.3.6.2.9l-12.3 29.2c-.3.4-.6.6-.9.6zm-15-19.8 12.1 3.4c.3.1.5.3.6.6L635 379l10.5-24.9-25.7 8.8z"></path><path fill="#ffbe55" d="M631.7 367.9c-.2 0-.4-.1-.6-.3-.3-.3-.3-.9 0-1.2l15.3-14.4c.3-.3.9-.3 1.2 0 .3.3.3.9 0 1.2l-15.3 14.4c-.1.2-.3.3-.6.3zM433 381.7c-6.6 0-12.6-4.2-14.9-10.4-.2-.4.1-.9.5-1.1.4-.2.9.1 1.1.5 2 5.6 7.4 9.3 13.3 9.3 7.8 0 14.2-6.4 14.2-14.2 0-.4 0-.9-.1-1.3 0-.5.3-.9.8-.9s.9.3.9.8.1 1 .1 1.5c-.1 8.7-7.2 15.8-15.9 15.8z"></path><path fill="#ffbe55" d="M452.9 367.5c-.2 0-.4-.1-.5-.2l-4.4-3.7-4.2 3.7c-.3.3-.9.3-1.2-.1-.3-.4-.3-.9.1-1.2l4.7-4.2c.3-.3.8-.3 1.1 0l4.9 4.2c.4.3.4.8.1 1.2-.1.2-.4.3-.6.3zM418 366.7c-.5 0-.8-.4-.8-.8 0-8.7 7.1-15.9 15.9-15.9 6.1 0 11.6 3.4 14.2 8.9.2.4 0 .9-.4 1.1-.4.2-.9 0-1.1-.4-2.4-4.9-7.3-7.9-12.7-7.9-7.8 0-14.2 6.4-14.2 14.2-.1.4-.5.8-.9.8z"></path><path fill="#ffbe55" d="M418.1 368.2c-.2 0-.4-.1-.5-.2l-4.9-4.2c-.4-.3-.4-.8-.1-1.2.3-.4.8-.4 1.2-.1l4.4 3.7 4.2-3.7c.4-.3.9-.3 1.2.1.3.4.3.9-.1 1.2l-4.7 4.2c-.3.1-.5.2-.7.2zM715.7 387.9c-4.3 0-7.9-3.5-7.9-7.9 0-4.3 3.5-7.9 7.9-7.9 4.3 0 7.9 3.5 7.9 7.9-.1 4.4-3.6 7.9-7.9 7.9zm0-14c-3.4 0-6.2 2.8-6.2 6.2 0 3.4 2.8 6.2 6.2 6.2 3.4 0 6.2-2.8 6.2-6.2-.1-3.4-2.8-6.2-6.2-6.2z"></path><path fill="#ffbe55" d="M715.7 407.8c-.8 0-1.5-.5-1.7-1.3-.7-2.4-1.9-5.8-4.3-8.6-2.8-3.3-5.1-6.8-6.5-9.1-.5-.8-1-1.6-1.5-2.5-.9-2-1.3-4.1-1.3-6.2 0-8.4 6.9-15.3 15.3-15.3s15.3 6.9 15.3 15.3c0 2.1-.4 4.2-1.3 6.2l-.8-.4.7.4c-.4.9-.9 1.7-1.5 2.6-1.4 2.3-3.6 5.7-6.4 9-2.4 2.8-3.7 6.2-4.3 8.6-.3.8-.9 1.3-1.7 1.3zm-12.4-22.2c.4.8.8 1.6 1.3 2.3 1.4 2.3 3.6 5.7 6.4 8.9 2.6 3 4 6.7 4.7 9.3l.9.2-.8-.2c.7-2.5 2.1-6.2 4.7-9.3 2.8-3.3 5-6.6 6.3-8.9.6-.8 1-1.6 1.4-2.4l.8.3-.8-.3c.8-1.8 1.2-3.6 1.2-5.5 0-7.5-6.1-13.6-13.6-13.6s-13.6 6.1-13.6 13.6c-.1 2 .3 3.8 1.1 5.6zM504.1 364.4c-15 0-21-12.2-21.1-12.3l-.2-.4.2-.4c.1-.1 5.8-12.3 20.8-12.3s21 12.2 21.1 12.3l.2.4-.2.4c-.1.1-5.8 12.3-20.8 12.3zm-19.4-12.7c1.1 2 6.7 11 19.4 11 12.5 0 18.1-9.1 19.1-11-1.1-2-6.7-11-19.4-11-12.5 0-18 9.1-19.1 11z"></path><path fill="#ffbe55" d="M504 356.5c-2.6 0-4.8-2.2-4.8-4.8 0-2.6 2.2-4.8 4.8-4.8 2.6 0 4.8 2.2 4.8 4.8 0 2.7-2.2 4.8-4.8 4.8zm0-7.9c-1.7 0-3.1 1.4-3.1 3.1 0 1.7 1.4 3.1 3.1 3.1s3.1-1.4 3.1-3.1c0-1.7-1.4-3.1-3.1-3.1z"></path><path fill="#ffbe55" d="M504 359.9c-4.5 0-8.2-3.7-8.2-8.2 0-4.5 3.7-8.2 8.2-8.2 4.5 0 8.2 3.7 8.2 8.2-.1 4.5-3.7 8.2-8.2 8.2zm0-14.7c-3.6 0-6.5 2.9-6.5 6.5s2.9 6.5 6.5 6.5 6.5-2.9 6.5-6.5-3-6.5-6.5-6.5zM311.6 746.2c-2.5 0-5.3-.3-8.5-1.3-10-3.1-16-.1-16.1-.1-.3.1-.6.1-.8 0-.3-.2-.4-.4-.4-.7v-21.6c0-.3.2-.6.5-.7.3-.1 6.6-3.3 17.3-.1 10 3.1 16.8-.6 16.9-.6.3-.1.6-.1.8 0 .3.2.4.4.4.7v21.6c0 .3-.2.6-.4.7-.2.2-3.8 2.1-9.7 2.1zm-17.3-4.4c2.6 0 5.7.4 9.3 1.5 8.6 2.6 14.8.3 16.5-.4v-19.7c-2.5 1-8.7 2.7-17 .2-8.5-2.6-14-.9-15.6-.3v19.7c1.3-.4 3.6-1 6.8-1z"></path><path fill="#ffbe55" d="M286.6 763.8c-.5 0-.8-.4-.8-.8v-25.2c0-.5.4-.8.8-.8s.8.4.8.8V763c.1.4-.3.8-.8.8zM775.4 675.9c-7.3 0-13.3-5.9-13.3-13.3 0-7.3 5.9-13.3 13.3-13.3 7.3 0 13.3 5.9 13.3 13.3-.1 7.3-6 13.3-13.3 13.3zm0-24.8c-6.4 0-11.6 5.2-11.6 11.6 0 6.4 5.2 11.6 11.6 11.6 6.4 0 11.6-5.2 11.6-11.6-.1-6.4-5.3-11.6-11.6-11.6z"></path><path fill="#ffbe55" d="M794.4 682.9c-.3 0-.6-.1-.9-.4l-10.3-10.3c-.5-.5-.5-1.3 0-1.8s1.3-.5 1.8 0l10.3 10.3c.5.5.5 1.3 0 1.8-.2.3-.6.4-.9.4zM413.3 891.8H366c-.5 0-.8-.4-.8-.8v-20.6c0-.5.4-.8.8-.8h15.9c.5 0 .8.4.8.8 0 3.8 3.1 6.8 6.8 6.8 3.8 0 6.8-3.1 6.8-6.8 0-.5.4-.8.8-.8H413c.5 0 .8.4.8.8V891c.3.5-.1.8-.5.8zm-46.5-1.6h45.6v-18.9h-14.3c-.4 4.3-4.1 7.7-8.5 7.7s-8.1-3.4-8.5-7.7h-14.3v18.9z"></path><path fill="#ffbe55" d="M413.3 871.2c-.2 0-.5-.1-.6-.3l-9.6-11.2h-25.9L366.6 871c-.3.3-.9.4-1.2 0-.3-.3-.4-.9 0-1.2l10.7-11.5c.2-.2.4-.3.6-.3h26.7c.2 0 .5.1.6.3l9.9 11.5c.3.4.3.9-.1 1.2-.1.2-.3.2-.5.2zM314.8 868.5c-5.7 0-10.3-4.6-10.3-10.3s4.6-10.3 10.3-10.3c5.7 0 10.3 4.6 10.3 10.3s-4.6 10.3-10.3 10.3zm0-18.9c-4.7 0-8.6 3.9-8.6 8.6s3.9 8.6 8.6 8.6c4.7 0 8.6-3.9 8.6-8.6s-3.9-8.6-8.6-8.6zM339.8 868.5c-5.7 0-10.3-4.6-10.3-10.3s4.6-10.3 10.3-10.3c5.7 0 10.3 4.6 10.3 10.3s-4.7 10.3-10.3 10.3zm0-18.9c-4.7 0-8.6 3.9-8.6 8.6s3.9 8.6 8.6 8.6c4.7 0 8.6-3.9 8.6-8.6s-3.9-8.6-8.6-8.6z"></path><path fill="#ffbe55" d="M324.1 857.4c-.2 0-.4-.1-.6-.3-.3-.3-.3-.9 0-1.2 1.3-1.2 4.6-2.8 7.4 0 .3.3.3.9 0 1.2-.3.3-.9.3-1.2 0-2.5-2.4-5-.1-5.1 0-.1.2-.3.3-.5.3zM305.5 859.5h-2.1c-.7 0-1.3-.6-1.3-1.3 0-.7.6-1.3 1.3-1.3h2.1v2.6zM349.2 857h2.1c.7 0 1.3.6 1.3 1.3 0 .7-.6 1.3-1.3 1.3h-2.1V857z"></path></g><path fill="#d3d3d3" d="M1004.2 727.1H124.6c-3.9 0-7.1-3.2-7.1-7.1v-8.2c0-3.9 3.2-7.1 7.1-7.1h879.7c3.9 0 7.1 3.2 7.1 7.1v8.2c0 3.9-3.2 7.1-7.2 7.1z"></path><path fill="#2a94f4" d="M899.6 625.8s-36 47 0 63.4 44.9-22.7 44.3-39.7 68-48.6 26.2-97c-41.8-48.3-100.7 46.6-70.5 73.3z" opacity=".4"></path><path fill="#2a94f4" d="M846.2 644.6s-8 34.1 15.3 34.2c23.4.1 18.7-23.1 14.3-32.1s24.9-42.6-9.3-58.6-43 49.4-20.3 56.5z" opacity=".4"></path><path fill="none" stroke="#4d4d4d" stroke-miterlimit="10" d="m856.5 613 10.3 93.7M869.2 634.2l-8.9 13.6-11.9-10.1M940.5 577.9l-51.3 133.2M950.4 601.5l-22.3 8.6-9.3-19.7M939.2 629.4l-22.3 8.6-9.2-19.7"></path><path fill="#2a94f4" d="M179.1 625.8s36 47 0 63.4-44.9-22.7-44.3-39.7-68-48.6-26.2-97c41.8-48.3 100.8 46.6 70.5 73.3z" opacity=".4"></path><path fill="#2a94f4" d="M232.5 644.6s8 34.1-15.3 34.2c-23.4.1-18.7-23.1-14.3-32.1 4.5-9-24.9-42.6 9.3-58.6s43 49.4 20.3 56.5z" opacity=".4"></path><path fill="none" stroke="#4d4d4d" stroke-miterlimit="10" d="m222.2 613-10.3 93.7M209.5 634.2l8.9 13.6 11.9-10.1M138.2 577.9l51.3 133.2M128.3 601.5l22.3 8.6 9.3-19.7M139.5 629.4l22.3 8.6 9.3-19.7"></path></svg>