<svg xmlns="http://www.w3.org/2000/svg" enable-background="new 0 0 1080 1080" viewBox="0 0 1080 1080"><path fill="#f0faff" d="M905.708 971.292c34.571-18.725 69.27-38.756 95.959-67.627s44.627-68.254 39.119-107.182c-5.065-35.796-28.824-66.664-35.131-102.263-10.824-61.091 31.002-118.446 40.763-179.715 7.34-46.074-4.517-94.905-32.17-132.482-25.208-34.254-62.314-58.829-85.068-94.761-30.663-48.42-32.247-112.728-69.693-156.117-27.122-31.428-68.313-46.197-107.68-59.37-69.769-23.345-140.973-45.862-214.495-48.531S386.545 40.066 333.458 91.003c-16.5 15.832-30.564 34.77-37.679 56.503-16.823 51.388 7.262 105.913 22.362 157.833 2.954 10.157 5.586 20.875 3.355 31.214-2.198 10.185-8.866 18.788-15.894 26.48-32.745 35.842-76.326 59.506-118.38 83.761s-84.55 50.781-112.895 90.194c-28.346 39.413-39.47 94.988-14.834 136.821 9.558 16.23 24.138 30.204 28.01 48.636 6.845 32.583-21.554 60.439-38.255 89.241-27.729 47.821-22.611 112.569 12.287 155.44s97.261 61.02 149.714 43.571l694.459-39.405z"/><path fill="#2a94f4" d="M146.416 965.165c5.231-94.159-64.516-221.172-136.008-227.413-26.155 54.788 18.967 199.74 85.561 226.265 66.595 26.526 50.447 1.148 50.447 1.148z"/><path fill="#cce9ff" d="M105.125 943.229c-.34-7.072-1.7-14.548-3.338-21.91-1.66-7.386-3.663-14.758-5.829-22.092-4.341-14.673-9.365-29.206-14.793-43.589-5.442-14.38-11.306-28.618-17.725-42.607-3.227-6.985-6.595-13.909-10.246-20.683-1.855-3.368-3.73-6.732-5.807-9.969-2.063-3.239-4.218-6.458-6.944-9.197 2.887 2.577 5.247 5.686 7.508 8.814 2.279 3.13 4.359 6.394 6.422 9.668 4.066 6.584 7.855 13.333 11.507 20.154 7.269 13.66 13.999 27.605 20.323 41.743 6.312 14.145 12.234 28.479 17.521 43.118 2.64 7.322 5.127 14.718 7.3 22.274 2.144 7.579 4.072 15.238 4.974 23.554l-10.873.722z"/><path fill="#0e538c" d="M180.527 946.107s-1.351 3.727-7.182 4.893c-1.177.24-2.539.371-4.109.338-6.452-.098-16.445-2.855-31.779-11.879-37.479-22.079-38.187-111.912-17.426-142.34 42.296 10.364 72.353 93.004 60.496 148.988z"/><path fill="#0e538c" d="M173.345 951c-1.177.24-2.539.371-4.109.338-.022-.251-.054-.49-.076-.741-1.373-12.555-3.433-25.076-5.939-37.5-2.496-12.435-5.46-24.782-8.991-36.966-1.776-6.092-3.705-12.151-5.929-18.091-.578-1.471-1.123-2.964-1.744-4.425l-.915-2.201-.981-2.158c-1.362-2.855-2.779-5.721-4.686-8.272 1.994 2.485 3.52 5.296 4.991 8.119l1.068 2.136.992 2.169c.676 1.449 1.275 2.921 1.907 4.381 2.441 5.885 4.599 11.89 6.593 17.927 3.978 12.108 7.4 24.39 10.364 36.792 2.964 12.402 5.471 24.913 7.324 37.577l.131.915z"/><path fill="#51aef4" d="M352.517 946.753s-1.185 3.267-6.295 4.289c-1.032.21-2.226.325-3.601.296-5.655-.086-14.414-2.503-27.853-10.412-32.849-19.352-33.47-98.089-15.274-124.758 37.071 9.084 63.415 81.517 53.023 130.585z"/><path fill="#51aef4" d="M346.222 951.042c-1.032.21-2.226.325-3.601.296-.019-.22-.048-.43-.067-.65-1.203-11.004-3.009-21.979-5.206-32.868-2.187-10.899-4.786-21.721-7.88-32.4-1.557-5.339-3.248-10.65-5.196-15.856-.506-1.29-.984-2.598-1.528-3.878l-.802-1.93-.86-1.891c-1.194-2.503-2.436-5.015-4.107-7.25 1.748 2.178 3.085 4.642 4.375 7.116l.936 1.872.869 1.901c.592 1.27 1.118 2.56 1.672 3.84 2.14 5.158 4.031 10.421 5.779 15.713 3.486 10.612 6.486 21.377 9.084 32.247 2.598 10.87 4.795 21.836 6.419 32.935l.113.803z" opacity=".5"/><path fill="#0e538c" d="M931.58 965.165c-5.231-94.159 64.516-221.172 136.008-227.413 26.155 54.788-18.967 199.74-85.561 226.265-66.595 26.526-50.447 1.148-50.447 1.148z"/><path fill="#0e538c" d="M972.871 943.229c.34-7.072 1.7-14.548 3.338-21.91 1.66-7.386 3.663-14.758 5.829-22.092 4.341-14.673 9.365-29.206 14.793-43.589 5.442-14.38 11.306-28.618 17.725-42.607 3.227-6.985 6.595-13.909 10.246-20.683 1.855-3.368 3.73-6.732 5.807-9.969 2.063-3.239 4.218-6.458 6.944-9.197-2.887 2.577-5.247 5.686-7.508 8.814-2.279 3.13-4.359 6.394-6.422 9.668-4.066 6.584-7.855 13.333-11.507 20.154-7.269 13.66-13.999 27.605-20.323 41.743-6.312 14.145-12.234 28.479-17.521 43.118-2.64 7.322-5.127 14.718-7.3 22.274-2.144 7.579-4.072 15.238-4.974 23.554l10.873.722zM792.851 968.679c3.552-63.936-43.808-150.181-92.352-154.418-17.76 37.202 12.879 135.628 58.098 153.639 45.219 18.011 34.254.779 34.254.779z"/><path fill="#0e538c" d="M764.814 953.783c-.231-4.802-1.154-9.879-2.266-14.878-1.127-5.015-2.487-10.021-3.958-15.001-2.948-9.963-6.359-19.832-10.045-29.598-3.695-9.764-7.677-19.432-12.036-28.931-2.191-4.743-4.478-9.444-6.957-14.044-1.26-2.287-2.533-4.571-3.943-6.769-1.401-2.2-2.864-4.385-4.715-6.245 1.96 1.75 3.563 3.861 5.098 5.985 1.547 2.125 2.96 4.341 4.36 6.565 2.761 4.471 5.334 9.054 7.814 13.685 4.936 9.276 9.506 18.745 13.8 28.345 4.286 9.605 8.307 19.337 11.897 29.278 1.792 4.972 3.481 9.994 4.957 15.125 1.456 5.146 2.765 10.347 3.378 15.994l-7.384.489z"/><path fill="#51aef4" d="M772.578 947.559c1.598-30.774 28.707-69.597 52.152-69.12 6.579 18.716-13.158 64.229-35.722 70.514-22.565 6.285-16.43-1.394-16.43-1.394z"/><path fill="#2797e2" d="M786.761 941.878c.358-2.286 1.062-4.667 1.852-7.001.798-2.342 1.707-4.666 2.667-6.973 1.924-4.615 4.065-9.161 6.333-13.643 2.272-4.481 4.676-8.902 7.251-13.222 1.293-2.156 2.63-4.288 4.053-6.361.721-1.029 1.448-2.057 2.236-3.035.784-.98 1.596-1.95 2.578-2.745-1.028.736-1.904 1.664-2.748 2.601-.85.937-1.64 1.924-2.425 2.916a123.369 123.369 0 0 0-4.444 6.145 221.74 221.74 0 0 0-8.065 12.85c-2.546 4.375-4.972 8.824-7.203 13.395-1.114 2.286-2.181 4.602-3.152 6.981-.962 2.387-1.857 4.808-2.441 7.478l3.508.614z"/><path fill="#0e538c" d="M328.464 947.559c1.598-30.774 28.707-69.597 52.152-69.12 6.579 18.716-13.158 64.229-35.722 70.514-22.565 6.285-16.43-1.394-16.43-1.394z"/><path fill="#0e538c" d="M342.647 941.878c.358-2.286 1.062-4.667 1.852-7.001.798-2.342 1.707-4.666 2.667-6.973 1.924-4.615 4.065-9.161 6.333-13.643 2.272-4.481 4.676-8.902 7.251-13.222 1.293-2.156 2.63-4.288 4.053-6.361.721-1.029 1.448-2.057 2.236-3.035.784-.98 1.596-1.95 2.578-2.745-1.028.736-1.904 1.664-2.748 2.601-.85.937-1.64 1.924-2.425 2.916A123.369 123.369 0 0 0 360 900.56a221.74 221.74 0 0 0-8.065 12.85c-2.546 4.375-4.972 8.824-7.203 13.395-1.114 2.286-2.181 4.602-3.152 6.981-.962 2.387-1.857 4.808-2.441 7.478l3.508.614z"/><path fill="#2a94f4" d="M897.469 946.107s1.351 3.727 7.182 4.893c1.177.24 2.539.371 4.109.338 6.452-.098 16.445-2.855 31.779-11.879 37.479-22.079 38.187-111.912 17.426-142.34-42.296 10.364-72.353 93.004-60.496 148.988z"/><path fill="#2a94f4" d="M904.651 951c1.177.24 2.539.371 4.109.338.022-.251.054-.49.076-.741 1.373-12.555 3.433-25.076 5.939-37.5 2.496-12.435 5.46-24.782 8.991-36.966 1.776-6.092 3.705-12.151 5.929-18.091.578-1.471 1.122-2.964 1.744-4.425l.915-2.201.981-2.158c1.362-2.855 2.779-5.721 4.686-8.272-1.994 2.485-3.52 5.296-4.991 8.119l-1.068 2.136-.992 2.169c-.676 1.449-1.275 2.921-1.907 4.381-2.441 5.885-4.599 11.89-6.593 17.927-3.978 12.108-7.4 24.39-10.364 36.792-2.964 12.402-5.471 24.913-7.324 37.577l-.131.915z"/><path fill="#f2f2f2" d="M1066.523 1056.995H13.477c-7.412 0-13.477-6.065-13.477-13.477v-94.014c0-7.412 6.065-13.477 13.477-13.477h1053.045c7.412 0 13.477 6.065 13.477 13.477v94.014c.001 7.412-6.064 13.477-13.476 13.477z"/><ellipse cx="562.328" cy="988.34" fill="#f2f2f2" rx="334.287" ry="14.171"/><path fill="#df9481" d="m447.123 281.759 133.21-86.458 14.203-41.03-.878 45.768-112.708 98.082z"/><path fill="#ffbe55" d="m396.422 312.175 84.341-52.268 17.061 62.559-95.258 62.559z"/><path fill="#ffbe55" d="m396.422 312.175 84.341-52.268 17.061 62.559-95.258 62.559z" opacity=".2"/><path fill="#ffbe55" d="m224.675 702.298-35.417 70.717-5.01-69.63 16.712-7.774-18.313-2.761.062-9.931 41.799-.928z"/><path fill="#093c59" d="M359.575 481.863s40.512 153.518 28.785 173.773c-11.727 20.256-165.924 53.598-165.924 53.598l-.387-30.144s107.769-49.934 120.563-46.736c-25.586-23.454-50.907-143.029-50.907-143.029l67.87-7.462z"/><path fill="#ffbe55" d="m199.591 827.411 30.352 73.035-55.961-41.734 5.045-17.728-14.063 12.051-7.474-6.54 26.628-32.234z"/><path fill="#0b4870" d="M351.938 483.238s-89.944 213.38-143.773 357.746c-33.052 0-28.98-32.128-28.98-32.128s65.249-302.688 102.404-347.316c57.147 3.888 70.349 21.698 70.349 21.698z"/><path fill="#df9481" d="M291.704 385.025 182.962 485.578l-58.695 10.571 58.235 3.849 115.713-77.966z"/><ellipse cx="389.632" cy="239.703" fill="#0b4870" rx="44.868" ry="47.378"/><path fill="#df9481" d="M432.013 208.021s12.031 75.07-1.926 90.099c-42.34-2.887-52.924-18.89-63.509-41.023-10.586-22.132 13.471-67.359 65.435-49.076z"/><path fill="#0b4870" d="M442.61 207.957c-2.157 16.45-65.946 58.426-79.931 51.1-1.998-29.968 14.723-84.485 79.931-51.1z"/><path fill="#df9481" d="M373.038 260.677c-5.329-5.439-10.473-6.071-11.324.901-.77 6.306 7.495 15.569 13.489 14.107 5.994-1.461-2.165-15.008-2.165-15.008z"/><path fill="#0b4870" d="M375.243 199.909c-14.485-19.935-39.886-31.379-64.415-29.021-8.311.799-16.715 3.196-23.183 8.477-6.467 5.281-10.656 13.825-9.186 22.044 2.418 13.52 18.677 22.928 17.141 36.577-.674 5.982-4.906 11.097-9.989 14.323s-10.986 4.861-16.792 6.453c-13.044 3.577-26.495 7.354-37.029 15.837s-17.44 23.018-12.939 35.773c2.925 8.29 10.349 15.8 8.556 24.406-1.848 8.87-12.377 12.939-16.92 20.778-4.451 7.678-2.126 17.996 3.78 24.62 5.906 6.624 14.659 10.058 23.385 11.677 14.068 2.611 31.074-.361 38.041-12.859 4.852-8.705 3.409-19.624-.108-28.949-3.517-9.325-8.922-17.888-11.959-27.38-3.036-9.492-3.31-20.72 2.814-28.582 6.427-8.251 17.729-10.459 27.938-12.73s21.52-6.183 25.768-15.74c3.84-8.637.771-19.85 6.727-27.189 5.357-6.603 15.161-6.676 23.236-9.337 11.116-3.663 19.985-13.465 22.522-24.89l2.612-4.288z"/><path fill="#df9481" d="m402.566 285.081-2.087 25.254 17.123 41.24-40.2-40.11-2.159-38.689z"/><path fill="#ffbe55" d="m425.323 399.172-28.908 29.459-26.887 71.366-77.383-27.438-26.182-9.294 25.738-22.508s-26.611-27.729-31.802-48.032c48.506-41.096 85.743-74.092 117.499-81.257h8.467l31.74 40.1 7.718 47.604z"/><path fill="#ffbe55" d="m342.611 395.865-50.466 76.695-26.183-9.294 25.739-22.508z" opacity=".5"/><path fill="#ffbe55" d="m902.519 702.355 56.503 74.633-20.981-116.812-43.556 8.115z"/><path fill="#b1d9f2" d="M765.994 511.098c-16.666 49.605-36.665 119.962-11.07 159.937s152.348 33.701 152.348 33.701l-5.004-36.888s-87.818-17.917-84.003-29.338c3.815-11.421 25.834-93.83 22.502-104.916-3.332-11.086-7.887-44.477-7.887-44.477l-66.886 21.981z"/><path fill="#ffbe55" d="m921.702 847.781-65.741 66.64 112.587-37.546-14.289-41.939z"/><path fill="#cce9ff" d="M772.288 501.727c.889 17.674 143.241 348.573 143.241 348.573l41.749-10.01s-75.59-303.877-83.334-343.679c-7.745-39.801-101.656 5.116-101.656 5.116z"/><path fill="#ffe3ca" d="m928.862 398.317 11.849 14.811 28.569 99.614 7.729 41.989-20.483-5.938-4.152-27.031-5.32 10.664-5.842 1.08 7.238-22.926-32.841-81.608-20.746-13.893zM748.869 274.828l-137.387-79.652-16.946-40.905-.878 45.768 122.25 92.83z"/><path fill="#0b3e5b" d="m796.891 301.024-65.127-47.214-34.393 37.116 78.078 67.629z"/><path fill="#0b4870" d="M796.891 301.024c-2.611 2.326-27.725 21.448-39.291 43.269-11.566 21.822.813 175.851.813 175.851l134.528-6.77-26.853-113.787 26.808 28.949 46.619-39.171s-49.598-67.683-60.119-74.724c-19.728-13.201-82.505-13.617-82.505-13.617zM800.297 193.86c10.753.798 63.659 9.258 19.884 73.287-9.194 16.866-19.884-73.287-19.884-73.287z"/><path fill="#ffe3ca" d="M754.312 208.889s-6.707 67.338 7.987 81.646c10.535-1.253 26.863-1.592 33.853-4.199 20.969-7.82 17.815-22.376 25.991-32.301 15.599-18.936-16.853-66.018-67.831-45.146z"/><path fill="#ffe3ca" d="m793.537 275.907 2.199 26.084-4.519 14.905c-2.037 5.701 5.246 10.064 9.311 5.578l22.205-20.279-1.682-48.106-27.514 21.818z"/><path fill="#0b4870" d="M778.039 227.523c-5.09-.274-10.093.907-15.097 1.881s-10.571 1.263-14.812-1.564c-5.816-3.877-6.924-11.943-11.237-17.443-3.07-3.915-7.613-6.337-11.422-9.537-.56-.471-1.123-.983-1.405-1.658-.637-1.526.36-3.218 1.412-4.495 3.741-4.541 8.85-8.024 14.561-9.439 5.711-1.415 12.006-.669 17.026 2.4 4.577 2.798 8.162 7.452 13.364 8.764 7.85 1.98 15.223-4.401 23.186-5.866a19.563 19.563 0 0 1 8.372.291c1.734.445 3.429 1.145 4.82 2.273 3.82 3.097 4.68 8.769 8.351 12.041 3.824 3.408 9.824 3.447 13.616 6.891 2.645 2.402 3.738 6.027 4.681 9.473 1.179 4.31 2.218 9.233-.197 12.992-1.053 1.639-3.747 16.214-5.41 17.229-9.565 5.839-19.536-5.753-28.655-10.267-3.298-1.633-5.944-4.284-8.005-7.333-1.711-2.532-5.495-6.22-13.149-6.633z"/><path fill="#0b4870" d="m810.612 233.884.251 24.377 4.859-.244 7.899-24.788z"/><path fill="#ffe3ca" d="M817.287 236.935c9.543-7.255 12.593-4.678 11.785 6.192-.808 10.871-13.349 14.889-13.349 14.889l1.564-21.081z"/><ellipse cx="773.713" cy="388.527" fill="#ffbe55" rx="13.869" ry="29.846" transform="rotate(-2.883 773.118 388.246)"/><path fill="none" stroke="#ffbe55" stroke-linecap="round" stroke-miterlimit="10" stroke-width="2" d="m577.846 163.858-22.154-23.216M607.996 163.858l22.154-23.216M617.618 128.328l1.455-1.525M607.996 138.411l7.081-7.421M585.596 138.411l-7.081-7.421"/><path fill="#ffbe55" d="M559.774 107.135c-21.513 0-38.939 17.437-38.939 38.95 0-21.513-17.437-38.95-38.95-38.95 21.513 0 38.95-17.437 38.95-38.95 0 21.513 17.426 38.95 38.939 38.95zM646.215 266.157c-10.775 0-19.503 8.733-19.503 19.508 0-10.775-8.733-19.508-19.508-19.508 10.775 0 19.508-8.733 19.508-19.508.001 10.774 8.729 19.508 19.503 19.508z"/></svg>