<svg xmlns="http://www.w3.org/2000/svg" width="900" height="900" id="settings"><linearGradient id="a" x1="343.956" x2="277.333" y1="101.432" y2="202.78" gradientTransform="rotate(-78.317 263.916 204.004)" gradientUnits="userSpaceOnUse"><stop offset="0" stop-color="#fff"></stop><stop offset="1" stop-color="#efeeef"></stop></linearGradient><circle cx="222.555" cy="147.733" r="60.636" fill="url(#a)"></circle><path fill="#E2DCE3" d="M222.618 209.131c-1.448 0-2.915-.052-4.36-.156l.107-1.496c2.596.185 5.235.2 7.831.044l.09 1.497a60.702 60.702 0 0 1-3.668.111zm11.631-1.12-.286-1.473a59.794 59.794 0 0 0 7.567-1.994l.477 1.422a61.417 61.417 0 0 1-7.758 2.045zm-23.941-.126-.151-.031a62.35 62.35 0 0 1-7.768-2.135l.491-1.417a60.9 60.9 0 0 0 7.55 2.077l.171.035-.293 1.471zm39.125-4.959-.657-1.349a60.5 60.5 0 0 0 6.799-3.883l.827 1.251a61.935 61.935 0 0 1-6.969 3.981zm-54.44-.325a61.045 61.045 0 0 1-6.926-4.067l.843-1.24a59.584 59.584 0 0 0 6.756 3.966l-.673 1.341zm67.804-8.507-.982-1.134a60.184 60.184 0 0 0 5.571-5.505l1.122.996a61.829 61.829 0 0 1-5.711 5.643zm-81.062-.5a61.586 61.586 0 0 1-5.63-5.724l1.136-.98a60.08 60.08 0 0 0 5.493 5.584l-.999 1.12zm91.698-11.485-1.242-.84a59.674 59.674 0 0 0 3.951-6.765l1.343.669a61.21 61.21 0 0 1-4.052 6.936zm-102.165-.644a61.887 61.887 0 0 1-3.965-6.978l1.35-.654a60.313 60.313 0 0 0 3.869 6.808l-1.254.824zm109.318-13.694-1.418-.488a60.936 60.936 0 0 0 2.034-7.425l.026-.127 1.471.297-.028.137a62.25 62.25 0 0 1-2.085 7.606zm-116.307-.716a61.332 61.332 0 0 1-2.027-7.762l1.473-.283a59.902 59.902 0 0 0 1.978 7.572l-1.424.473zm119.516-14.978-1.496-.108a59.814 59.814 0 0 0 .05-7.83l1.497-.09a60.654 60.654 0 0 1-.051 8.028zm-122.535-.75a61.4 61.4 0 0 1-.103-3.532c0-1.49.056-3.002.166-4.496l1.496.11a60.154 60.154 0 0 0-.162 4.386c0 1.14.034 2.3.1 3.445l-1.497.087zm120.111-14.958a59.93 59.93 0 0 0-1.989-7.569l1.423-.476a61.32 61.32 0 0 1 2.039 7.759l-1.473.286zm-117.462-.761-1.479-.255.01-.048a62.4 62.4 0 0 1 2.113-7.695l1.418.49a60.783 60.783 0 0 0-2.062 7.508zm112.512-14.055a60.376 60.376 0 0 0-3.879-6.802l1.252-.826a62.113 62.113 0 0 1 3.976 6.972l-1.349.656zm-107.412-.671-1.342-.671a61.033 61.033 0 0 1 4.062-6.93l1.241.842a59.41 59.41 0 0 0-3.961 6.759zm98.804-12.374a60.323 60.323 0 0 0-5.501-5.576l.997-1.121a61.694 61.694 0 0 1 5.638 5.715l-1.134.982zm-90.029-.565-1.12-.997a61.447 61.447 0 0 1 5.719-5.634l.98 1.135a60.3 60.3 0 0 0-5.579 5.496zm78.345-9.82a59.933 59.933 0 0 0-6.763-3.957l.671-1.342a61.227 61.227 0 0 1 6.933 4.056l-.841 1.243zm-66.519-.4-.825-1.253a62.019 62.019 0 0 1 6.975-3.97l.655 1.349a60.533 60.533 0 0 0-6.805 3.874zm52.537-6.588a60.75 60.75 0 0 0-7.468-2.048l.215-1.487.086.018a62.144 62.144 0 0 1 7.656 2.1l-.489 1.417zm-38.482-.242-.475-1.423a61.326 61.326 0 0 1 7.761-2.033l.284 1.473a59.92 59.92 0 0 0-7.57 1.983zm23.17-2.9a60.042 60.042 0 0 0-7.831-.057l-.088-1.497a61.304 61.304 0 0 1 8.028.058l-.109 1.496z"></path><linearGradient id="b" x1="637.382" x2="743.697" y1="576.79" y2="683.105" gradientUnits="userSpaceOnUse"><stop offset="0" stop-color="#efeeef"></stop><stop offset="1" stop-color="#fff"></stop></linearGradient><circle cx="690.538" cy="629.946" r="75.176" fill="url(#b)"></circle><path fill="#E2DCE3" d="m690.667 705.872-.002-1.5a75.868 75.868 0 0 0 7.776-.415l.158 1.492a77.208 77.208 0 0 1-7.932.423zm-7.934-.396a76 76 0 0 1-7.852-1.22l.309-1.469a74.09 74.09 0 0 0 7.695 1.196l-.152 1.493zm23.712-1.274-.313-1.467a74.87 74.87 0 0 0 7.521-2.022l.465 1.426a76.077 76.077 0 0 1-7.673 2.063zm-39.245-1.984a76.138 76.138 0 0 1-7.424-2.836l.607-1.371a74.343 74.343 0 0 0 7.277 2.779l-.46 1.428zm54.332-2.939-.613-1.369a74.756 74.756 0 0 0 6.93-3.551l.754 1.297a76.194 76.194 0 0 1-7.071 3.623zm-68.841-3.498a75.983 75.983 0 0 1-6.67-4.322l.881-1.215a74.094 74.094 0 0 0 6.537 4.236l-.748 1.301zm82.563-4.468-.885-1.211a75.059 75.059 0 0 0 6.044-4.914l1.006 1.113a76.413 76.413 0 0 1-6.165 5.012zm-95.413-4.846a76.967 76.967 0 0 1-5.63-5.608l1.113-1.006a74.73 74.73 0 0 0 5.519 5.497l-1.002 1.117zm107.188-5.791-1.115-1.002a74.954 74.954 0 0 0 4.897-6.058l1.215.881a76.026 76.026 0 0 1-4.997 6.179zm-117.833-5.979a76.233 76.233 0 0 1-4.346-6.65l1.297-.754a75.001 75.001 0 0 0 4.26 6.52l-1.211.884zm127.156-6.866-1.299-.75a74.198 74.198 0 0 0 3.532-6.942l1.371.609a75.879 75.879 0 0 1-3.604 7.083zm-135.128-6.852a75.456 75.456 0 0 1-2.864-7.411l1.426-.467a74.04 74.04 0 0 0 2.808 7.265l-1.37.613zm141.573-7.654-1.428-.461a74.316 74.316 0 0 0 2.002-7.528l1.469.309a76.321 76.321 0 0 1-2.043 7.68zm-146.507-7.429a76.046 76.046 0 0 1-1.251-7.847l1.492-.158a74.36 74.36 0 0 0 1.226 7.69l-1.467.315zm149.773-8.102-1.492-.152c.261-2.543.393-5.132.393-7.695l1.5-.085v.085c0 2.614-.135 5.254-.401 7.847zm-149.951-7.678h-1.5v-.17c0-2.644.138-5.313.409-7.933l1.492.154a75.558 75.558 0 0 0-.401 7.778v.171zm148.442-8.031a74.712 74.712 0 0 0-1.217-7.691l1.467-.313a76.084 76.084 0 0 1 1.242 7.848l-1.492.156zm-146.832-7.609-1.467-.311a75.467 75.467 0 0 1 2.052-7.678l1.426.463a74.307 74.307 0 0 0-2.011 7.526zm143.596-7.604a74.423 74.423 0 0 0-2.8-7.269l1.369-.611a75.488 75.488 0 0 1 2.856 7.415l-1.425.465zm-138.794-7.194-1.369-.611a75.738 75.738 0 0 1 3.612-7.078l1.299.75a74.966 74.966 0 0 0-3.542 6.939zm132.449-7.005a74.968 74.968 0 0 0-4.254-6.524l1.213-.883a76.195 76.195 0 0 1 4.338 6.655l-1.297.752zm-124.66-6.464-1.213-.883a76.934 76.934 0 0 1 5.003-6.173l1.115 1.004a75.323 75.323 0 0 0-4.905 6.052zm115.496-6.107a74.928 74.928 0 0 0-5.513-5.503l1.004-1.115a76.744 76.744 0 0 1 5.622 5.614l-1.113 1.004zm-105.083-5.455-1.004-1.114a76.848 76.848 0 0 1 6.17-5.005l.883 1.213a75.443 75.443 0 0 0-6.049 4.906zm93.517-4.951a75.124 75.124 0 0 0-6.533-4.243l.75-1.299a76.29 76.29 0 0 1 6.664 4.329l-.881 1.213zm-80.942-4.204-.752-1.299a75.675 75.675 0 0 1 7.074-3.613l.611 1.369a74.135 74.135 0 0 0-6.933 3.543zm67.469-3.575a73.594 73.594 0 0 0-7.274-2.788l.463-1.428a75.383 75.383 0 0 1 7.421 2.845l-.61 1.371zm-53.267-2.764-.463-1.426a76.042 76.042 0 0 1 7.674-2.056l.313 1.467a74.658 74.658 0 0 0-7.524 2.015zm38.465-2.031a74.698 74.698 0 0 0-7.693-1.204l.154-1.492c2.627.271 5.268.685 7.85 1.229l-.311 1.467zm-23.249-1.195-.156-1.492a77.524 77.524 0 0 1 7.933-.414l.002 1.5c-2.6.001-5.217.138-7.779.406z"></path><linearGradient id="c" x1="340.712" x2="340.712" y1="454.954" y2="637.761" gradientTransform="rotate(-45.001 383.168 721.35)" gradientUnits="userSpaceOnUse"><stop offset="0" stop-color="#fff"></stop><stop offset="1" stop-color="#efeeef"></stop></linearGradient><circle cx="229.411" cy="627.634" r="91.403" fill="url(#c)"></circle><path fill="#E2DCE3" d="m229.493 719.787-.002-1.5c2.631-.003 5.29-.12 7.902-.35l.131 1.494a93.048 93.048 0 0 1-8.031.356zm-8.032-.342a92.74 92.74 0 0 1-7.971-1.036l.258-1.479a91.43 91.43 0 0 0 7.842 1.021l-.129 1.494zm24.034-1.065-.261-1.477a91.118 91.118 0 0 0 7.722-1.712l.388 1.449a92.56 92.56 0 0 1-7.849 1.74zm-39.856-1.696a92.533 92.533 0 0 1-7.67-2.403l.511-1.41a90.894 90.894 0 0 0 7.545 2.364l-.386 1.449zm55.373-2.461-.514-1.41a90.588 90.588 0 0 0 7.306-3.03l.635 1.359a92.57 92.57 0 0 1-7.427 3.081zm-70.473-3.009a91.603 91.603 0 0 1-7.132-3.706l.75-1.299a90.515 90.515 0 0 0 7.015 3.646l-.633 1.359zm85.029-3.793-.752-1.299a90.487 90.487 0 0 0 6.664-4.262l.863 1.227a92.432 92.432 0 0 1-6.775 4.334zm-98.94-4.229a92.1 92.1 0 0 1-6.374-4.892l.964-1.148a91.064 91.064 0 0 0 6.27 4.812l-.86 1.228zm112.085-5.015-.967-1.146a92.425 92.425 0 0 0 5.767-5.296l.587.474.487.573a93.746 93.746 0 0 1-5.874 5.395zm-124.382-5.299-.092-.092a93.47 93.47 0 0 1-5.425-5.913l1.148-.965a91.67 91.67 0 0 0 5.347 5.827l-.978 1.143zm135.729-6.067-1.148-.965a90.412 90.412 0 0 0 4.813-6.269l1.229.861a92.886 92.886 0 0 1-4.894 6.373zm-146.15-6.312a91.703 91.703 0 0 1-4.327-6.779l1.299-.75a90.104 90.104 0 0 0 4.256 6.668l-1.228.861zm155.361-6.837-1.299-.75a90.297 90.297 0 0 0 3.647-7.014l1.36.633a91.384 91.384 0 0 1-3.708 7.131zm-163.403-7.074a91.97 91.97 0 0 1-3.074-7.43l1.41-.512a91.019 91.019 0 0 0 3.023 7.309l-1.359.633zm170.18-7.485-1.41-.512a90.7 90.7 0 0 0 2.367-7.545l1.449.387a92.199 92.199 0 0 1-2.406 7.67zm-175.665-7.615a92.446 92.446 0 0 1-1.733-7.851l1.478-.26a91.175 91.175 0 0 0 1.705 7.724l-1.45.387zm179.799-7.907-1.478-.258a91.468 91.468 0 0 0 1.022-7.842l1.494.129a92.047 92.047 0 0 1-1.038 7.971zm-182.575-7.915a93.184 93.184 0 0 1-.349-8.031h1.5c0 2.627.115 5.285.343 7.9l-1.494.131zm182.457-8.086a91.71 91.71 0 0 0-.348-7.901l1.494-.131c.232 2.657.352 5.359.354 8.03l-1.5.002zm-180.963-7.848-1.494-.129a93.043 93.043 0 0 1 1.043-7.972l1.478.26a91.686 91.686 0 0 0-1.027 7.841zm179.584-7.894a91.343 91.343 0 0 0-1.709-7.723l1.449-.387a93.003 93.003 0 0 1 1.737 7.85l-1.477.26zm-176.853-7.668-1.449-.387a92.344 92.344 0 0 1 2.41-7.668l1.41.512a91.083 91.083 0 0 0-2.371 7.543zm172.768-7.598a90.503 90.503 0 0 0-3.028-7.307l1.359-.635a91.687 91.687 0 0 1 3.078 7.428l-1.409.514zm-167.375-7.251-1.359-.634a91.37 91.37 0 0 1 3.712-7.129l1.299.75a90.315 90.315 0 0 0-3.652 7.013zm160.689-7.068a90.23 90.23 0 0 0-4.261-6.665l1.228-.863a92.239 92.239 0 0 1 4.331 6.776l-1.298.752zm-152.786-6.607-1.228-.861a92.394 92.394 0 0 1 4.897-6.369l1.148.965a91.287 91.287 0 0 0-4.817 6.265zm143.698-6.327a92.43 92.43 0 0 0-5.313-5.787l1.023-1.099.048.049a93.61 93.61 0 0 1 5.39 5.87l-1.148.967zm-133.515-5.787-1.1-1.021.081-.078a92.465 92.465 0 0 1 5.859-5.378l.966 1.148a92.1 92.1 0 0 0-5.806 5.329zm122.334-5.381a90.788 90.788 0 0 0-6.267-4.815l.861-1.229a92.465 92.465 0 0 1 6.371 4.896l-.965 1.148zm-110.259-4.775-.862-1.227a91.522 91.522 0 0 1 6.777-4.33l.751 1.299a90.12 90.12 0 0 0-6.666 4.258zm97.327-4.29a90.674 90.674 0 0 0-7.013-3.649l.634-1.359a92.267 92.267 0 0 1 7.129 3.71l-.75 1.298zm-83.647-3.623-.634-1.359a92.178 92.178 0 0 1 7.429-3.076l.513 1.41a90.2 90.2 0 0 0-7.308 3.025zm69.328-3.046a90.596 90.596 0 0 0-7.543-2.369l.386-1.449a91.764 91.764 0 0 1 7.669 2.408l-.512 1.41zm-54.476-2.354-.387-1.449a92.558 92.558 0 0 1 7.85-1.734l.26 1.477a90.985 90.985 0 0 0-7.723 1.706zm39.209-1.716a91.353 91.353 0 0 0-7.842-1.024l.13-1.494c2.657.23 5.338.581 7.971 1.042l-.259 1.476zm-23.644-1.021-.131-1.494a92.93 92.93 0 0 1 8.032-.351v1.5c-2.623 0-5.281.117-7.901.345z"></path><linearGradient id="d" x1="284.661" x2="284.661" y1="655.384" y2="604.094" gradientUnits="userSpaceOnUse"><stop offset="0" stop-color="#92a6eb"></stop><stop offset="1" stop-color="#6a74ef"></stop></linearGradient><path fill="url(#d)" d="m252.03 655.384-51.29-51.29h116.755l51.086 51.086z"></path><linearGradient id="e" x1="342.195" x2="342.195" y1="655.384" y2="604.094" gradientUnits="userSpaceOnUse"><stop offset="0" stop-color="#2421a2"></stop><stop offset="1" stop-color="#5c60d5"></stop></linearGradient><path fill="url(#e)" d="M317.508 604.106c-3.694 10.447-1.365 22.549 6.993 30.907l20.207 20.207 23.873-.041-51.073-51.073z"></path><linearGradient id="f" x1="194.764" x2="270.044" y1="610.08" y2="685.36" gradientUnits="userSpaceOnUse"><stop offset="0" stop-color="#5c60d5"></stop><stop offset="1" stop-color="#2421a2"></stop></linearGradient><path fill="url(#f)" d="M200.745 604.099c-3.699 10.448-1.371 22.556 6.989 30.915l37.375 37.375c8.36 8.361 20.467 10.689 30.916 6.989l-75.28-75.279z"></path><path fill="#250F52" d="m385.372 665.106-18.942-11.873H254.299v4.624l7.25 7.249z"></path><linearGradient id="g" x1="218.415" x2="290.019" y1="675.581" y2="747.185" gradientUnits="userSpaceOnUse"><stop offset="0" stop-color="#5c60d5"></stop><stop offset="1" stop-color="#2421a2"></stop></linearGradient><path fill="url(#g)" d="M280.567 756.636v-81.389c0-12.157-9.857-22.014-22.016-22.014h-8.672c-12.158 0-22.015 9.856-22.015 22.014v81.389h52.703z"></path><path fill="#5C60D5" d="M366.43 653.233v11.873h18.942z"></path><path fill="#F2D265" d="M227.865 746.128h52.702v10.508h-52.702z"></path><path fill="#2421A2" d="M280.567 694.842h-52.702a1 1 0 1 1 0-2h52.702a1 1 0 1 1 0 2z"></path><path fill="#724A5F" d="M292.975 643.963h6.63v31.039h-6.63zM364.707 688.807l-1.216-1.216h-.001l-78.567-78.628h-3.7l3.7 5.703 73.299 74.163c.677 0 1.236-.009 1.722-.022h4.763z"></path><linearGradient id="h" x1="281.222" x2="361.063" y1="648.885" y2="648.885" gradientUnits="userSpaceOnUse"><stop offset="0" stop-color="#dc6734"></stop><stop offset="1" stop-color="#ae2e41"></stop></linearGradient><path fill="url(#h)" d="m331.381 659.176-50.158-50.213-.001 79.844H361.063l-29.682-29.631zm-34.839 14.312v-28.055l28.026 28.055h-28.026z"></path><path fill="#EA971D" d="M287.351 683.475h-6.129a.437.437 0 1 1 0-.875h6.129a.438.438 0 1 1 0 .875zM287.35 677.381h-6.127a.437.437 0 1 1 0-.876h6.127a.438.438 0 1 1 0 .876zM287.35 671.287h-6.127a.437.437 0 1 1 0-.876h6.127a.438.438 0 1 1 0 .876zM287.35 665.194h-6.128a.437.437 0 1 1 0-.876h6.128a.437.437 0 1 1 0 .876zM287.35 659.102h-6.127a.438.438 0 1 1 0-.876h6.127a.437.437 0 1 1 0 .876zM287.35 653.007h-6.127a.438.438 0 1 1 0-.876h6.127a.437.437 0 1 1 0 .876zM287.35 646.912h-6.127a.437.437 0 1 1 0-.874h6.127a.436.436 0 1 1 0 .874zM287.35 640.819h-6.127a.437.437 0 1 1 0-.875h6.127a.437.437 0 1 1 0 .875zM287.35 634.726h-6.127a.437.437 0 1 1 0-.875h6.127a.437.437 0 1 1 0 .875zM287.35 628.632h-6.127a.437.437 0 1 1 0-.875h6.127a.438.438 0 1 1 0 .875zM287.35 622.539h-6.127a.437.437 0 1 1 0-.875h6.127a.437.437 0 1 1 0 .875z"></path><linearGradient id="i" x1="284.044" x2="386.752" y1="659.154" y2="761.862" gradientUnits="userSpaceOnUse"><stop offset="0" stop-color="#92a6eb"></stop><stop offset="1" stop-color="#6a74ef"></stop></linearGradient><path fill="url(#i)" d="M369.963 653.233h-3.533l18.942 11.873H278.09a21.897 21.897 0 0 1 2.477 10.141v81.389h111.411v-81.389c0-12.157-9.857-22.014-22.015-22.014z"></path><path fill="#3E3EBA" d="M391.978 694.842h-111.41a1 1 0 1 1 0-2h111.41a1 1 0 1 1 0 2z"></path><path fill="#E3DDE4" d="M302.832 698.531a4.627 4.627 0 0 0 4.629 4.628 4.627 4.627 0 0 0 4.628-4.628v-2.504h-9.257v2.504zM312.089 688.905a4.628 4.628 0 1 0-9.257 0v2.752h9.257v-2.752zM374.771 689.092a4.627 4.627 0 1 0-9.256 0v2.565h9.256v-2.565zM365.515 698.719c0 2.557 2.071 4.628 4.628 4.628s4.628-2.071 4.628-4.628v-2.691h-9.256v2.691z"></path><linearGradient id="j" x1="280.567" x2="391.978" y1="751.382" y2="751.382" gradientUnits="userSpaceOnUse"><stop offset="0" stop-color="#e9aa4a"></stop><stop offset="1" stop-color="#ea971d"></stop></linearGradient><path fill="url(#j)" d="M280.567 746.128h111.41v10.508h-111.41z"></path><path fill="#F2D265" d="M383.502 630.412c-.001-.009.001-.019-.001-.027a.61.61 0 0 0-.056-.169c-.004-.01-.013-.017-.019-.026a.577.577 0 0 0-.086-.121l-.003-.004-12.269-12.879a.61.61 0 0 0-.317-.166c-.012-.003-.023-.004-.035-.008-.035-.005-.066-.021-.102-.021l-12.84-.003a.62.62 0 0 0-.657-.001l-13.163-.002c-.027 0-.053.013-.081.017-.043.007-.085.012-.124.025-.038.013-.068.032-.103.051a.568.568 0 0 0-.104.072c-.012.01-.026.014-.037.024l-12.575 12.873c-.002.003-.003.007-.007.01-.023.025-.043.057-.063.086-.013.021-.03.039-.042.062l-.003.005c-.016.031-.021.064-.03.096-.007.024-.02.044-.022.068a.577.577 0 0 0-.008.166c.002.021.01.044.013.065.009.04.016.079.031.116l.001.009c.007.018.021.029.029.046.017.031.031.064.053.094l26.057 33.921c.004.007.011.01.016.015a.656.656 0 0 0 .166.146.62.62 0 0 0 .188.067c.044.01.087.019.132.018l.007-.002a.62.62 0 0 0 .243-.058c.016-.009.03-.014.045-.022a.61.61 0 0 0 .192-.161c.002-.003.008-.004.01-.008l25.447-33.911c.025-.033.041-.069.059-.105.005-.008.012-.017.015-.025l.002-.005a.652.652 0 0 0 .04-.15c.001-.009.006-.017.007-.025a.654.654 0 0 0-.006-.153zm-2.085-.543-8.609-.002-1.369-10.474 9.978 10.476zm-11.396-11.621 1.389 10.627-12.17-10.63 10.781.003zm-12.577.094 13.192 11.525-26.668-.006 13.476-11.519zm-12.938-.1 11.117.002-12.521 10.705 1.404-10.707zm-1.418 1.159-1.372 10.459-8.844-.001 10.216-10.458zm-10.433 11.714 9.205.003 12.828 28.681-22.033-28.684zm24.777 31.741-14.195-31.738 28.113.005-13.918 31.733zm2.758-3.162 12.531-28.571 8.905.002-21.436 28.569z"></path><circle cx="434.71" cy="465.667" r="9.912" fill="#92A6EB"></circle><path fill="#E3DDE4" d="M434.709 509.234c-24.022 0-43.565-19.545-43.565-43.568 0-24.022 19.543-43.565 43.565-43.565 24.023 0 43.567 19.543 43.567 43.565 0 24.023-19.544 43.568-43.567 43.568zm0-85.133c-22.919 0-41.565 18.646-41.565 41.565 0 22.921 18.646 41.568 41.565 41.568 22.92 0 41.567-18.647 41.567-41.568 0-22.919-18.647-41.565-41.567-41.565z"></path><linearGradient id="k" x1="362.42" x2="507" y1="393.378" y2="537.957" gradientUnits="userSpaceOnUse"><stop offset="0" stop-color="#e3dde4"></stop><stop offset="1" stop-color="#b5a8ae"></stop></linearGradient><path fill="url(#k)" d="M434.709 363.434c-56.462 0-102.233 45.771-102.233 102.233 0 56.461 45.771 102.233 102.233 102.233 56.461 0 102.233-45.772 102.233-102.233 0-56.462-45.771-102.233-102.233-102.233zm0 178.8c-42.287 0-76.566-34.281-76.566-76.567 0-42.287 34.28-76.566 76.566-76.566s76.567 34.28 76.567 76.566-34.28 76.567-76.567 76.567z"></path><linearGradient id="l" x1="434.709" x2="536.938" y1="414.384" y2="414.384" gradientUnits="userSpaceOnUse"><stop offset="0" stop-color="#dc6734"></stop><stop offset="1" stop-color="#ae2e41"></stop></linearGradient><path fill="url(#l)" d="M434.709 363.434v25.667c42.174 0 76.377 34.1 76.558 76.232h25.671c-.18-56.308-45.878-101.899-102.229-101.899z"></path><path fill="#BCB3B8" d="M280.251 166h-71.542a9.667 9.667 0 1 0 0 19.333h71.542V166z"></path><linearGradient id="m" x1="287.334" x2="489.208" y1="175.667" y2="175.667" gradientUnits="userSpaceOnUse"><stop offset="0" stop-color="#e9aa4a"></stop><stop offset="1" stop-color="#f2d265"></stop></linearGradient><path fill="url(#m)" d="M479.542 166H287.334v19.333h192.208c5.338 0 9.666-4.327 9.666-9.666S484.88 166 479.542 166z"></path><path fill="#BCB3B8" d="M407.376 117H208.709a9.667 9.667 0 1 0 0 19.333h198.667V117z"></path><linearGradient id="n" x1="414.459" x2="544.709" y1="126.666" y2="126.666" gradientUnits="userSpaceOnUse"><stop offset="0" stop-color="#6a74ef"></stop><stop offset="1" stop-color="#92a6eb"></stop></linearGradient><path fill="url(#n)" d="M535.042 117H414.459v19.333h120.583a9.667 9.667 0 1 0 0-19.333z"></path><path fill="#B5A8AE" d="M302.24 270c-26.708.441-47.963 22.41-47.522 49.117.44 26.707 22.409 47.962 49.117 47.522 26.707-.441 47.962-22.409 47.522-49.117-.44-26.707-22.409-47.961-49.117-47.522zm1.254 76.01c-15.305.252-27.894-11.928-28.146-27.232-.252-15.305 11.927-27.894 27.233-28.146 15.304-.252 27.893 11.927 28.146 27.231.252 15.305-11.928 27.894-27.233 28.147z"></path><path fill="#C6BDC2" d="m308.888 257.895 3.065 2.966-13.628.225-3.066-2.966z"></path><path fill="#B5A8AE" d="m332.143 265.053 3.066 2.966 11.156 7.831-3.066-2.966zM357.875 292.292l3.064 2.966-15.562.073-3.065-2.967zM362.702 329.484l3.066 2.966-12.635-9.087-3.066-2.966zM297.25 378.745l3.065 2.966-5.235-14.656-3.065-2.966zM262.809 363.786l3.066 2.966 4.384-14.932-3.065-2.966zM246.828 334.413l-3.066-2.966 12.327-9.498 3.066 2.966z"></path><path fill="#C6BDC2" d="m251.244 347.308-3.065-2.966-4.417-12.895 3.066 2.966zM243.356 307.145l3.065 2.966 4.005-13.029-3.066-2.966z"></path><path fill="#B5A8AE" d="m262.917 293.674 3.064 2.967-15.555.441-3.066-2.966z"></path><path fill="#C6BDC2" d="m261.288 274.238 3.065 2.965 10.891-8.195-3.065-2.966z"></path><path fill="#B5A8AE" d="m269.226 291.982-3.065-2.965-4.873-14.779 3.065 2.965zM272.179 266.042l3.065 2.966 12.851 8.777-3.066-2.966zM290.511 272.94l3.066 2.966 4.748-14.82-3.066-2.966zM319.588 274.249l3.066 2.965 12.555-9.195-3.066-2.966z"></path><linearGradient id="o" x1="263.188" x2="349.009" y1="278.369" y2="364.19" gradientUnits="userSpaceOnUse"><stop offset="0" stop-color="#f2d265"></stop><stop offset="1" stop-color="#dcbb60"></stop></linearGradient><path fill="url(#o)" d="m361.779 345.483 3.989-13.034-11.44-8.228c.074-1.234.116-2.476.096-3.733a49.02 49.02 0 0 0-.218-3.717l11.166-8.625-4.432-12.889-14.064.065a48.378 48.378 0 0 0-4.48-5.948l3.97-13.526-11.156-7.831-11.346 8.31a47.86 47.86 0 0 0-7.169-2.195l-4.741-13.273-13.628.225-4.295 13.405a48.002 48.002 0 0 0-7.168 2.451l-11.617-7.935-10.891 8.195 4.417 13.396a48.484 48.484 0 0 0-4.274 6.084l-14.07.399-4.004 13.029 11.457 8.26a48.664 48.664 0 0 0-.094 3.713c.021 1.254.104 2.491.218 3.719l-11.174 8.609 4.417 12.896 14.094-.049a48.507 48.507 0 0 0 4.506 5.975l-3.97 13.518 11.154 7.833 11.366-8.323a47.907 47.907 0 0 0 7.186 2.191l4.736 13.258 13.628-.225 4.301-13.422a47.966 47.966 0 0 0 7.033-2.407l11.63 7.94 10.89-8.197-4.411-13.369a48.417 48.417 0 0 0 4.316-6.131l14.072-.414zm-83.365-23.739c-.252-15.305 11.927-27.894 27.232-28.146 15.304-.253 27.893 11.927 28.146 27.232.252 15.304-11.927 27.893-27.232 28.146-15.305.252-27.894-11.928-28.146-27.232z"></path><path fill="#E3DDE4" d="M306.089 360.559c-21.292 0-38.901-17.327-39.253-38.625-.173-10.497 3.746-20.427 11.037-27.962 7.29-7.535 17.086-11.78 27.583-11.953 21.624-.35 39.56 17.101 39.916 38.619.357 21.652-16.968 39.558-38.619 39.916-.223.003-.444.005-.664.005zm.029-76.545c-.209 0-.419.002-.629.005-9.963.164-19.26 4.193-26.179 11.344-6.918 7.151-10.638 16.576-10.474 26.538.337 20.423 17.412 37.019 37.883 36.652 20.549-.339 36.991-17.333 36.652-37.882-.334-20.213-17.046-36.657-37.253-36.657z"></path><path fill="#C6BDC2" d="M296.24 318.823a7.276 7.276 0 0 0 7.4 7.159 7.277 7.277 0 0 0 7.159-7.399 7.277 7.277 0 0 0-7.4-7.16 7.277 7.277 0 0 0-7.159 7.4z"></path><path fill="#C6BDC2" d="M305.876 323c-.383 0-.766-.146-1.059-.437l-84.153-83.82a1.5 1.5 0 0 1-.002-2.124l62.014-62.013a1.5 1.5 0 1 1 2.121 2.121l-60.951 60.951 83.088 82.759a1.5 1.5 0 0 1-1.058 2.563z"></path><linearGradient id="p" x1="268.77" x2="298.705" y1="160.7" y2="190.635" gradientUnits="userSpaceOnUse"><stop offset="0" stop-color="#dc6734"></stop><stop offset="1" stop-color="#ae2e41"></stop></linearGradient><circle cx="283.737" cy="175.667" r="21.167" fill="url(#p)"></circle><path fill="#BE4118" d="M298.823 321.406a7.276 7.276 0 0 0 7.4 7.159 7.277 7.277 0 0 0 7.159-7.399 7.277 7.277 0 0 0-7.4-7.16 7.278 7.278 0 0 0-7.159 7.4z"></path><circle cx="283.737" cy="175.667" r="8.333" fill="#F2D265"></circle><path fill="#B5A8AE" d="M426.586 209.498c-31.697-5.097-61.471 16.428-66.568 48.125-5.097 31.697 16.428 61.471 48.126 66.568 31.697 5.097 61.471-16.428 66.568-48.125 5.097-31.697-16.429-61.471-48.126-66.568zm-14.506 90.209c-18.164-2.921-30.499-19.982-27.578-38.146 2.921-18.165 19.982-30.499 38.147-27.578 18.164 2.92 30.498 19.982 27.578 38.146-2.921 18.164-19.982 30.498-38.147 27.578z"></path><path fill="#C6BDC2" d="m437 196.571 3.003 4.155-16.175-2.601-3.003-4.155z"></path><path fill="#B5A8AE" d="m463.013 209.934 3.004 4.154 11.553 11.614-3.004-4.155zM487.731 247.58l3.003 4.155-18.43-3.189-3.004-4.154zM485.62 292.607l3.004 4.155-13.039-13.411-3.004-4.154zM397.804 337.131l3.004 4.155-3.112-18.445-3.003-4.154zM360.195 312.184l3.004 4.154 8.33-16.747-3.003-4.154zM347.463 274.063l-3.004-4.155 16.586-8.646 3.004 4.155z"></path><path fill="#C6BDC2" d="m349.977 290.251-3.004-4.154-2.514-16.189 3.004 4.155zM349.091 241.065l3.004 4.155 7.479-14.576-3.004-4.155z"></path><path fill="#B5A8AE" d="m375.072 229.239 3.003 4.155-18.501-2.75-3.004-4.155z"></path><path fill="#C6BDC2" d="m377.233 205.896 3.004 4.155 14.612-7.407-3.004-4.154z"></path><path fill="#B5A8AE" d="m382.895 228.565-3.004-4.154-2.658-18.515 3.004 4.155zM391.845 198.49l3.004 4.154 13.36 13.089-3.003-4.154zM412.088 210.509l3.004 4.155 8.736-16.539-3.003-4.155zM446.222 218.174l3.003 4.155 16.792-8.241-3.004-4.154z"></path><linearGradient id="q" x1="369.791" x2="470.935" y1="220.429" y2="321.573" gradientUnits="userSpaceOnUse"><stop offset="0" stop-color="#92a6eb"></stop><stop offset="1" stop-color="#6a74ef"></stop></linearGradient><path fill="url(#q)" d="M477.715 280.221c.239-1.487.4-2.967.524-4.443l15.027-7.858-2.532-16.185-16.656-2.881a58.1 58.1 0 0 0-4.051-7.981l7.543-15.17-11.554-11.614-15.175 7.447a57.546 57.546 0 0 0-8.021-4.105l-2.818-16.704-16.175-2.601-7.902 14.96a57.58 57.58 0 0 0-8.999 1.393l-12.078-11.834-14.612 7.407 2.409 16.781a58.168 58.168 0 0 0-6.337 6.3l-16.734-2.487-7.479 14.576 11.819 12.185a59.265 59.265 0 0 0-.893 4.373 59.177 59.177 0 0 0-.525 4.448l-15.034 7.837 2.514 16.188 16.688 2.908a58.18 58.18 0 0 0 4.076 8.019l-7.542 15.161 11.551 11.616 15.201-7.458a57.678 57.678 0 0 0 8.042 4.104l2.814 16.685 16.174 2.601 7.913-14.979a57.52 57.52 0 0 0 8.83-1.368l12.092 11.842 14.61-7.409-2.406-16.748a58.249 58.249 0 0 0 6.396-6.347l16.744 2.468 7.462-14.584-11.808-12.144a57.67 57.67 0 0 0 .902-4.399zm-90.209-14.506c2.921-18.164 19.982-30.499 38.146-27.578 18.164 2.921 30.498 19.982 27.578 38.146-2.921 18.164-19.982 30.498-38.147 27.578-18.164-2.921-30.498-19.982-27.577-38.146z"></path><path fill="#E3DDE4" d="M420.439 318.008c-2.505 0-5.039-.204-7.533-.604-25.587-4.114-43.057-28.278-38.943-53.866 3.685-22.915 23.17-39.546 46.333-39.546 2.505 0 5.04.204 7.534.604 25.587 4.114 43.057 28.278 38.942 53.865-3.685 22.915-23.17 39.547-46.333 39.547zm-.143-92.017c-22.175 0-40.83 15.924-44.358 37.864-3.939 24.499 12.787 47.634 37.286 51.574 2.389.384 4.816.579 7.215.579 22.175 0 40.83-15.924 44.358-37.864 3.938-24.499-12.787-47.634-37.285-51.573a45.488 45.488 0 0 0-7.216-.58z"></path><circle cx="417.292" cy="267.866" r="8.75" fill="#C6BDC2"></circle><path fill="#C6BDC2" d="M420.375 272.449c-.359 0-.72-.128-1.007-.389l-80.667-73.116a1.5 1.5 0 0 1-.053-2.172l71.167-71.167a1.5 1.5 0 1 1 2.121 2.121l-70.053 70.053 79.5 72.058a1.5 1.5 0 0 1-1.008 2.612z"></path><linearGradient id="r" x1="395.909" x2="425.843" y1="111.7" y2="141.634" gradientUnits="userSpaceOnUse"><stop offset="0" stop-color="#dc6734"></stop><stop offset="1" stop-color="#ae2e41"></stop></linearGradient><circle cx="410.876" cy="126.667" r="21.167" fill="url(#r)"></circle><circle cx="420.376" cy="270.949" r="8.75" fill="#BE4118"></circle><circle cx="410.876" cy="126.667" r="8.333" fill="#92A6EB"></circle><linearGradient id="s" x1="677.374" x2="709.056" y1="742.472" y2="742.472" gradientUnits="userSpaceOnUse"><stop offset="0" stop-color="#eaaea4"></stop><stop offset=".313" stop-color="#e8a89d"></stop><stop offset=".782" stop-color="#e39688"></stop><stop offset="1" stop-color="#e08c7c"></stop></linearGradient><path fill="url(#s)" d="M694.206 763.858c4.779.021 10.978-1.989 14.85-3.451-1.236-4.7-2.836-9.404-3.18-12.407-.667-5.833-2.634-23.754-2.495-26.915l-24.338.155s7.416 26.093 3.838 29.512c-1.513 1.445-3.394 2.711-5.507 3.824 1.354.191 2.688.623 3.954 1.396 4.128 2.519 7.131 7.861 12.878 7.886z"></path><linearGradient id="t" x1="639.039" x2="710.559" y1="765.971" y2="765.971" gradientUnits="userSpaceOnUse"><stop offset="0" stop-color="#dc6734"></stop><stop offset="1" stop-color="#ae2e41"></stop></linearGradient><path fill="url(#t)" d="M639.381 770.252c1 1.167 7.142 5.945 30.333 7 18.334.834 39.667-3.064 40.5-6 .143-.504.237-.049.291-.627.265-2.854-.48-6.535-1.449-10.218-3.872 1.462-10.07 3.473-14.85 3.451-5.747-.025-8.75-5.367-12.878-7.887a10.282 10.282 0 0 0-3.954-1.396c-11.349 5.978-29.403 7.541-33.243 8.844a7.56 7.56 0 0 0-4.917 5.259c-.29 1.148-.208 1.136.167 1.574z"></path><linearGradient id="u" x1="661.316" x2="661.316" y1="726.288" y2="394.384" gradientUnits="userSpaceOnUse"><stop offset="0" stop-color="#5c60d5"></stop><stop offset=".588" stop-color="#2421a2"></stop><stop offset="1" stop-color="#250f52"></stop></linearGradient><path fill="url(#u)" d="M618.298 402.939c-1.588 13.727 6.744 108.061 19.411 181.394s28.917 120.667 30.334 138c.256 3.134 11.665 4.627 21.708 3.667 8.5-.813 13.715-3.513 14.381-5.513s1.363-55.294-5.756-99.82c-9.5-59.417-3.304-79.984 1.354-122.171 5.979-54.163 3.98-73.829-.604-95.996-3.488-16.868-23.737-2.375-40.415-1.343s-40.413 1.782-40.413 1.782z"></path><linearGradient id="v" x1="647.324" x2="647.324" y1="496.646" y2="485.313" gradientUnits="userSpaceOnUse"><stop offset="0" stop-color="#6a74ef"></stop><stop offset="1" stop-color="#5c60d5"></stop></linearGradient><path fill="url(#v)" d="m646.652 496.646-.651-6.896 1.812-4.437.833 11.172z"></path><path fill="#6A74EF" d="M679.336 713.929a145.15 145.15 0 0 0-.64-5.919l1.984-.254c.262 2.042.479 4.061.647 6.001l-1.991.172zM678.145 704.075a214.663 214.663 0 0 0-.986-5.885l1.969-.357c.37 2.043.705 4.041.994 5.941l-1.977.301zM676.417 694.277c-.379-1.92-.782-3.87-1.208-5.855l1.955-.42a366.5 366.5 0 0 1 1.216 5.889l-1.963.386zM674.356 684.525c-.427-1.911-.87-3.855-1.329-5.841l1.949-.449c.459 1.989.904 3.939 1.331 5.854l-1.951.436zM672.716 668.513l1.37 5.837-1.946.457-1.371-5.837zM669.837 665.063c-.446-1.908-.901-3.855-1.36-5.844l1.949-.449c.459 1.986.912 3.932 1.358 5.838l-1.947.455zM667.582 655.319c-.435-1.913-.873-3.864-1.314-5.857l1.953-.432c.439 1.989.878 3.937 1.313 5.846l-1.952.443zM665.413 645.552c-.415-1.92-.831-3.878-1.247-5.875l1.959-.408c.414 1.993.828 3.945 1.243 5.859l-1.955.424zM663.361 635.754c-.39-1.927-.778-3.891-1.164-5.893l1.963-.379c.386 1.996.772 3.954 1.162 5.875l-1.961.397zM661.448 625.928a645.662 645.662 0 0 1-1.076-5.909l1.969-.35c.355 2 .713 3.963 1.074 5.892l-1.967.367zM659.686 616.072c-.333-1.94-.661-3.915-.986-5.926l1.975-.318c.323 2.003.651 3.972.982 5.906l-1.971.338zM658.072 606.19a647.26 647.26 0 0 1-.894-5.939l1.979-.289c.293 2.007.59 3.98.892 5.922l-1.977.306zM656.612 596.287a660.556 660.556 0 0 1-.804-5.953l1.982-.26c.263 2.01.53 3.988.802 5.936l-1.98.277zM655.302 586.361a708.7 708.7 0 0 1-.717-5.964l1.986-.23c.233 2.012.471 3.993.715 5.946l-1.984.248zM654.133 576.418c-.216-1.936-.435-3.929-.654-5.976l1.988-.213c.22 2.043.438 4.034.654 5.966l-1.988.223zM653.055 566.459c-.206-1.952-.413-3.946-.62-5.979l1.99-.203c.207 2.03.413 4.022.618 5.973l-1.988.209zM652.031 556.495c-.197-1.963-.395-3.958-.592-5.98l1.99-.193c.197 2.021.395 4.014.592 5.975l-1.99.198zM651.053 546.528c-.19-1.972-.38-3.967-.57-5.981l1.991-.188c.189 2.013.379 4.006.569 5.978l-1.99.191zM650.11 536.561c-.184-1.979-.366-3.976-.549-5.983l1.992-.182c.183 2.008.365 4.002.549 5.979l-1.992.186zM649.201 526.588c-.178-1.984-.354-3.98-.53-5.983l1.992-.176c.176 2.003.353 3.997.53 5.981l-1.992.178zM649.748 510.466l.512 5.986-1.991.17-.513-5.985zM648.97 500.495l.497 5.992-1.994.165-.497-5.991zM645.861 486.677c-.156-2.006-.31-4.004-.46-5.991l1.994-.15c.15 1.985.304 3.981.46 5.985l-1.994.156zM645.101 476.692c-.15-2.011-.298-4.01-.441-5.992l1.994-.145c.144 1.98.291 3.978.441 5.988l-1.994.149zM644.372 466.707c-.144-2.02-.284-4.019-.42-5.995l1.996-.137c.136 1.975.274 3.972.418 5.989l-1.994.143zM643.682 456.715c-.136-2.027-.268-4.027-.395-5.996l1.996-.129c.127 1.966.259 3.964.395 5.992l-1.996.133zM643.034 446.721c-.127-2.04-.248-4.042-.363-6l1.996-.117c.115 1.956.236 3.955.363 5.993l-1.996.124zM642.44 436.721c-.116-2.059-.225-4.063-.324-6.005l1.998-.103c.1 1.94.206 3.94.322 5.995l-1.996.113zM641.918 426.711a837.442 837.442 0 0 1-.265-6.011l1.998-.08c.077 1.912.166 3.913.265 5.997l-1.998.094zM641.504 416.69a434.222 434.222 0 0 1-.166-6.023l2-.04c.037 1.849.093 3.853.164 5.996l-1.998.067zM641.286 406.642l-.002-.877c0-2.049.035-3.791.104-5.176l1.998.101c-.068 1.352-.103 3.06-.103 5.076l.002.851-1.999.025z"></path><linearGradient id="w" x1="639.04" x2="710.559" y1="772.605" y2="772.605" gradientUnits="userSpaceOnUse"><stop offset="0" stop-color="#e9aa4a"></stop><stop offset="1" stop-color="#ea971d"></stop></linearGradient><path fill="url(#w)" d="M639.381 771.252c1 1.167 7.142 5.945 30.333 7 18.334.834 39.667-3.064 40.5-6 .32-1.128.398-2.46.312-3.918-43.419 10.93-67.439.333-70.561-1.491-1.046 1.827-1.152 3.747-.584 4.409z"></path><linearGradient id="x" x1="665.77" x2="704.527" y1="715.811" y2="715.811" gradientUnits="userSpaceOnUse"><stop offset="0" stop-color="#92a6eb"></stop><stop offset="1" stop-color="#6a74ef"></stop></linearGradient><path fill="url(#x)" d="M689.751 726c8.5-.813 13.715-3.513 14.381-5.513.209-.627.421-6.297.394-15.155-17.184 9.832-35.483 4.668-38.755 3.97 1.204 5.397 2.005 9.753 2.272 13.031.256 3.134 11.665 4.627 21.708 3.667z"></path><path fill="#5C60D5" d="m683.283 715.901-.047-1.5a57.125 57.125 0 0 0 6.04-.5l.205 1.486a58.808 58.808 0 0 1-6.198.514zm-4.142-.006a69.804 69.804 0 0 1-6.188-.487l.184-1.488c2.024.249 4.062.409 6.056.476l-.052 1.499zm14.428-1.235-.322-1.465a45.751 45.751 0 0 0 5.801-1.674l.512 1.41a47.33 47.33 0 0 1-5.991 1.729zM669.133 713.307a64.497 64.497 0 0 1-2.617-.538c.113.55.22 1.083.322 1.606a67.1 67.1 0 0 0 2.025.406l.27-1.474zM703.416 711.318c.372-.178.727-.384 1.094-.572.006-.547.01-1.113.013-1.699-.581.313-1.157.633-1.753.918l.646 1.353z"></path><linearGradient id="y" x1="530.188" x2="562.543" y1="753.188" y2="753.188" gradientUnits="userSpaceOnUse"><stop offset="0" stop-color="#eaaea4"></stop><stop offset=".313" stop-color="#e8a89d"></stop><stop offset=".782" stop-color="#e39688"></stop><stop offset="1" stop-color="#e08c7c"></stop></linearGradient><path fill="url(#y)" d="M537.001 766.375c3.625 4.375 6.867 7.564 10.75 7.5 4.542-.076 8.937-1.846 11.704-3.231-.754-3.946-1.757-7.822-2.079-10.644-.667-5.833 4.333-20.5 5.167-23.834l-23.667-3.666s-.083 20.334-6.333 28.333c-.67.857-1.469 1.644-2.354 2.375 2.54.121 5.014.997 6.812 3.167z"></path><linearGradient id="z" x1="488.701" x2="560.352" y1="775.328" y2="775.328" gradientUnits="userSpaceOnUse"><stop offset="0" stop-color="#dc6734"></stop><stop offset="1" stop-color="#ae2e41"></stop></linearGradient><path fill="url(#z)" d="M489.043 780.333c1 1.167 7.142 5.945 30.333 7 18.334.834 39.667-3.064 40.5-6 .15-.53.262-.091.338-.677.384-2.935-.089-6.501-.759-10.013-2.768 1.386-7.162 3.155-11.704 3.231-3.883.064-7.125-3.125-10.75-7.5-1.798-2.17-4.272-3.046-6.813-3.167-9.965 8.232-32.213 8.874-36.396 10.293-3.267 1.108-4.777 3.933-5.047 5.927-.114.854-.002.556.298.906z"></path><linearGradient id="A" x1="531.021" x2="666.438" y1="569.356" y2="569.356" gradientUnits="userSpaceOnUse"><stop offset="0" stop-color="#5c60d5"></stop><stop offset=".588" stop-color="#2421a2"></stop><stop offset="1" stop-color="#250f52"></stop></linearGradient><path fill="url(#A)" d="M593.296 422.5c-3.586 10.833-26.855 72.021-37.253 110.833-15.917 59.417-25.535 193.319-25 198.667.25 2.5 9.391 5.059 16.166 5.625 6.523.545 14.167 1.208 15.75-.375 2.027-2.027 31.418-92.918 36.084-120.584S615.376 554 632.376 519s32.123-72.524 34.062-114.595c-11.034-4.773-21.942-3.483-39.562-3.905-17.258-.413-24.707 3.652-28.479 10.167s-5.101 11.833-5.101 11.833z"></path><path fill="#5C60D5" d="M627.755 527.867c1.973-4.381 4.057-8.724 6.11-13.061a580.442 580.442 0 0 0 5.984-13.098c3.88-8.779 7.501-17.67 10.739-26.694a.748.748 0 0 1 .958-.454.748.748 0 0 1 .454.958l-.004.01c-3.366 9.024-7.11 17.897-11.109 26.646a583.26 583.26 0 0 1-6.16 13.046c-2.112 4.321-4.241 8.616-6.268 12.973a.39.39 0 0 1-.516.188.39.39 0 0 1-.188-.514z"></path><path fill="#6A74EF" d="m556.651 726.732-1.986-.234c.218-1.846.44-3.837.674-5.962l1.988.219a727.299 727.299 0 0 1-.676 5.977zm1.108-9.961-1.988-.215.639-5.972 1.988.213-.639 5.974zm1.065-9.953-1.988-.215c.208-1.931.424-3.924.648-5.973l1.988.219c-.224 2.047-.44 4.039-.648 5.969zm1.089-9.945-1.988-.223c.218-1.945.444-3.937.68-5.971l1.986.23c-.236 2.032-.46 4.021-.678 5.964zm1.143-9.935-1.986-.236c.231-1.954.473-3.944.723-5.966l1.984.246c-.251 2.017-.49 4.003-.721 5.956zm1.218-9.925-1.984-.252c.249-1.96.508-3.947.775-5.96l1.982.264c-.267 2.008-.524 3.992-.773 5.948zm1.308-9.911-1.982-.271c.27-1.963.547-3.947.835-5.953l1.98.285c-.288 1.999-.565 3.98-.833 5.939zm1.41-9.895-1.979-.293c.291-1.965.592-3.946.901-5.942l1.977.307a932.63 932.63 0 0 0-.899 5.928zm1.524-9.876-1.975-.318c.315-1.964.641-3.942.976-5.931l1.973.332a712.505 712.505 0 0 0-.974 5.917zm1.647-9.856-1.971-.344c.343-1.964.694-3.937 1.057-5.918l1.967.359a725.107 725.107 0 0 0-1.053 5.903zm1.784-9.83-1.965-.371a599.5 599.5 0 0 1 1.145-5.903l1.961.391a639.732 639.732 0 0 0-1.141 5.883zm1.933-9.8-1.959-.402c.401-1.953.813-3.909 1.237-5.869l1.955.424a530.141 530.141 0 0 0-1.233 5.847zm2.089-9.741-1.951-.438c.437-1.95.884-3.902 1.343-5.853l1.947.457c-.457 1.946-.905 3.89-1.339 5.834zm2.268-9.713-1.943-.473c.475-1.948.961-3.894 1.46-5.836l1.938.498a474.24 474.24 0 0 0-1.455 5.811zm2.464-9.678-1.934-.514a487.323 487.323 0 0 1 1.588-5.811l1.926.539a457.266 457.266 0 0 0-1.58 5.786zm2.68-9.633-1.92-.559c.563-1.934 1.139-3.86 1.729-5.779l1.912.588a385.805 385.805 0 0 0-1.721 5.75zm2.913-9.559-1.906-.607a347.764 347.764 0 0 1 1.878-5.72l1.895.641a334.499 334.499 0 0 0-1.867 5.686zm3.165-9.458-1.887-.662c.667-1.9 1.349-3.789 2.047-5.663l1.875.699a314.02 314.02 0 0 0-2.035 5.626zm3.452-9.354-1.865-.723a294.51 294.51 0 0 1 2.235-5.591l1.85.762a282.746 282.746 0 0 0-2.22 5.552zm3.76-9.241-1.846-.771 2.324-5.543 1.844.775-2.322 5.539zm3.873-9.232-1.844-.775 2.329-5.538 1.844.775-2.329 5.538zm3.883-9.228-1.844-.775 2.332-5.537 1.844.777-2.332 5.535zm3.887-9.225-1.844-.777 2.329-5.526 1.844.775-2.329 5.528zm3.884-9.217-1.844-.777 2.334-5.54 1.844.775-2.334 5.542zm3.889-9.232-1.844-.775 2.329-5.537 1.844.775-2.329 5.537zm3.88-9.23-1.844-.774 2.324-5.538 1.844.773-2.324 5.539zm3.873-9.234-1.846-.771 2.316-5.542 1.846.77-2.316 5.543zm3.857-9.24-1.846-.77c.791-1.901 1.561-3.753 2.304-5.547l1.848.766c-.743 1.794-1.513 3.648-2.306 5.551zm3.837-9.255-1.85-.762c.801-1.94 1.563-3.798 2.282-5.557l1.852.758a1954.27 1954.27 0 0 1-2.284 5.561zm3.795-9.276-1.854-.751c.824-2.035 1.572-3.9 2.233-5.571l1.859.736a747.001 747.001 0 0 1-2.238 5.586zm3.698-9.333-1.867-.714a101.73 101.73 0 0 0 1.39-3.811 58.12 58.12 0 0 0 .563-1.796l1.918.57a57.845 57.845 0 0 1-.583 1.858c-.309.929-.774 2.203-1.421 3.893zm3.088-9.642-1.934-.512c.474-1.792.97-3.764 1.466-5.808l1.943.472a290.093 290.093 0 0 1-1.475 5.848zm2.406-9.754-1.947-.456c.463-1.976.916-3.956 1.342-5.85l1.951.439a689.94 689.94 0 0 1-1.346 5.867zm2.219-9.784-1.953-.431c.505-2.294.943-4.322 1.275-5.872l1.955.419c-.331 1.553-.77 3.586-1.277 5.884z"></path><linearGradient id="B" x1="488.702" x2="560.351" y1="782.686" y2="782.686" gradientUnits="userSpaceOnUse"><stop offset="0" stop-color="#e9aa4a"></stop><stop offset="1" stop-color="#ea971d"></stop></linearGradient><path fill="url(#B)" d="M489.043 781.333c1 1.167 7.142 5.945 30.333 7 18.334.834 39.667-3.064 40.5-6 .336-1.186.475-2.526.475-3.958-43.522 11-67.599.375-70.724-1.451-1.046 1.827-1.151 3.747-.584 4.409z"></path><linearGradient id="C" x1="531.021" x2="568.077" y1="728.197" y2="728.197" gradientUnits="userSpaceOnUse"><stop offset="0" stop-color="#92a6eb"></stop><stop offset="1" stop-color="#6a74ef"></stop></linearGradient><path fill="url(#C)" d="M531.695 718.155c-.521 7.895-.747 12.896-.652 13.845.25 2.5 9.391 5.059 16.166 5.625 6.523.545 14.167 1.208 15.75-.375.467-.467 2.386-5.651 5.118-13.682-24.466 1.236-32.867-4.068-36.382-5.413z"></path><path fill="#5C60D5" d="M560.141 728.765c-1.737 0-3.45-.038-5.094-.113l.068-1.498a93.6 93.6 0 0 0 5.089.111l.369-.001.012 1.5-.381.001h-.063zm-8.782-.351a78.056 78.056 0 0 1-5.514-.652l.232-1.482c1.715.269 3.534.483 5.406.641l-.124 1.493zm-9.161-1.329a50.43 50.43 0 0 1-5.382-1.47l.477-1.422a48.954 48.954 0 0 0 5.224 1.425l-.319 1.467zM533.338 724.291l.586-1.381c-.478-.203-.908-.394-1.298-.565a44.32 44.32 0 0 0-1.166-.5l-.095 1.585c.206.089.419.183.654.287.396.175.834.368 1.319.574zM564.282 728.701c.665-.021 1.361-.053 2.052-.084.172-.489.35-.998.531-1.522-.895.043-1.775.081-2.628.106l.045 1.5z"></path><radialGradient id="D" cx="727.994" cy="160.129" r="110.882" gradientUnits="userSpaceOnUse"><stop offset="0" stop-color="#e08d7d"></stop><stop offset=".035" stop-color="#e49587"></stop><stop offset=".137" stop-color="#efaa9e"></stop><stop offset=".247" stop-color="#f6b8ae"></stop><stop offset=".369" stop-color="#fbc0b8"></stop><stop offset=".527" stop-color="#fcc3bb"></stop><stop offset="1" stop-color="#eaaea4"></stop></radialGradient><path fill="url(#D)" d="M733.509 219.429c2.159-21.076 2.743-46.833-4.967-60.429-7.391-13.033-30.844-23.949-54.541-27.375s-70.375 1.75-74.625.75-16.375-13.125-18.5-13.5-3.625 1.458-3 7.375c.754 7.139 7.522 21.408 7.522 21.408l-15.394 10.531c-5.871-.186-12.791-8.379-16.254-6.814-3.042 1.375 4.739 13.416 10.959 14.458 13.916 2.333 37.642-11.982 66.776-13.661s58.796 1.361 68.557 29.327c2.96 8.48 2.788 17.27 1.281 25.171 7.942-1.191 20.867-.045 32.186 12.759z"></path><linearGradient id="E" x1="690.543" x2="733.509" y1="260.029" y2="260.029" gradientUnits="userSpaceOnUse"><stop offset="0" stop-color="#e9aa4a"></stop><stop offset="1" stop-color="#ea971d"></stop></linearGradient><path fill="url(#E)" d="M705.751 258.875c5.639 14.844 13.459 34.583 14.5 54.875 3.058-13.479 6.25-48.5 9.125-65.083.978-5.639 2.839-16.596 4.133-29.237-11.318-12.805-24.244-13.951-32.185-12.758-2.905 15.236-10.781 27.163-10.781 27.163s9.083 8.915 15.208 25.04z"></path><path fill="#F2D265" d="M732.288 230.822a1 1 0 0 1-.871-.506c-8.393-14.785-26.985-16.914-31.496-16.193a1 1 0 0 1-.315-1.976c4.813-.763 24.637 1.479 33.551 17.181a1 1 0 0 1-.869 1.494z"></path><linearGradient id="F" x1="665.793" x2="665.793" y1="252.723" y2="193.043" gradientUnits="userSpaceOnUse"><stop offset="0" stop-color="#eaaea4"></stop><stop offset=".313" stop-color="#e8a89d"></stop><stop offset=".782" stop-color="#e39688"></stop><stop offset="1" stop-color="#e08c7c"></stop></linearGradient><path fill="url(#F)" d="M650.709 212.833c-.173 7.001-4.666 27.5-7.833 35.667s16.999 2.5 27.666-.5 18.5-12.333 18.5-12.333-7-13.833-8.333-29-12-14.667-17.833-12.5-12.167 18.666-12.167 18.666z"></path><linearGradient id="G" x1="609.62" x2="624.221" y1="181.847" y2="181.847" gradientUnits="userSpaceOnUse"><stop offset="0" stop-color="#e25ab8"></stop><stop offset="1" stop-color="#eaaea4"></stop></linearGradient><path fill="url(#G)" d="M623.924 167.221c-7.131 19.196-14.548 19.904-14.298 23.029s6.5 6.875 11.25 6.125 3.048-29.154 3.048-29.154z"></path><linearGradient id="H" x1="618.39" x2="682.057" y1="182.485" y2="182.485" gradientUnits="userSpaceOnUse"><stop offset="0" stop-color="#eaaea4"></stop><stop offset=".313" stop-color="#e8a89d"></stop><stop offset=".782" stop-color="#e39688"></stop><stop offset="1" stop-color="#e08c7c"></stop></linearGradient><path fill="url(#H)" d="M631.709 153.5c-9.833 9.333-23.649 56.634-1.249 67.834C650.293 231.25 671.209 200 671.209 200s25.167-36.5-1.167-53c-23.896-14.973-38.333 6.5-38.333 6.5z"></path><path fill="#BE4118" d="M620.093 206.824c.321.332 1.057.501 1.674.565.646.051 1.299.009 1.896-.177 1.213-.355 2.088-1.265 2.619-2.394l.002-.004a.951.951 0 1 1 1.69.868c-.407.729-.936 1.431-1.633 1.952a5.534 5.534 0 0 1-2.325 1.042 5.765 5.765 0 0 1-2.465-.053 4.61 4.61 0 0 1-1.158-.437c-.357-.202-.755-.458-.99-.925a.41.41 0 0 1 .66-.47l.03.033z"></path><path fill="#5C60D5" d="M628.62 180.46a2 2 0 0 1-2-1.984l-.001-.118c-.014-1.38-.046-4.611 2.772-8.453a2 2 0 1 1 3.225 2.365c-2.03 2.769-2.009 4.902-1.997 6.048l.001.126a2 2 0 0 1-1.984 2.016h-.016z"></path><linearGradient id="I" x1="597.199" x2="697.304" y1="169.382" y2="169.382" gradientUnits="userSpaceOnUse"><stop offset="0" stop-color="#be4118"></stop><stop offset=".165" stop-color="#a2391e"></stop><stop offset=".388" stop-color="#833024"></stop><stop offset=".606" stop-color="#6d2a28"></stop><stop offset=".814" stop-color="#60262b"></stop><stop offset="1" stop-color="#5b252c"></stop></linearGradient><path fill="url(#I)" d="M682.751 197c1.125-10 22.405-18.825 11.405-46.45-6.278-15.768-20.03-22.175-32.14-21.988-9.157.141-14.391 3.188-20.016 1.563s-15.125-5.75-20.125-2.25-2.375 9.125-5.125 11.75-16.75-.875-19.375 7.5c-.946 3.02 1.375 13.5 20.25 13.375s29.5-12 36.125-3.75-8.125 16.625-6.375 25.25c.345 1.697 1.439 2.249 2.876 2.235 2.707-.402 9.914-9.714 15.582-4.777 3.875 3.375 2.917 12.917-4.333 15.292.335 4.454 3.25 9 6.25 12.313 2.495 2.755 10.165 7.912 14.875 3.438 1.668-1.584-.394-8.885.126-13.501z"></path><path fill="#6A74EF" d="M628.647 171.018c-1.672 2.714-1.976 5.034-2.021 6.479 3.125-1.333 2.767-4.63 2.021-6.479z"></path><path fill="#7B2E26" d="M636.752 171.825a.949.949 0 0 1-.947-1.028c.146-1.754-.324-3.071-1.396-3.915-1.419-1.116-3.534-1.132-3.982-.98a.949.949 0 1 1-.599-1.802c.977-.326 3.756-.283 5.755 1.289 1.104.868 2.368 2.538 2.116 5.566a.952.952 0 0 1-.947.87z"></path><path fill="#8F3421" d="M678.877 139.333c1.174-.144 2.317.242 3.348.742a8.757 8.757 0 0 1 2.727 2.166 7.744 7.744 0 0 1 1.6 3.146c.263 1.155.243 2.364-.174 3.446-.424-1.078-.81-2.027-1.3-2.898a15.773 15.773 0 0 0-1.662-2.414c-.627-.75-1.32-1.46-2.073-2.151-.759-.692-1.537-1.379-2.466-2.037zM688.877 153c.649-.001 1.234.347 1.762.679a7.95 7.95 0 0 1 1.411 1.256 8.958 8.958 0 0 1 1.841 3.313c.371 1.23.459 2.576.181 3.843-.28 1.263-.913 2.433-1.861 3.243.216-1.225.349-2.327.296-3.401a12.522 12.522 0 0 0-.531-3.112 18.255 18.255 0 0 0-1.214-2.995c-.253-.489-.511-.988-.817-1.461-.303-.483-.606-.962-1.068-1.365z"></path><path fill="#BE4118" d="M607.377 145c.338.913 1.125 1.535 1.906 2.043.794.513 1.658.911 2.545 1.239 1.777.653 3.646 1.031 5.522 1.234 3.76.431 7.552.147 11.248-.626 3.723-.777 7.438-1.729 11.207-2.571 3.773-.804 7.62-1.536 11.624-1.484 1.991.057 4.049.342 5.984 1.186a9.896 9.896 0 0 1 2.675 1.713c.762.692 1.471 1.481 2.028 2.379 1.153 1.785 1.628 4.008 1.423 6.069-.18 2.077-.895 3.995-1.764 5.765-1.757 3.551-4.155 6.61-6.475 9.663-1.174 1.517-2.354 3.025-3.386 4.624-.511.8-.985 1.626-1.327 2.506-.342.864-.568 1.849-.212 2.762-.455-.872-.336-1.932-.075-2.858.278-.94.703-1.822 1.157-2.678.923-1.708 1.992-3.319 3.046-4.926 2.133-3.187 4.323-6.347 5.858-9.752.745-1.701 1.313-3.473 1.429-5.236.122-1.762-.301-3.482-1.268-4.913a10.216 10.216 0 0 0-1.725-1.967 7.97 7.97 0 0 0-2.166-1.359c-1.6-.687-3.42-.94-5.254-.979-3.691-.09-7.455.601-11.188 1.334-3.747.726-7.484 1.643-11.315 2.253-3.84.665-7.824.745-11.669.061-1.918-.359-3.808-.898-5.582-1.711-.884-.409-1.743-.884-2.517-1.481-.746-.605-1.489-1.34-1.729-2.29zM619.376 144c1.846.157 3.653-.044 5.421-.43 1.77-.369 3.502-.91 5.225-1.483 3.438-1.182 6.839-2.536 10.298-3.815 3.472-1.235 7.003-2.454 10.728-3.058 1.854-.302 3.767-.441 5.662-.217 1.883.231 3.772.885 5.167 2.128-1.645-.866-3.443-1.188-5.223-1.148-1.782.014-3.552.35-5.298.767-3.489.879-6.911 2.144-10.352 3.407-3.453 1.233-6.924 2.524-10.544 3.429-1.807.458-3.654.807-5.526.958-1.867.128-3.794.056-5.558-.538z"></path><path fill="#8F3421" d="M669.501 194.875c.58 1.554 1.406 2.898 2.269 4.193.881 1.28 1.868 2.456 2.978 3.446 1.113.982 2.35 1.783 3.758 2.224 1.406.447 2.965.526 4.634.375-1.384.939-3.175 1.384-4.954 1.153-1.784-.216-3.464-1.083-4.767-2.258-1.318-1.173-2.31-2.631-3.008-4.185-.676-1.547-1.153-3.261-.91-4.948z"></path><path fill="#724A5F" d="M473.675 235.433s9.543 1.982 21.491-3.471c9.714-4.433 10.993-6.546 10.993-6.546l-15.787-13.932-16.697 23.949z"></path><linearGradient id="J" x1="447.288" x2="608.751" y1="168.22" y2="168.22" gradientUnits="userSpaceOnUse"><stop offset="0" stop-color="#5b252c"></stop><stop offset="1" stop-color="#250f50"></stop></linearGradient><path fill="url(#J)" d="M605.427 114.44c-5.723-7.998-16.839-9.845-24.834-4.126a17.705 17.705 0 0 0-6.169 7.892l-66.879 50.149-.011-.015s-9.377 7.232-18.832 9.723c-10.366 2.731-21.14-3.72-33.796 6.736-14.232 11.758-4.159 34.67-4.159 34.67s10.465-15.984 13.596-17.145c2.855-1.056 6.568 1.426 6.568 1.426l35.225 25.697s2.663-11.946 7.027-22.604c4.096-9.996 7.669-14.607 9.866-16.519l69.94-47.849a17.71 17.71 0 0 0 8.333-3.203c8.001-5.717 9.844-16.835 4.125-24.832zm-9.608 17.169a8.38 8.38 0 0 1-11.69-1.94 8.383 8.383 0 0 1 1.944-11.689c3.761-2.692 8.994-1.822 11.688 1.941a8.377 8.377 0 0 1-1.942 11.688z"></path><path fill="#724A5F" d="M488.656 184.483a4.373 4.373 0 0 1 6.031-1.369l13.816 8.698a4.369 4.369 0 0 1 1.368 6.029l-6.679 10.608a4.368 4.368 0 0 1-6.029 1.371l-13.816-8.698a4.37 4.37 0 0 1-1.371-6.029l6.68-10.61z"></path><path fill="#5C60D5" d="M504.214 196.128a2.183 2.183 0 013.014-.683 2.184 2.184 0 01.687 3.013l-5.009 7.958a2.19 2.19 0 01-3.018.685 2.189 2.189 0 01-.684-3.015l5.01-7.958zM499.126 192.924a2.188 2.188 0 013.7 2.332l-5.01 7.956a2.186 2.186 0 01-3.016.685 2.19 2.19 0 01-.688-3.015l5.014-7.958zM494.035 189.721a2.186 2.186 0 013.702 2.328l-5.01 7.959a2.184 2.184 0 01-3.015.684 2.187 2.187 0 01-.688-3.014l5.011-7.957zM488.949 186.518a2.185 2.185 0 013.014-.688 2.192 2.192 0 01.687 3.018l-5.012 7.957a2.187 2.187 0 01-3.014.685 2.19 2.19 0 01-.687-3.016l5.012-7.956zM518.188 184.999a4.935 4.935 0 01-4.013-2.066l-3.132-4.392c-.764-1.07-1.064-2.374-.848-3.671s.926-2.432 1.996-3.196l52.308-37.309a4.891 4.891 0 012.855-.916c1.591 0 3.09.772 4.013 2.065l3.134 4.392a4.896 4.896 0 01.848 3.672 4.89 4.89 0 01-1.998 3.196l-52.308 37.309a4.88 4.88 0 01-2.855.916zm49.167-49.549c-.609 0-1.195.188-1.693.543l-52.308 37.309a2.907 2.907 0 00-1.186 1.898c-.129.77.05 1.544.503 2.18l3.133 4.393c.899 1.263 2.807 1.589 4.077.683l52.309-37.309a2.902 2.902 0 001.187-1.898 2.905 2.905 0 00-.504-2.181l-3.134-4.392a2.93 2.93 0 00-2.384-1.226z"></path><linearGradient id="K" x1="548.111" x2="558.688" y1="141.048" y2="141.048" gradientUnits="userSpaceOnUse"><stop offset="0" stop-color="#eaaea4"></stop><stop offset=".313" stop-color="#e8a89d"></stop><stop offset=".782" stop-color="#e39688"></stop><stop offset="1" stop-color="#e08c7c"></stop></linearGradient><path fill="url(#K)" d="M555.247 129.563c-1.666.53-5.918 1.576-6.916 6.349-.73 3.493.48 8.792 1.844 11.593 1.362 2.801 5.428 6.244 8.002 4.603 1.736-1.107-1.46-6.467-1.945-8.842-1.44-7.04-.985-13.703-.985-13.703z"></path><linearGradient id="L" x1="553.17" x2="564.755" y1="137.87" y2="137.87" gradientUnits="userSpaceOnUse"><stop offset="0" stop-color="#eaaea4"></stop><stop offset=".313" stop-color="#e8a89d"></stop><stop offset=".782" stop-color="#e39688"></stop><stop offset="1" stop-color="#e08c7c"></stop></linearGradient><path fill="url(#L)" d="M560.471 125.626c-.684-.193-5.813.465-6.89 4.467-.634 2.358-.759 8.863 1.288 12.946 2.046 4.083 6.954 7.888 8.479 6.965 2.498-1.514.908-4.391.908-4.391s-3.785-7.798-3.634-11.356-.151-8.631-.151-8.631z"></path><linearGradient id="M" x1="558.508" x2="567.265" y1="135.539" y2="135.539" gradientUnits="userSpaceOnUse"><stop offset="0" stop-color="#eaaea4"></stop><stop offset=".313" stop-color="#e8a89d"></stop><stop offset=".782" stop-color="#e39688"></stop><stop offset="1" stop-color="#e08c7c"></stop></linearGradient><path fill="url(#M)" d="M566.042 122.632c-1.559-.261-6.748-.606-7.464 7.158s4.163 19.684 7.268 18.699.148-9.028.15-13.561c.001-4.532.046-12.296.046-12.296z"></path><linearGradient id="N" x1="564.602" x2="574.703" y1="127.489" y2="127.489" gradientUnits="userSpaceOnUse"><stop offset="0" stop-color="#eaaea4"></stop><stop offset=".313" stop-color="#e8a89d"></stop><stop offset=".782" stop-color="#e39688"></stop><stop offset="1" stop-color="#e08c7c"></stop></linearGradient><path fill="url(#N)" d="M572.451 122.827c-1.836 3.33-.852 14.156-3.652 14.762-3.645.788-5.702-12.869-2.878-17.64 2.196-3.709 8.782-2.346 8.782-2.346l-2.252 5.224z"></path><path fill="#9B6D6D" d="M554.309 130.274c-.385 1.436-.48 3.048-.49 4.614a24.5 24.5 0 0 0 .433 4.701c.296 1.56.814 2.994 1.6 4.398.751 1.392 1.626 2.736 2.755 3.817l.004.003a.31.31 0 0 1-.42.458c-1.26-1.102-2.227-2.461-3.07-3.865a15.368 15.368 0 0 1-1.902-4.582c-.394-1.61-.601-3.252-.678-4.901-.06-1.653-.055-3.298.314-5.006a.75.75 0 1 1 1.467.317l-.008.034-.005.012zM560.601 125.53c-1.051 1.614-1.392 3.699-1.465 5.737-.055 2.059.185 4.147.591 6.197.413 2.05.993 4.077 1.782 6.015.397.967.846 1.915 1.391 2.794.543.852 1.195 1.755 2.059 2.096l.027.011c.138.054.206.21.151.348a.269.269 0 0 1-.343.153c-1.158-.428-1.821-1.377-2.446-2.25-.608-.904-1.106-1.864-1.553-2.844-.887-1.963-1.559-4.012-2.063-6.105-.497-2.094-.829-4.239-.854-6.428.003-2.168.247-4.468 1.44-6.503l.007-.011a.75.75 0 0 1 1.294.759l-.018.031zM565.584 135.731c-1.008-2.169-1.427-4.544-1.618-6.896-.161-2.362-.098-4.748.448-7.129a.75.75 0 1 1 1.463.335l-.011.04-.004.014c-.618 2.118-.826 4.421-.797 6.688.054 2.269.328 4.566 1.164 6.672a.352.352 0 0 1-.196.457.353.353 0 0 1-.449-.181z"></path><linearGradient id="O" x1="553.07" x2="581.57" y1="158.633" y2="158.633" gradientUnits="userSpaceOnUse"><stop offset="0" stop-color="#fcc3bb"></stop><stop offset="1" stop-color="#eaaea4"></stop></linearGradient><path fill="url(#O)" d="m576.613 153.668-6.608 4.521c-5.871-.186-12.791-8.379-16.254-6.814-3.042 1.375 4.739 13.416 10.959 14.458 4.599.771 10.274-.281 16.857-2.089.109-6.124-3.048-8.94-4.954-10.076z"></path><radialGradient id="P" cx="505.662" cy="314.265" r="131.225" gradientUnits="userSpaceOnUse"><stop offset="0" stop-color="#e08d7d"></stop><stop offset=".035" stop-color="#e49587"></stop><stop offset=".137" stop-color="#efaa9e"></stop><stop offset=".247" stop-color="#f6b8ae"></stop><stop offset=".369" stop-color="#fbc0b8"></stop><stop offset=".527" stop-color="#fcc3bb"></stop><stop offset="1" stop-color="#eaaea4"></stop></radialGradient><path fill="url(#P)" d="M564.565 268.964c-17.726 8.167-33.454 15.479-34.689 14.203-.997-1.03 2.167-8.167 6.667-29.333s9.083-58.833 7.333-66.333c-1.271-5.444-3.859-8.795-3.859-8.795l-7.614 5.209s-3.651-3.039-6.901-10.789-2.125-14.5-1.412-17.175l2.427-1.82s-3.448-1.064-5.265-.505c-1.625.5-2.458 2.542-2.458 2.542s-1.542-.542-3.354 1.083c-1.724 1.545-1.813 3.875-1.813 3.875s-3.166.042-4.5 4.875 1.25 20.333.583 21-3.083-5.333-3.75-8.167-.673-8.887-3.072-7.317-4.845 9.817.26 22.389 20.896 14.261 21.896 16.928-16 44.833-20.166 55-10.833 42.167-1 49.667c10.3 7.855 42.171 1.163 67.782-5.001 5.535-23.625-2.365-36.19-7.095-41.536z"></path><path fill="#9B6D6D" d="M519.128 156.246c-.361 1.81-.496 3.701-.546 5.567a44.205 44.205 0 0 0 .233 5.603c.39 3.715 1.258 7.374 2.637 10.818a.75.75 0 0 1-1.393.558l-.01-.025c-1.306-3.632-2.062-7.436-2.325-11.255a44.968 44.968 0 0 1-.034-5.734c.121-1.91.32-3.803.768-5.69a.344.344 0 0 1 .673.146l-.003.012zM513.968 161.172c-.184 1.779-.242 3.602-.263 5.406a69.28 69.28 0 0 0 .158 5.414c.269 3.579.773 7.202 2.108 10.435l.003.008a.75.75 0 1 1-1.386.572l-.009-.021c-.67-1.777-1.066-3.606-1.339-5.436-.271-1.831-.409-3.668-.471-5.502a70.86 70.86 0 0 1 .043-5.494c.09-1.831.215-3.645.472-5.476a.345.345 0 0 1 .685.083l-.001.011z"></path><linearGradient id="Q" x1="577.982" x2="636.094" y1="255.548" y2="313.66" gradientUnits="userSpaceOnUse"><stop offset="0" stop-color="#e9aa4a"></stop><stop offset="1" stop-color="#ea971d"></stop></linearGradient><path fill="url(#Q)" d="M606.876 303.667c3.334 4.333 1.666 22 1.666 22s13 3.5 23.667-8.167-1.5-70.5-1.5-70.5-1.167-1.167-18.833 2.5c-8.936 1.854-29.169 11.106-47.311 19.464 4.729 5.345 12.63 17.91 7.093 41.535 18.551-4.465 33.818-8.653 35.218-6.832z"></path><path fill="#F2D265" d="M581.405 309.122a1 1 0 0 1-.951-1.313c7.428-22.57-3.773-39.362-7.604-42.102a1.001 1.001 0 0 1 1.165-1.627c4.094 2.929 16.117 20.722 8.341 44.354-.139.42-.531.688-.951.688z"></path><linearGradient id="R" x1="598.229" x2="713.212" y1="273.432" y2="388.415" gradientUnits="userSpaceOnUse"><stop offset="0" stop-color="#5c60d5"></stop><stop offset=".588" stop-color="#2421a2"></stop><stop offset="1" stop-color="#250f52"></stop></linearGradient><path fill="url(#R)" d="M624.409 247.25c.84-.102 5.352-.924 11.155-2.022 8.558-1.619 21.424-2.004 27.979-3.395 8.04-1.706 17.092-6.566 23.19-8.174 2.245-.592 3.887-.992 4.577-1.063 7.899 1.57 21.584 14.775 26.417 33.442 5.067 19.571 8.398 40.211-7.352 92.211-11.696 38.618-11.25 44.25-11.25 44.25s-33.286 17.289-60.25 14.75-42-7-42-7 8.75-42.25 10.25-61.5 1.756-28.589 1.756-28.589 8.187.851 13.661-3.994c7.958-7.042 9.583-29.792 6.083-54.583-1.768-12.525-4.216-14.333-4.216-14.333z"></path><linearGradient id="S" x1="640.482" x2="701.383" y1="240.311" y2="301.211" gradientUnits="userSpaceOnUse"><stop offset="0" stop-color="#e9aa4a"></stop><stop offset="1" stop-color="#ea971d"></stop></linearGradient><path fill="url(#S)" d="M652.876 305.5c3 5 18.071 6.623 30.75 4 12.083-2.5 18.75-6.75 21-14.25s.417-45.417-17.893-61.59c-6.098 1.608-16.647 4.634-24.69 6.34-6.555 1.391-17.921 3.608-26.479 5.228 3.554 5.258 9.19 15.101 12.562 29.272 3.624 15.237 2.716 27.61 4.75 31z"></path><path fill="#6A74EF" d="m616.692 325.094-.434-1.952c2.004-.446 3.862-1.041 5.521-1.769l.805 1.831c-1.778.78-3.761 1.417-5.892 1.89zM626.248 321.203l-1.121-1.656c1.29-.874 2.494-2.276 3.579-4.167l1.734.994c-1.236 2.158-2.647 3.783-4.192 4.829zM632.211 312.627l-1.861-.729c.649-1.659 1.233-3.543 1.734-5.6l1.943.474c-.522 2.143-1.133 4.113-1.816 5.855zM634.859 302.794l-1.969-.35c.328-1.849.603-3.824.814-5.871l1.99.206a83.33 83.33 0 0 1-.835 6.015zM636.026 292.751l-1.996-.124c.12-1.924.189-3.923.208-5.944l2 .019c-.018 2.055-.09 4.091-.212 6.049zM634.209 282.716a129.998 129.998 0 0 0-.277-5.948l1.995-.14c.141 2.014.235 4.047.282 6.041l-2 .047zM633.596 272.815a133.6 133.6 0 0 0-.723-5.912l1.979-.287c.287 1.977.534 3.996.734 6l-1.99.199zM632.244 262.984a127.924 127.924 0 0 0-1.166-5.838l1.951-.438c.436 1.942.835 3.937 1.186 5.93l-1.971.346zM630.146 253.289c-.505-1.945-1.315-4.85-1.9-6.698l1.952-.357c.596 1.881 1.37 4.574 1.884 6.553l-1.936.502zM670.207 317.742c-1.448 0-2.886-.042-4.273-.125l.119-1.996c1.912.114 3.912.146 5.938.1l.047 1.999a75 75 0 0 1-1.831.022zm5.894-.223-.15-1.994a74.894 74.894 0 0 0 5.904-.68l.309 1.976a77.569 77.569 0 0 1-6.063.698zm-14.233-.273c-2.21-.278-4.246-.67-6.052-1.165l.529-1.929c1.714.469 3.656.843 5.772 1.109l-.249 1.985zm24.296-1.167-.416-1.956c2.071-.44 4.01-.928 5.761-1.45l.572 1.917a76.775 76.775 0 0 1-5.917 1.489zm-34.284-1.409c-2.063-.967-3.525-2.133-4.348-3.466a6.13 6.13 0 0 1-.5-1.026l1.865-.723c.105.273.219.508.336.698.615.997 1.791 1.907 3.496 2.706l-.849 1.811zm44.076-1.393-.719-1.867c1.965-.755 3.737-1.604 5.269-2.522l1.029 1.715c-1.631.978-3.508 1.877-5.579 2.674zm8.976-5.102-1.301-1.519c1.513-1.297 2.715-2.708 3.676-4.316l1.717 1.025c-1.059 1.772-2.435 3.39-4.092 4.81zm-58.836-2.129c-.245-1.733-.436-3.761-.642-6.041l1.992-.18c.203 2.252.392 4.254.63 5.941l-1.98.28zm64.676-6.525-1.9-.626.118-.368c.363-1.177.655-3.067.822-5.321l1.994.147c-.181 2.435-.493 4.427-.906 5.764l-.128.404zm-65.683-3.511a214.228 214.228 0 0 0-.644-5.962l1.984-.245c.228 1.839.434 3.751.649 6.018l-1.989.189zm66.883-6.732-2-.021.005-.85c0-1.649-.053-3.366-.155-5.104l1.996-.118c.105 1.777.159 3.534.159 5.223l-.005.87zm-68.065-3.186a129.84 129.84 0 0 0-1.015-5.891l1.963-.386c.38 1.932.727 3.945 1.03 5.982l-1.978.295zm65.597-6.753a100.189 100.189 0 0 0-.775-5.915l1.975-.319c.323 1.997.589 4.026.791 6.034l-1.991.2zm-67.446-3.032a107.136 107.136 0 0 0-1.506-5.774l1.92-.558a109.924 109.924 0 0 1 1.535 5.88l-1.949.452zm65.957-6.795a92.92 92.92 0 0 0-1.373-5.8l1.93-.523a94.63 94.63 0 0 1 1.402 5.925l-1.959.398zm-68.643-2.78a106.288 106.288 0 0 0-2.03-5.61l1.861-.733a107.324 107.324 0 0 1 2.067 5.717l-1.898.626zm66.145-6.829a80.412 80.412 0 0 0-2.019-5.592l1.854-.749a82.16 82.16 0 0 1 2.069 5.731l-1.904.61zm-69.704-2.453c-.8-1.823-1.66-3.635-2.557-5.387l1.779-.911a102.142 102.142 0 0 1 2.609 5.494l-1.831.804zm66.103-6.771a67.257 67.257 0 0 0-2.748-5.256l1.729-1.006a69.053 69.053 0 0 1 2.83 5.414l-1.811.848zm-4.844-8.603a55.572 55.572 0 0 0-3.554-4.723l1.531-1.287a57.709 57.709 0 0 1 3.681 4.893l-1.658 1.117zM612.413 323.792a41.12 41.12 0 0 1-3.688.255c-.027.597-.061 1.267-.098 2.003a43.118 43.118 0 0 0 4.021-.272l-.235-1.986z"></path><path fill="#6A74EF" d="M633.115 247.583a91.785 91.785 0 0 0-.991-1.708c-.738.138-1.438.268-2.096.389.273.782.296 1.926.754 2.736l2.333-1.417zM692.259 232.998c-.079-.08-.164-.153-.243-.233a10.218 10.218 0 0 0-.705-.168c-.38.039-1.055.18-1.951.395.497.464.998.926 1.476 1.411l1.423-1.405z"></path><linearGradient id="T" x1="593.296" x2="704.053" y1="409.291" y2="409.291" gradientUnits="userSpaceOnUse"><stop offset="0" stop-color="#dc6734"></stop><stop offset="1" stop-color="#ae2e41"></stop></linearGradient><path fill="url(#T)" d="M598.929 399.978c8.28 3.355 51.447 5.855 72.28 1.188s29.942-9.768 29.942-9.768 2.642-.815 2.891 7.101c.231 7.347-3.5 12-3.5 12s-34.166 17.667-70.999 16.667c-34.286-.931-36.247-4.667-36.247-4.667l5.633-22.521z"></path><path fill="#5B252C" d="M624.209 412.75c4.25-.667 10.838-9.058 10.838-9.058s-12.557-.47-16.749-.753-13.206-1.484-19.369-2.961c-14.322 4.353-25.887 10.188-25.887 10.188s8.667 2.333 20.254 3 26.663.251 30.913-.416z"></path><path fill="#F2D265" d="M602.179 428.149c0 7.226-5.857 13.083-13.083 13.083s-13.083-5.857-13.083-13.083v-39c0-7.226 5.857-13.083 13.083-13.083s13.083 5.857 13.083 13.083v39z"></path><path fill="#EA971D" d="M585.896 392.75c0-3.4-2.767-6.167-6.167-6.167a6.086 6.086 0 0 0-3.646 1.208c-.046.446-.07.899-.07 1.357v1.02a.994.994 0 0 0 .721-.303 4.125 4.125 0 0 1 2.995-1.282 4.171 4.171 0 0 1 4.167 4.167v47.402c.623.271 1.275.483 1.944.655.026-.09.056-.179.056-.277v-47.78zM602.108 387.792a6.084 6.084 0 0 0-3.646-1.208 6.175 6.175 0 0 0-6.167 6.167v47.78c0 .098.029.187.056.277a13.061 13.061 0 0 0 1.944-.655V392.75a4.171 4.171 0 0 1 4.167-4.167c1.136 0 2.199.456 2.995 1.282a.993.993 0 0 0 .721.303v-1.02c.001-.458-.024-.91-.07-1.356z"></path><g fill="#E2DCE3"><path d="m592.574 338.833 1.083 1.584h-6.958l-1.083-1.584z"></path><path d="m580.637 353.5 1.083 1.583 4.979-14.666-1.083-1.584zM582.137 380.688s.749 1.335 1.116 1.75 3.467-23.343 3.467-23.343l-1.501-1.136-3.082 22.729z"></path></g><path fill="#B5A8AE" d="m593.97 358.917 4.667-3.833-4.979-14.667H586.699l-4.979 14.667 4.667 3.833-3.167 23.333h.004c0 .007-.004.014-.004.021 0 .966 3.115 1.75 6.959 1.75 3.843 0 6.958-.784 6.958-1.75 0-.007-.004-.014-.004-.021h.004l-3.167-23.333z"></path><path fill="#92A6EB" d="m602.965 431.424 9.733-54.12 19.671 3.539-9.732 54.119z"></path><path fill="#6A74EF" d="m608.722 432.459 9.733-54.12 8.245 1.483-9.733 54.12z"></path><path fill="#F2D265" d="m612.698 377.294 13.269-17.567 6.403 21.104s-3.499 3.185-10.543 1.918c-7.046-1.267-9.129-5.455-9.129-5.455z"></path><path fill="#6A74EF" d="m627.945 366.248-1.979-6.521-4.103 5.431c.888.324 1.849.619 2.979.822 1.139.205 2.148.265 3.103.268z"></path><linearGradient id="U" x1="568.185" x2="635.047" y1="434.631" y2="434.631" gradientUnits="userSpaceOnUse"><stop offset="0" stop-color="#ea971d"></stop><stop offset="1" stop-color="#dc6734"></stop></linearGradient><path fill="url(#U)" d="M573.042 410.167s-6.416 43-4.5 46.5c3.607 6.589 36.584 10.416 47.5 8.333 7.896-1.507 11.334-6.833 11.334-6.833l7.671-54.475s-6.588 8.391-10.838 9.058-19.326 1.083-30.913.417-20.254-3-20.254-3z"></path><linearGradient id="V" x1="616.042" x2="635.047" y1="434.346" y2="434.346" gradientUnits="userSpaceOnUse"><stop offset="0" stop-color="#dc6734"></stop><stop offset="1" stop-color="#ae2e41"></stop></linearGradient><path fill="url(#V)" d="m627.376 458.167 7.671-54.475s-6.179 7.856-10.429 8.952l-.004.021c.012 6.418-5.572 47.667-8.572 52.334 7.896-1.506 11.334-6.832 11.334-6.832z"></path><path fill="#F2D265" d="m611.317 424.924-.008-1.5c2.033-.009 4.04-.061 5.967-.151l.07 1.498c-1.947.092-3.975.143-6.029.153zm-4.021-.033a179.96 179.96 0 0 1-6.023-.229l.082-1.498c2.017.111 4.026.188 5.973.228l-.032 1.499zm14.067-.377-.121-1.495c.733-.06 1.464-.125 2.188-.2.321-.144 1.435-.668 2.997-1.674l.813 1.262c-1.983 1.276-3.274 1.817-3.329 1.839l-.21.053c-.774.08-1.554.151-2.338.215zm-24.1-.117a190.49 190.49 0 0 1-6.001-.556l.162-1.491c1.971.214 3.974.399 5.954.552l-.115 1.495zm-9.992-1.033a155.603 155.603 0 0 1-5.966-.895l.252-1.479c1.864.318 3.853.616 5.909.886l-.195 1.488zm-9.926-1.642c-2.109-.441-4.857-1.101-5.976-1.731l.736-1.307c.721.407 2.794.994 5.546 1.57l-.306 1.468zm53.197-1.714-.945-1.165a41.034 41.034 0 0 0 4.29-4.033l1.103 1.017a42.605 42.605 0 0 1-4.448 4.181z"></path><linearGradient id="W" x1="629.34" x2="666.77" y1="425.7" y2="425.7" gradientUnits="userSpaceOnUse"><stop offset="0" stop-color="#dc6734"></stop><stop offset="1" stop-color="#ae2e41"></stop></linearGradient><path fill="url(#W)" d="M635.047 403.692c.662-.359 7.078-1.942 15.162-2.275s15.645-.553 16.489.599-5.989 39.651-7.489 41.651-6.083 6.583-14.416 6.583c-10.253 0-15.453-6.029-15.453-6.029l3.221-22.874 2.486-17.655z"></path><linearGradient id="X" x1="634.994" x2="666.76" y1="411.786" y2="411.786" gradientUnits="userSpaceOnUse"><stop offset="0" stop-color="#ea971d"></stop><stop offset="1" stop-color="#dc6734"></stop></linearGradient><path fill="url(#X)" d="M649.709 422.417c15.06-.338 16.683-18.024 17.051-20.044-.009-.173-.026-.309-.062-.357-.845-1.151-8.405-.932-16.489-.599s-14.5 1.917-15.162 2.275c-.257 1.828-.171 19.058 14.662 18.725z"></path><circle cx="650.709" cy="412.083" r="4.083" fill="#F2D265"></circle></svg>