<svg xmlns="http://www.w3.org/2000/svg" width="418" height="418"><defs><linearGradient id="a" x1="14.645%" x2="85.356%" y1="14.645%" y2="85.355%"><stop offset="0%" stop-color="#92A6EB"/><stop offset="100%" stop-color="#6A74EF"/></linearGradient><linearGradient id="b" x1="6.819%" x2="83.786%" y1="16.992%" y2="73.164%"><stop offset="0%" stop-color="#E9AA4A"/><stop offset="100%" stop-color="#EA971D"/></linearGradient><linearGradient id="c" x1="50%" x2="50%" y1="100%" y2="0%"><stop offset="0%" stop-color="#E9AA4A"/><stop offset="100%" stop-color="#F2D265"/></linearGradient><linearGradient id="d" x1="20.604%" x2="91.438%" y1="-9.224%" y2="108.94%"><stop offset="0%" stop-color="#E9AA4A"/><stop offset="100%" stop-color="#EA971D"/></linearGradient><linearGradient id="e" x1=".001%" x2="100%" y1="50%" y2="50%"><stop offset="0%" stop-color="#E9AA4A"/><stop offset="100%" stop-color="#EA971D"/></linearGradient><linearGradient id="f" x1=".001%" x2="100.001%" y1="50.002%" y2="50.002%"><stop offset="0%" stop-color="#DC6734"/><stop offset="100%" stop-color="#AE2E41"/></linearGradient><linearGradient id="g" x1="0%" x2="99.995%" y1="50%" y2="50%"><stop offset="0%" stop-color="#EAAEA4"/><stop offset="31.26%" stop-color="#E8A89D"/><stop offset="78.25%" stop-color="#E39688"/><stop offset="100%" stop-color="#E08C7C"/></linearGradient><linearGradient id="h" x1="-.001%" x2="100%" y1="50%" y2="50%"><stop offset="0%" stop-color="#DC6734"/><stop offset="100%" stop-color="#AE2E41"/></linearGradient><linearGradient id="i" x1="0%" x2="99.998%" y1="50.001%" y2="50.001%"><stop offset="0%" stop-color="#EAAEA4"/><stop offset="31.26%" stop-color="#E8A89D"/><stop offset="78.25%" stop-color="#E39688"/><stop offset="100%" stop-color="#E08C7C"/></linearGradient><linearGradient id="j" x1="50%" x2="50%" y1="100%" y2="0%"><stop offset="0%" stop-color="#250F52"/><stop offset="41.21%" stop-color="#2421A2"/><stop offset="100%" stop-color="#5C60D5"/></linearGradient><linearGradient id="k" x1=".002%" x2="100%" y1="49.999%" y2="49.999%"><stop offset="0%" stop-color="#92A6EB"/><stop offset="100%" stop-color="#6A74EF"/></linearGradient><linearGradient id="l" x1="-.001%" x2="99.999%" y1="50.005%" y2="50.005%"><stop offset="0%" stop-color="#92A6EB"/><stop offset="100%" stop-color="#6A74EF"/></linearGradient><linearGradient id="m" x1="16.417%" x2="75.394%" y1="21.5%" y2="79.114%"><stop offset="0%" stop-color="#5B252C"/><stop offset="100%" stop-color="#895E68"/></linearGradient><linearGradient id="n" x1="-.002%" x2="99.999%" y1="50%" y2="50%"><stop offset="0%" stop-color="#EAAEA4"/><stop offset="31.26%" stop-color="#E8A89D"/><stop offset="78.25%" stop-color="#E39688"/><stop offset="100%" stop-color="#E08C7C"/></linearGradient><linearGradient id="o" x1="23.611%" x2="76.44%" y1="14.249%" y2="91.027%"><stop offset="0%" stop-color="#895E68"/><stop offset="100%" stop-color="#5B252C"/></linearGradient><linearGradient id="p" x1="9.602%" x2="90.402%" y1="-3.81%" y2="100.65%"><stop offset="0%" stop-color="#DC6734"/><stop offset="100%" stop-color="#AE2E41"/></linearGradient><linearGradient id="q" x1="50%" x2="50%" y1="100%" y2="0%"><stop offset="0%" stop-color="#EAAEA4"/><stop offset="37.87%" stop-color="#E6A093"/><stop offset="100%" stop-color="#E08C7C"/></linearGradient><linearGradient id="r" x1="0%" x2="100%" y1="50.001%" y2="50.001%"><stop offset="0%" stop-color="#EAAEA4"/><stop offset="31.26%" stop-color="#E8A89D"/><stop offset="78.25%" stop-color="#E39688"/><stop offset="100%" stop-color="#E08C7C"/></linearGradient><linearGradient id="s" x1="0%" x2="100%" y1="50%" y2="50%"><stop offset="0%" stop-color="#5B252C"/><stop offset="100%" stop-color="#250F50"/></linearGradient><linearGradient id="t" x1="0%" x2="100.001%" y1="50%" y2="50%"><stop offset="0%" stop-color="#5B252C"/><stop offset="100%" stop-color="#250F50"/></linearGradient><linearGradient id="u" x1="-.004%" x2="99.999%" y1="49.999%" y2="49.999%"><stop offset="0%" stop-color="#EAAEA4"/><stop offset="31.26%" stop-color="#E8A89D"/><stop offset="78.25%" stop-color="#E39688"/><stop offset="100%" stop-color="#E08C7C"/></linearGradient><linearGradient id="v" x1="-.003%" x2="100.002%" y1="50.002%" y2="50.002%"><stop offset="0%" stop-color="#E25AB8"/><stop offset="100%" stop-color="#E8A69A"/></linearGradient><linearGradient id="w" x1="26.521%" x2="75.095%" y1="-11.223%" y2="93.062%"><stop offset="0%" stop-color="#5C60D5"/><stop offset="58.79%" stop-color="#2421A2"/><stop offset="100%" stop-color="#250F52"/></linearGradient><linearGradient id="x" x1="28.051%" x2="70.755%" y1="-.912%" y2="103.554%"><stop offset="0%" stop-color="#92A6EB"/><stop offset="100%" stop-color="#6A74EF"/></linearGradient><linearGradient id="y" x1="46.505%" x2="51.712%" y1="87.113%" y2="8.336%"><stop offset="0%" stop-color="#F2D265"/><stop offset="100%" stop-color="#EFEEEF"/></linearGradient><linearGradient id="z" x1="47.42%" x2="53.95%" y1="85.875%" y2="2.097%"><stop offset="0%" stop-color="#F2D265"/><stop offset="100%" stop-color="#EFEEEF"/></linearGradient><linearGradient id="A" x1="26.521%" x2="75.095%" y1="-11.223%" y2="93.062%"><stop offset="0%" stop-color="#EFEEEF"/><stop offset="100%" stop-color="#E3DDE4"/></linearGradient><linearGradient id="B" x1="0%" x2="99.999%" y1="50.001%" y2="50.001%"><stop offset="0%" stop-color="#EAAEA4"/><stop offset="31.26%" stop-color="#E8A89D"/><stop offset="78.25%" stop-color="#E39688"/><stop offset="100%" stop-color="#E08C7C"/></linearGradient><linearGradient id="C" x1="-.003%" x2="99.993%" y1="49.994%" y2="49.994%"><stop offset="0%" stop-color="#EAAEA4"/><stop offset="31.26%" stop-color="#E8A89D"/><stop offset="78.25%" stop-color="#E39688"/><stop offset="100%" stop-color="#E08C7C"/></linearGradient><linearGradient id="D" x1="50%" x2="50%" y1="99.997%" y2="-.001%"><stop offset="0%" stop-color="#724A5F"/><stop offset="100%" stop-color="#5B252C"/></linearGradient><linearGradient id="F" x1="0%" x2="99.998%" y1="49.997%" y2="49.997%"><stop offset="0%" stop-color="#5C60D5"/><stop offset="62.42%" stop-color="#2421A2"/><stop offset="100%" stop-color="#250F52"/></linearGradient><linearGradient id="H" x1=".002%" x2="100.003%" y1="50.003%" y2="50.003%"><stop offset="0%" stop-color="#2421A2"/><stop offset="100%" stop-color="#250F50"/></linearGradient><linearGradient id="I" x1="49.999%" x2="49.999%" y1="100%" y2=".001%"><stop offset="0%" stop-color="#DC6734"/><stop offset="100%" stop-color="#AE2E41"/></linearGradient><linearGradient id="J" x1=".003%" x2="193.431%" y1="50.002%" y2="50.002%"><stop offset="0%" stop-color="#EAAEA4"/><stop offset="54.12%" stop-color="#F6BCB4"/><stop offset="100%" stop-color="#FCC3BB"/></linearGradient><linearGradient id="K" x1="-93.433%" x2="99.996%" y1="50%" y2="50%"><stop offset="0%" stop-color="#FCC3BB"/><stop offset="45.88%" stop-color="#F6BCB4"/><stop offset="100%" stop-color="#EAAEA4"/></linearGradient><linearGradient id="L" x1="50.002%" x2="50.002%" y1="99.999%" y2="-67.948%"><stop offset="0%" stop-color="#EA971D"/><stop offset="100%" stop-color="#DC6734"/></linearGradient><linearGradient id="M" x1="10.708%" x2="89.294%" y1="-13.721%" y2="113.727%"><stop offset="0%" stop-color="#B5A8AE"/><stop offset="100%" stop-color="#93778B"/></linearGradient><linearGradient id="N" x1="50%" x2="50%" y1="99.998%" y2="0%"><stop offset="0%" stop-color="#2421A2"/><stop offset="100%" stop-color="#5C60D5"/></linearGradient><linearGradient id="O" x1="50.005%" x2="50.005%" y1="99.995%" y2="0%"><stop offset="0%" stop-color="#FCC3BB"/><stop offset="22.81%" stop-color="#F9BCB4"/><stop offset="57.18%" stop-color="#EFAA9F"/><stop offset="98.66%" stop-color="#E18D7D"/><stop offset="100%" stop-color="#E08C7C"/></linearGradient><linearGradient id="P" x1="49.995%" x2="49.995%" y1="100%" y2="-16.93%"><stop offset="0%" stop-color="#FCC3BB"/><stop offset="45.88%" stop-color="#F6BCB4"/><stop offset="100%" stop-color="#EAAEA4"/></linearGradient><linearGradient id="Q" x1="49.997%" x2="49.997%" y1="100.001%" y2=".003%"><stop offset="0%" stop-color="#E25AB8"/><stop offset="100%" stop-color="#F6BCB4"/></linearGradient><linearGradient id="R" x1="0%" x2="100%" y1="49.999%" y2="49.999%"><stop offset="0%" stop-color="#B39057"/><stop offset="100%" stop-color="#DCBB60"/></linearGradient><linearGradient id="S" x1="0%" x2="100%" y1="50%" y2="50%"><stop offset="0%" stop-color="#EA971D"/><stop offset="100%" stop-color="#E9AA4A"/></linearGradient><linearGradient id="T" x1="0%" x2="100%" y1="50%" y2="50%"><stop offset="0%" stop-color="#2421A2"/><stop offset="100%" stop-color="#250F50"/></linearGradient><linearGradient id="U" x1="0%" x2="100%" y1="50.001%" y2="50.001%"><stop offset="0%" stop-color="#B39057"/><stop offset="100%" stop-color="#DCBB60"/></linearGradient><linearGradient id="V" x1="32.274%" x2="74.756%" y1="22.425%" y2="77.83%"><stop offset="0%" stop-color="#F2D265"/><stop offset="100%" stop-color="#DCBB60"/></linearGradient><linearGradient id="W" x1="18.799%" x2="88.972%" y1="23.99%" y2="65.559%"><stop offset="0%" stop-color="#EA971D"/><stop offset="100%" stop-color="#BE4118"/></linearGradient><linearGradient id="X" x1=".001%" x2="100%" y1="50%" y2="50%"><stop offset="0%" stop-color="#E3DDE4"/><stop offset="100%" stop-color="#EFEEEF"/></linearGradient><linearGradient id="Y" x1="-.001%" x2="99.997%" y1="50.002%" y2="50.002%"><stop offset="0%" stop-color="#E08C7C"/><stop offset="100%" stop-color="#E25AB8"/></linearGradient><linearGradient id="Z" x1=".002%" x2="100.002%" y1="50.001%" y2="50.001%"><stop offset="0%" stop-color="#EAAEA4"/><stop offset="31.26%" stop-color="#E8A89D"/><stop offset="78.25%" stop-color="#E39688"/><stop offset="100%" stop-color="#E08C7C"/></linearGradient><linearGradient id="aa" x1=".003%" x2="99.999%" y1="50%" y2="50%"><stop offset="0%" stop-color="#5C60D5"/><stop offset="62.42%" stop-color="#2421A2"/><stop offset="100%" stop-color="#250F52"/></linearGradient><linearGradient id="ab" x1=".002%" x2="100.003%" y1="50%" y2="50%"><stop offset="0%" stop-color="#EAAEA4"/><stop offset="31.26%" stop-color="#E8A89D"/><stop offset="78.25%" stop-color="#E39688"/><stop offset="100%" stop-color="#E08C7C"/></linearGradient><linearGradient id="ac" x1="0%" x2="100%" y1="49.999%" y2="49.999%"><stop offset="0%" stop-color="#AE2E41"/><stop offset="100%" stop-color="#5B252C"/></linearGradient><linearGradient id="ad" x1="64.12%" x2="33.791%" y1="-.648%" y2="101.089%"><stop offset="0%" stop-color="#895E68"/><stop offset="100%" stop-color="#5B252C"/></linearGradient><linearGradient id="ae" x1="0%" x2="100%" y1="50%" y2="50%"><stop offset="0%" stop-color="#EAAEA4"/><stop offset="31.26%" stop-color="#E8A89D"/><stop offset="78.25%" stop-color="#E39688"/><stop offset="100%" stop-color="#E08C7C"/></linearGradient><linearGradient id="af" x1=".003%" x2="100.003%" y1="50.002%" y2="50.002%"><stop offset="0%" stop-color="#AE2E41"/><stop offset="100%" stop-color="#5B252C"/></linearGradient><linearGradient id="ag" x1="-19.643%" x2="125.103%" y1="13.793%" y2="83.296%"><stop offset="0%" stop-color="#895E68"/><stop offset="100%" stop-color="#5B252C"/></linearGradient><linearGradient id="ah" x1="15.367%" x2="87.858%" y1="10.101%" y2="86.401%"><stop offset="0%" stop-color="#5C60D5"/><stop offset="100%" stop-color="#2421A2"/></linearGradient><linearGradient id="ai" x1="32.147%" x2="75.791%" y1="-2.541%" y2="81.957%"><stop offset="0%" stop-color="#5C60D5"/><stop offset="100%" stop-color="#2421A2"/></linearGradient><linearGradient id="aj" x1="13.453%" x2="94.366%" y1="27.454%" y2="82.724%"><stop offset="0%" stop-color="#EA971D"/><stop offset="100%" stop-color="#BE4118"/></linearGradient><linearGradient id="ak" x1=".002%" x2="100%" y1="49.998%" y2="49.998%"><stop offset="0%" stop-color="#FCC3BB"/><stop offset="45.88%" stop-color="#F6BCB4"/><stop offset="100%" stop-color="#EAAEA4"/></linearGradient><linearGradient id="al" x1="32.1%" x2="64.195%" y1="32.616%" y2="62.359%"><stop offset="0%" stop-color="#EA971D"/><stop offset="100%" stop-color="#BE4118"/></linearGradient><radialGradient id="E" cx="25.78%" cy="12.963%" r="89.671%" fx="25.78%" fy="12.963%" gradientTransform="matrix(1 0 0 .41818 0 .075)"><stop offset="0%" stop-color="#E08D7D"/><stop offset="3.49%" stop-color="#E49587"/><stop offset="13.71%" stop-color="#EFAA9E"/><stop offset="24.69%" stop-color="#F6B8AE"/><stop offset="36.89%" stop-color="#FBC0B8"/><stop offset="52.73%" stop-color="#FCC3BB"/><stop offset="100%" stop-color="#EAAEA4"/></radialGradient><radialGradient id="G" cx="63.146%" cy="14.323%" r="116.56%" fx="63.146%" fy="14.323%" gradientTransform="matrix(1 0 0 .31452 0 .098)"><stop offset="0%" stop-color="#E08D7D"/><stop offset="6.54%" stop-color="#E39688"/><stop offset="21.9%" stop-color="#E8A89D"/><stop offset="32.12%" stop-color="#EAAEA4"/><stop offset="68.85%" stop-color="#F6BCB4"/><stop offset="100%" stop-color="#FCC3BB"/></radialGradient></defs><g fill="none" fill-rule="evenodd"><g transform="translate(66 82)"><circle cx="130.697" cy="130.303" r="130.303" fill="url(#a)"/><path fill="#5C60D5" d="M159.73 75.215c8.119-.37 20.407 1.084 21.848 7.602 1.55 7.012-3.617 8.932.886 12.475 4.222 3.322 15.87-3.691 26.72-2.88 8.835.662 18.6 6.644 20.667 16.682 2.067 10.039 2.067 11.81 6.496 13.73 4.428 1.919 4.91 7.827 4.576 11.662-.492 5.66 4.07 11.21 3.838 19.043-.393 13.287-8.597 21.283-21.258 29.673-12.4 8.217-12.891 10.777-13.138 19.191-.16 5.492-.886 14.763-12.696 19.044-11.81 4.28-21.962 5.547-27.015 9.3-6.692 4.97-2.953 12.696-6.643 14.32-3.69 1.623-9.715-2.99-9.596-12.844.1-8.218 9.252-9.595 8.71-17.567-.618-9.082-14.128-6.066-13.434-16.682.493-7.528 9.367-12.812 14.615-16.386 9.104-6.2 10.089-20.47.295-20.667-12.454-.25-30.115 5.757-47.24 2.214-17.124-3.543-24.19-17.559-23.324-31.001.738-11.466 8.837-19.689 16.238-24.653 7.924-5.315 14.025-4.823 18.306-9.744 4.922-5.658 3.713-11.755 9.448-16.534 3.986-3.321 10.988-5.491 21.7-5.978Z"/><path fill="url(#b)" d="M160.317 80.217c5.573-.32 14.009.938 14.996 6.577 1.065 6.068-2.045 12.261.261 15.953 4.921 7.873 25.707-1.858 33.155-1.155 6.065.572 12.767 5.747 14.185 14.432 1.418 8.685 1.29 10.479 4.459 11.878 4.1 1.81 4.298 6.534 3.14 10.09-1.519 4.667 3.126 12.092 2.386 19.453-1.15 11.44-12.025 16.186-20.714 23.444-8.512 7.11-7.79 10.05-7.96 17.33-.111 4.751-.196 13.855-8.715 16.477-15.508 4.772-27.22 11.267-29.68 14.909-3.522 5.214.369 10.256-2.165 11.662-2.533 1.405-7.27-1.883-5.56-10.235 1.828-8.932 14.066-15.316 13.694-22.212-.424-7.857-9.697-5.248-9.22-14.433.338-6.513 6.43-11.084 10.03-14.176 6.25-5.365 9.706-18.268 1.291-24.173-8.415-5.905-30.91 3.3-42.665.235-11.753-3.065-16.604-15.191-16.01-26.821.507-9.92 6.066-17.034 11.146-21.329 5.439-4.599 9.627-4.172 12.565-8.43 3.379-4.895 2.548-10.17 6.484-14.304 2.738-2.873 7.545-4.75 14.897-5.172Z"/><path fill="#5C60D5" d="M32.477 59.444c14.14-8.677 39.616-3.771 43.303-12.991 1.575-3.937-5.043-9.563-6.889-12.007-6.224-8.24-.197-12.302 10.432-12.892 17.056-.947 36.44 4.111 53.932.295 10.826-2.362 14.179-12.946 21.062-11.81 7.602 1.255 3.543 9.842 10.038 12.007 6.495 2.164 13.893-3.624 18.896-.197 5.388 3.69 18.65 19.535 30.706 17.715 2.661-.402 4.231-3.47 2.88-7.02C193.873 12.294 163.723 0 130.697 0 73.346 0 24.649 37.051 7.237 88.522c3.093-8.06 10.565-20.073 25.24-29.078Z"/><path fill="url(#c)" d="M28.344 56.491c14.139-8.677 35.135-8.144 37.595-15.55 1.053-3.167-1.181-5.973-3.027-8.416-6.224-8.24 5.364-13.334 15.862-15.165 16.828-2.936 38.651-3.091 49.66-6.435 7.774-2.362 20.427-8.37 27.31-7.234 7.602 1.255 5.606 10.47 12.101 12.634 6.496 2.165 10.723-3.734 15.726-.307 5.388 3.69 15.87 19.265 27.926 17.444 2.661-.402 3.124-2.84 1.991-3.772C190.977 11.143 162.14 0 130.697 0 73.346 0 24.649 37.051 7.237 88.522c3.093-8.06 6.431-23.025 21.107-32.03Z"/><path fill="#5C60D5" d="M221.289 51.816c-8.12 3.1-17.863.738-20.372-5.167-2.51-5.905-7.012-12.105-14.024-11.22-4.42.56-6.183 3.407-6.89 5.512-1.236 3.685-.395 7.058-11.12 6.79-11.737-.292-17.863-1.672-28.061 4.227-8.973 5.191-9.828 13.416-7.763 17.228 2.903 5.364 10.137 6.791 18.502 3.051 8.365-3.74 15.18-12.375 23.62-13.581 6.535-.934 13.288 1.808 9.645 8.365-2.215 3.986-3.543 6.939-1.673 9.94 2.446 3.927 14.172 2.559 24.112 0 9.94-2.558 22.438-3.641 25.784 3.051 3.347 6.693-.787 22.538 3.347 31.002 4.133 8.463 12.204 9.94 16.337 10.629 2.881.48 6 .963 8.159 3.576-1.225-31.897-13.907-60.854-34.059-82.868.212 3.625-.8 7.654-5.544 9.465Z"/><path fill="url(#d)" d="M222.691 55.212c-6.643 3.543-18.64 2.811-23.004-3.642-3.716-5.494-7.324-10.296-14.042-8.1-5.117 1.673-4.58 6.826-15.286 7.51-9.251.59-11.81-1.28-21.75 3.444-10.885 5.173-7.38 17.616.984 13.877 8.365-3.74 20.397-12.573 28.836-13.779 6.534-.933 15.846 1.809 12.203 8.366-2.214 3.986-1.919 6.249.099 8.267 2.263 2.263 9.054.886 18.994-1.673s26.188-3.282 30.732 6.36c4.747 10.075-4.783 22.496-.814 31.038 4.528 9.743 20.15 5.129 19.381.749-4.37-24.912-15.814-47.388-32.19-65.279 2.28 4.595.338 10.472-4.143 12.862Z"/><path fill="#5C60D5" d="M48.42 219.665c-2.361-4.724-5.782-9.563-4.133-16.435 2.362-9.841 18.306-15.452 17.519-36.512-.788-21.061-21.357-26.278-31.69-38.383-6.959-8.152-9.055-24.911-15.747-24.997-5.69-.074-10.657 8.67-13.53 16.2a131.98 131.98 0 0 0-.446 10.765c0 40.705 18.669 77.046 47.906 100.941 2.767-2.673 1.883-8.055.122-11.579Z"/><path fill="url(#e)" d="M41.778 218.558c-3.412-4.032-7.997-8.456-6.348-15.328 2.362-9.841 18.305-15.452 17.518-36.512-.787-21.061-15.451-19.782-25.785-31.887-6.959-8.152-9.055-24.912-15.747-24.998C5.727 109.76.638 122.247.566 123.611a130.34 130.34 0 0 0-.173 6.692c0 38.403 16.617 72.922 43.049 96.77 2.47-.765.772-5.636-1.664-8.515Z"/></g><path fill="url(#f)" d="M.189 21.277c-.684 2.26 2.59 3.285 7.045 3.698 4.94.458 16.697-2.559 16.964-3.779.264-1.205.218-2.497.166-4.135-1.198.397-2.591.696-4.633 1.145-2.63.579-4.668.939-5.261.496-.375-.28-.864-1.718-1.994-2.74C7.394 18.413.834 19.15.189 21.278Z" transform="translate(307 383.877)"/><path fill="#EA971D" d="M315.595 407.633c-.346 0-.671-.012-.973-.036-4.63-.378-7.05-1.344-7.395-2.953a.291.291 0 1 1 .568-.123c.193.897 1.542 2.059 6.873 2.494 4.494.362 15.009-2.318 16.52-3.64a.292.292 0 0 1 .381.44c-1.503 1.317-10.908 3.818-15.974 3.818Z"/><path fill="url(#g)" d="M14.47 18.702c.594.444 2.631.083 5.261-.496 2.042-.45 3.436-.748 4.634-1.145-.037-1.127-.075-2.418-.018-3.963.155-4.23.58-9.997.58-9.997L17.078.284c.22 2.708 1.749 10.628-.907 13.216-1.018.992-2.3 1.791-3.694 2.463 1.13 1.02 1.62 2.46 1.994 2.74Z" transform="translate(307 383.877)"/><path fill="url(#h)" d="M2.663 21.312c.167 1.278 12.154 5.445 17.348 5.422 4.684-.02 8.192-.778 7.685-3.163-.46-2.16-6.501-4.079-11.376-7.115-1.926.79-2.774 2.864-3.284 3.174-.659.401-3.828-.021-6.29-1.38-2.093-1.156-3.094-1.833-3.844-2.365H2.9c-.112 2.253-.439 3.89-.238 5.427Z" transform="translate(357 386.89)"/><path fill="#EA971D" d="m377.008 412.3-.287-.002c-4.955-.033-15.784-3.832-17.331-5.423a.299.299 0 0 1 .008-.426.307.307 0 0 1 .43.009c1.456 1.496 12.175 5.207 16.897 5.238h.28c5.37 0 6.838-1.05 7.116-1.94a.304.304 0 0 1 .581.177c-.496 1.591-3.014 2.366-7.694 2.366Z"/><path fill="url(#i)" d="M6.746 18.25c2.462 1.359 5.631 1.781 6.29 1.38.51-.31 1.357-2.385 3.284-3.174-1.581-.985-3.04-2.087-4.146-3.353-2.533-2.9-3.196-9.79-3.5-12.576L.228 2.711s2.417 6.113 2.663 10.242c.065 1.092.053 2.057.01 2.932.751.532 1.753 1.21 3.845 2.365Z" transform="translate(357 386.89)"/><path fill="url(#j)" d="M40.038 2.572c.174 2.699 2.417 36.606 3.287 45.412.87 8.806 3.289 22.855 3.385 29.186a990.1 990.1 0 0 1 .092 11.403c.005 1.728-2.848 2.646-5.677 3.092-2.829.445-6.043.862-6.493-.93-.972-3.867-2.585-10.534-3.081-14.084-.725-5.194-4.715-21.445-6.02-29.533-1.306-8.088-3.844-18.402-3.844-18.402S17.6 44.521 16.344 55.503c-1.258 10.982-1.451 18.303-1.742 22.855-.177 2.781-.607 7.077-.915 9.997-.195 1.86-3.363 2.023-6.772 1.95-3.41-.075-5.332.033-5.462-1.978C1.062 82.255.266 69.045.193 60.944.097 50.161 3.806 8.99 5.094 3.16c1.288-5.83 34.944-.587 34.944-.587Z" transform="translate(322 295.516)"/><path fill="#6A74EF" d="m331.995 384.224-.87-.028c.004-.124.414-12.674 3.5-32.8 2.87-18.703 6.89-30.116 7.73-31.94l.787.38c-.83 1.8-4.804 13.1-7.656 31.698-3.08 20.072-3.488 32.566-3.49 32.69ZM366.007 385.542a.44.44 0 0 1-.435-.423c-.005-.096-.5-9.833-1.646-19.304-1.003-8.295-2.717-18.292-3.741-24.266l-.414-2.425c-.36-2.13-.825-8.458-1.363-15.787-.774-10.555-1.652-22.518-2.5-25.92a.446.446 0 0 1 .314-.542c.234-.06.471.083.53.321.866 3.478 1.747 15.484 2.524 26.075.536 7.306 1 13.615 1.352 15.7l.414 2.424c1.026 5.982 2.742 15.993 3.748 24.31 1.149 9.503 1.646 19.27 1.652 19.369a.442.442 0 0 1-.413.467l-.022.001Z"/><path fill="#6A74EF" d="M357.842 310.715a.425.425 0 0 1-.206-.054c-6.545-3.613-6.902-10.957-6.752-13.947a.453.453 0 0 1 .456-.422c.24.013.425.222.413.467-.142 2.822.187 9.746 6.297 13.119.211.116.29.386.177.604a.435.435 0 0 1-.385.233ZM325.848 307.014c1.003-.259 1.904-.834 2.611-1.605.712-.77 1.237-1.716 1.626-2.715.77-2.013 1.035-4.217 1.107-6.402v-.003a.44.44 0 0 1 .45-.43c.24.008.428.214.42.46v.01c-.123 2.246-.437 4.524-1.301 6.649-.436 1.054-1.024 2.067-1.827 2.9-.795.834-1.826 1.462-2.942 1.721l-.006.002a.295.295 0 0 1-.354-.227.302.302 0 0 1 .216-.36Z"/><path fill="url(#k)" d="M41.56 93.569c2.829-.445 5.247-2.152 5.247-2.152s-.001-1.942-.009-4.056c-3.712 3.112-9.807 3.067-12.38 2.52.436 1.73.977 3.836.977 3.836s3.336.297 6.165-.148Z" transform="translate(322 295.516)"/><path fill="url(#l)" d="M1.409 87.636c.154 2.414.26 3.93.26 3.93s1.74 1.187 5.149 1.261c3.409.074 6.528-1.31 6.528-1.31s.173-1.542.394-3.662c-5.175 1.679-9.908.647-12.331-.219Z" transform="translate(322 295.516)"/><path fill="#2421A2" d="M342.204 315.53c.275.835.391 1.578.555 2.363l.433 2.323c.282 1.547.542 3.101.85 4.633l.001.003a.204.204 0 0 1-.156.243.2.2 0 0 1-.235-.15c-.389-1.532-.723-3.065-1.082-4.594l-.545-2.288c-.191-.744-.376-1.55-.627-2.194l-.011-.03a.449.449 0 0 1 .243-.58.432.432 0 0 1 .565.25l.009.022Z"/><path fill="url(#m)" d="M19.652 46.568c-2.52 5.23-6.633 7.312-9.849 8.101 4.232 6.338 8.365 11.976 8.84 13.165.951 2.375 11.93-9.434 11.93-9.434-1.619-.855-6.947-6.746-10.921-11.832Z" transform="translate(314 192.094)"/><path fill="url(#n)" d="M19.652 46.568c-.244-.311-.483-.621-.716-.925-4.02-5.27-8.115-9.574-9.066-14.324C8.92 26.57 6.726 7.57 7.458 6.902c.73-.668 3.363-2.078 3.948-4.676C11.99-.37 2.85.148 2.85.148S2.077 1.89 1.535 6.605C.994 11.321-.725 32.428.365 37.331c.89 3.991 5.213 11.013 9.438 17.338 3.216-.789 7.329-2.872 9.849-8.101Z" transform="translate(314 192.094)"/><path fill="#EA971D" d="M325.22 249.225c-.04 0-.077-.002-.108-.005a.445.445 0 0 1-.39-.49.444.444 0 0 1 .484-.396c.92.1 7.737-1.711 9.981-7.415a.436.436 0 0 1 .57-.248c.226.09.335.35.245.579-2.388 6.069-9.404 7.975-10.781 7.975Z"/><path fill="url(#o)" d="M39.744 32.628c.54-4.852 1.411-9.1 2.803-11.279 1.753-2.741 5.716-6.548 9.99-10.505C48.76 7.838 47.074 3.127 46.522.498c-3.426 2.157-6.944 4.053-9.323 5.195-4.907 2.356-10.742 4.55-13.937 4.515-1.888-.02-2.033-1.695-5.01-3.003-4.412.157-11.095 4.665-12.757 7.904-1.092 4.487-1.617 9.476-2.438 15.195 2.245 1.426 18.206 7.199 36.688 2.324Z" transform="translate(326 242.3)"/><path fill="url(#p)" d="M.442 57.422s5.64 2.488 16.857 3.165c13.397.81 21.715-2.723 21.715-2.723s-.497-14.185.73-25.236c-18.482 4.874-34.443-.898-36.688-2.324l-.406 2.824C.589 47.41.442 57.422.442 57.422Z" transform="translate(326 242.3)"/><path fill="#EA971D" d="M350.629 274.939c-12.424 0-20.153-3.392-21.488-4.369a.442.442 0 0 1 .521-.713c.108.078 13.075 7.405 36.25 2.565a.443.443 0 0 1 .18.865c-5.728 1.196-10.911 1.652-15.463 1.652ZM376.413 255.566a.434.434 0 0 1-.21-.054c-5.385-2.938-6.344-11.231-6.352-11.314a.442.442 0 0 1 .88-.077c.145 1.641 1.569 8.254 5.895 10.615a.442.442 0 0 1-.213.83ZM350.19 261.256c-.183 0-.368-.004-.556-.012-3.283-.15-5.656-1.445-7.053-3.85-2.12-3.653-1.227-8.9-.751-9.83a.442.442 0 1 1 .787.404c-.3.585-1.287 5.51.729 8.982 1.236 2.13 3.365 3.277 6.328 3.412 2.454.105 4.478-.571 6.009-2.03 3.215-3.061 3.27-8.578 3.27-8.633 0-.244.198-.44.441-.44h.001c.244 0 .441.198.44.442 0 .24-.052 5.942-3.539 9.268-1.594 1.518-3.645 2.287-6.106 2.287Z"/><path fill="url(#q)" d="M22.23 20.648c-.295 2.164-3.334 15.279-4.304 17.711-.796 1.997-3.926 6.078-8.778 5.597-6.787-.671-5.68-8.358-5.68-8.358s2.286.075 4.573-7.015c2.078-6.444 14.19-7.935 14.19-7.935Z" transform="translate(339 215.189)"/><path fill="url(#r)" d="M10.697 4.18C9.369 5.596-3.645 19.632 5.902 25.821 18.222 33.807 27 13.732 27 13.732S24.27 6.492 19.107 5c-5.164-1.492-8.41-.82-8.41-.82Z" transform="translate(339 215.189)"/><path fill="url(#s)" d="M27.197 13.582c-.295 3.334-2.606 4.976-4.967 7.066-2.36 2.09-.984 7.114-8.164 9.005-7.391 1.946-13.77-3.197-13.77-6.07 0-1.863 1.438-1.866 2.397-4.851.327-1.019 3.603-2.656 7.008-1.456 4.02 1.418 3.394 6.381 6.234 6.456 2.266.06 3.393-3.781 4.525-4.826 1.131-1.045 4.385-2.154 4.425-5.82l2.312.496Z" transform="translate(339 215.189)"/><path fill="#724A5F" d="M353.326 229.112c.354-.37.739-.483 1.162-.567a2.017 2.017 0 0 1 1.32.211c.427.238.725.663.85 1.081.129.42.15.834.09 1.225a.301.301 0 0 1-.341.255.302.302 0 0 1-.247-.229l-.002-.008c-.08-.34-.166-.66-.295-.925-.138-.26-.297-.457-.511-.572-.21-.124-.485-.172-.783-.175a2.505 2.505 0 0 0-.855.154l-.068.029a.29.29 0 0 1-.381-.162.3.3 0 0 1 .06-.317ZM345.548 226.72c.31-.341.635-.451 1.003-.544a1.787 1.787 0 0 1 1.157.116c.39.173.656.534.81.877.14.355.194.712.18 1.057a.3.3 0 0 1-.31.289.3.3 0 0 1-.275-.219l-.001-.007c-.082-.288-.166-.561-.29-.786a1.103 1.103 0 0 0-.46-.488c-.188-.103-.432-.122-.689-.1-.243.024-.55.119-.7.219l-.047.033a.291.291 0 0 1-.406-.083.299.299 0 0 1 .028-.364Z"/><path fill="#EFEEEF" d="M344.713 235.547c.582.243 2.893.714 4.726.91-.193.804-1.402 2.165-2.914 1.941-1.956-.29-1.812-2.851-1.812-2.851Z"/><path fill="url(#t)" d="M34.18 10.498c-2.783-.68-3.885 2.736-4.82 2.438-.934-.299.615-3.321-1.549-7.152-2.163-3.83-6.983-5.386-9.737-5.485-2.755-.1-3.236.16-4.304.348-1.263.222-3.291-1.27-4.869.1-1.119.97-1.918 3.482 1.87 5.721 3.787 2.24 8.82 1.36 11.262 2.538 1.905.92 2.938 2.972 2.804 4.768-.116 1.555-1.772 3.838-1.904 4.908-.334 1.344-.086 2.012-.877 2.966-.259 1.338-.747 3.565-1.306 5.975 1.474-.146 4.081-2.774 5.382-5.581 1.409-3.037 1.413-5.89 2.343-6.022 1.66-.236 1.55 2.413 3.394 2.488 1.009.04 2.682-1.11 3.54-2.761 1.072-2.062.554-4.814-1.23-5.25Z" transform="translate(339 215.189)"/><path fill="url(#u)" d="M24.54 18.589c-.714.69-1.508 1.35-2.31 2.059-.829.733-1.197 1.83-1.637 3.026 2.901 1.782 6.642-1.717 6.26-3.872-.16-.9-1.212-1.185-2.313-1.213Z" transform="translate(339 215.189)"/><path fill="url(#v)" d="M12.098 11.095c-.75-.379-6.203 4.366-6.14 5.866.055 1.285 3.758 1.107 4.26.531.504-.575 2.47-6.098 1.88-6.397Z" transform="translate(339 215.189)"/><path fill="url(#w)" d="M2.29 22.686 31.852 1.2l68.858 15.347-27.693 31.654z" transform="translate(315 169)"/><path fill="#EEC059" d="M397.078 204.85s-3.438-5.624-16.533-7.95c-13.323-2.365-24.872 3.15-26.042 5.4l33.65 12.6 8.925-10.05Z"/><path fill="url(#x)" d="M38.186 15.75c10.08-1.06 24.58 4.125 30.944-4.575a42.31 42.31 0 0 0 1.01-1.442L31.853 1.2 2.29 22.686l19.27 6.951.021-2.562c.188-1.781 5.194-10.125 16.606-11.325Z" transform="translate(315 169)"/><path fill="url(#y)" d="M64.668 20.1c-.023-.455 1.17-1.275 3.145-1.125 1.975.15 3.292.75 4.024.525.731-.225.731-2.025 2.999-1.5 2.268.525 6.145 3.9 7.754 3.675 1.61-.225 1.39-1.65 3.219-1.2 1.829.45 4.17 3.075 6.73 2.55 2.56-.525-4.316 5.325-4.316 5.325s-1.756 1.65-7.462-1.125c-5.706-2.775-7.534-4.725-9.875-5.025-2.341-.3-6.145-.6-6.218-2.1Z" transform="translate(315 169)"/><path fill="url(#z)" d="M22.678 16.35c.114-.364.95-.975 2.048-.825 1.097.15 1.61.975 2.633.75 1.025-.225 3-2.025 4.975-1.35 1.975.675 1.317 2.55 2.194 3 .878.45 3.073.45 4.61 1.2 1.535.75 2.706 2.55 1.682 3.525-1.025.975-4.731.714-8.56-1.425-3.827-2.139-10.24-2.775-9.582-4.875Z" transform="translate(315 169)"/><path fill="#EA971D" d="M361.891 205.9c.93-1.787 8.925-7.2 20.044-5.1 8.141 1.538 10.827 8.026 10.827 8.026l-4.782 6.276-26.089-9.201Z"/><path fill="url(#A)" fill-rule="nonzero" d="M31.017.2.195 22.6l73.739 26.6 28.87-33L31.018.2Zm41.52 43.409L10.285 21.152 32.04 5.34l61.905 13.798-21.408 24.47Z" transform="translate(315 169)"/><path fill="url(#B)" d="M20.29 44.981c4.483-6.4 10.55-25.552 11.23-27.949.508-1.787 4.24-4.394 5.75-7.75 1.51-3.357.2-8.745-.549-8.745-.792 0-.465 1.677-.808 1.717C35.625.778 35.096.148 34.638.518c-.548.445-.438 1.87-.681 2.148-.232-1.203-.701-1.8-1.195-1.466-.532.359-.808 3.118-1.175 3.854-.292-.704-.767-1.407-1.187-1-.383.37-.055 1.185-.097 2.265-.031.79-.18 2.719-.18 2.719s-3.035 1.452-3.523 3.328-.195 3.135-1.17 5.406c-.973 2.27-11.034 17.847-15.784 23.5-1.938 2.306-5.448 4.908-9.063 7.214.549 2.646 2.223 7.384 5.973 10.407 5.343-5.01 11.176-10.26 13.734-13.912Z" transform="translate(372 195.107)"/><path fill="#9B6D6D" d="M403.703 200.112c.251.54.354 1.125.42 1.704.03.29.045.584.042.88a3.98 3.98 0 0 1-.097.915.293.293 0 1 1-.558-.176c.08-.223.126-.5.156-.769.03-.272.042-.55.04-.827-.006-.553-.051-1.116-.233-1.63a.127.127 0 0 1 .076-.162.125.125 0 0 1 .154.065ZM406.191 197.518c.165.87.242 1.742.284 2.623.017.44.024.882.002 1.328-.024.446-.062.895-.195 1.358a.292.292 0 0 1-.362.202.297.297 0 0 1-.2-.367l.006-.017.002-.005c.13-.368.197-.79.243-1.21.045-.423.065-.852.072-1.283.01-.86-.015-1.732-.126-2.581v-.003a.139.139 0 0 1 .275-.045ZM407.984 196.963c.166.695.261 1.388.332 2.093.062.705.104 1.414-.002 2.154a.293.293 0 0 1-.332.25.297.297 0 0 1-.243-.356v-.006c.14-.635.156-1.332.142-2.016a15.42 15.42 0 0 0-.177-2.056l-.001-.005a.145.145 0 0 1 .118-.167.145.145 0 0 1 .163.11Z"/><path fill="url(#C)" d="M.092 8.878C.107 8.182-.138 5.776.844 5c.296-.233.79-.201.79-.201s-.05-1.644.772-2.118c.85-.49 1.985-.348 1.985-.348s.128-1.101.737-1.285c.61-.183 2.06.006 2.06.006s.145-.63.813-.678C9.33.28 12.395 2.01 11.829 2.641c-.48.536-2.116.336-2.116.336s.866 1.101.32 1.376c-.544.276-1.747.01-1.747.01s.829.827.28 1.253c-.518.404-3.434-.188-3.434-.188s1.375.413.798.985c-.517.512-2.411.106-4.195 1.312C.564 8.515.092 8.878.092 8.878Z" transform="translate(316 182.053)"/><path fill="#9B6D6D" d="M325.695 185.222c-.382-.457-.787-.872-1.27-1.19a4.365 4.365 0 0 0-1.572-.658.303.303 0 0 1-.244-.357.316.316 0 0 1 .407-.225 4.868 4.868 0 0 1 1.684.904c.488.396.874.888 1.204 1.377l.003.005a.12.12 0 0 1-.04.171.134.134 0 0 1-.172-.027ZM320.047 184.067c.458.027.867.15 1.264.282.396.136.777.3 1.146.486.725.382 1.443.836 1.926 1.515a.11.11 0 0 1-.032.16.125.125 0 0 1-.161-.024l-.003-.004c-.487-.58-1.204-.966-1.921-1.272a8.648 8.648 0 0 0-1.117-.376c-.377-.096-.764-.174-1.12-.164a.31.31 0 0 1-.325-.294.308.308 0 0 1 .334-.309h.01ZM317.437 186.572c1.461.088 2.934.353 4.248.993.07.033.097.115.062.182-.034.062-.116.088-.183.062-1.303-.513-2.738-.66-4.138-.635a.31.31 0 0 1-.325-.293.308.308 0 0 1 .308-.31h.028Z"/><path fill="url(#D)" d="M58.586 16.47c.08-.1 1.926-2.447.486-4.158-1.898-2.257-7.817.685-10.36-.09-2.123-.648-.94-2.73-.671-4.86.441-3.511-1.23-6.456-4.492-7.057-5.627-1.038-8.715 3.193-13.14 3.378-4.422.185-9.64-5.462-15.218-2.707-4.358 2.152-2.012 7.983-3.553 10.412-1.542 2.43-8.533 1.76-10.459 3.194-1.05.782-.822 2.384-.165 3.116 4.646 4.207 17.694 5.075 29.127 5.075 11.657 0 24.08-2.398 28.445-6.302Z" transform="translate(187 89.563)"/><path fill="url(#E)" d="M1.344 11.403c1.97 9.354 5.769 16.067 9.782 24.685 3.334 7.158 6.834 13.757 8.285 18.628 1.63 5.47-2.071 10.805-1.543 13.066.529 2.26 5.308-3.651 7.688-7.178 2.38-3.526 3.913-7.834 3.201-8.823-.776-1.078-3.007-1.314-4.807-4.073-3.217-4.928-4.252-15.436-6.39-24.73-1.635-7.11-2.773-16.512-6.102-19.65C8.129.192 6.323.01 4.12.825.994 1.98.55 6.612.55 6.612l.794 4.791Z" transform="translate(197 86.544)"/><path fill="url(#F)" d="M17.869 67.782c.529 2.26 5.474-3.516 7.853-7.042 2.38-3.527 3.748-7.97 3.035-8.959-.438-.608-1.34-.95-2.365-1.626-.527 1.634.155 4.173-1.197 6.313-1.005 1.592-4.167 3.357-5.224 3.797l-.28-.709c-.502 3.573-2.192 6.648-1.822 8.226Z" transform="translate(197 86.544)"/><path fill="url(#G)" d="M11.041 5.298c-1.055 2.42-1.645 4.592-2.18 9.003-.533 4.411-2.139 20.75-2.935 27.907-.796 7.158-.89 11.614-1.78 14.584-.888 2.971-5.892 15.004-2.401 16.294 2.802 1.036 6.315-2.023 6.849-4.5.534-2.478.801-9.003 1.868-11.884 1.067-2.881 7.15-17.966 8.289-23.657 1.14-5.691 1.94-15.684 2.384-16.764.446-1.08 3.647-8.373 1.868-12.514C21.224-.374 16.996-.136 15.176.436c-2.578.811-3.468 3.332-4.135 4.862Z" transform="translate(209 85.538)"/><path fill="url(#H)" d="M4.548 66.65c-2.022-.452-1.646-4.906-1.647-6.226-1.618 4.698-3.77 11.696-1.155 12.663 2.801 1.036 6.314-2.024 6.848-4.5.322-1.492.548-4.448.908-7.194 0 0-2.286 5.854-4.954 5.257Z" transform="translate(209 85.538)"/><path fill="url(#I)" d="M2.343 25.574c1.913-1.402 8.866-.747 10.399-3.123 1.533-2.376-.8-8.077 3.532-10.181 5.548-2.694 10.736 2.828 15.133 2.647 4.399-.181 7.47-4.318 13.065-3.304 3.244.589 4.906 3.468 4.466 6.901-.266 2.082-1.444 4.119.667 4.752 2.53.759 8.416-2.119 10.303.088 1.431 1.674-.404 3.968-.484 4.067.777-.684 1.301-1.414 1.514-2.187 1.4-5.09-3.534-18.463-9.733-23.078-6.2-4.616-35.327-.024-35.327-.024C13.742 3.921-.523 19.057.477 25.71c.168 1.117.768 2.08 1.702 2.91-.654-.715-.881-2.282.164-3.046Z" transform="translate(186 78.494)"/><path fill="#F2D265" d="M188.178 107.412a.29.29 0 0 1-.214-.095c-.447-.49-.691-1.27-.621-1.988.061-.632.349-1.151.829-1.503.865-.634 2.605-.865 4.447-1.11 2.374-.315 5.064-.672 5.878-1.934.52-.807.56-2.11.599-3.489.074-2.527.159-5.393 3.053-6.798 3.498-1.701 6.893-.227 9.889 1.075 1.906.83 3.725 1.61 5.356 1.543 1.786-.073 3.35-.821 5.005-1.614 2.352-1.126 4.782-2.292 8.125-1.684 3.29.596 5.181 3.503 4.705 7.232-.066.51-.182 1.006-.293 1.487-.39 1.667-.532 2.555.752 2.94.968.292 2.517.002 4.156-.305 2.488-.465 5.06-.947 6.284.484 1.592 1.862-.394 4.348-.48 4.452a.289.289 0 0 1-.411.04.301.301 0 0 1-.038-.42c.072-.088 1.758-2.196.488-3.68-1.005-1.175-3.41-.726-5.737-.29-1.71.32-3.325.622-4.428.291-1.875-.563-1.51-2.132-1.156-3.65.109-.465.22-.947.282-1.426.434-3.391-1.265-6.031-4.228-6.569-3.156-.572-5.504.55-7.773 1.637-1.71.82-3.326 1.593-5.229 1.671-1.79.073-3.642-.734-5.61-1.59-3.021-1.313-6.144-2.67-9.408-1.086-2.572 1.249-2.647 3.806-2.72 6.279-.042 1.465-.083 2.85-.694 3.797-.962 1.49-3.671 1.85-6.292 2.198-1.767.235-3.435.457-4.18 1.003-.43.314-.558.76-.59 1.078-.052.547.135 1.16.468 1.524.11.12.104.309-.014.421a.291.291 0 0 1-.2.08Z"/><path fill="#EA971D" d="M186.431 103.994a.294.294 0 0 1-.291-.274c-.169-2.112 3.034-2.762 6.13-3.39 2.228-.451 4.53-.918 5.19-1.863.57-.817.636-2.078.707-3.413.128-2.422.273-5.168 3.205-6.855 3.283-1.891 6.924-.433 10.443.978 2.182.873 4.223 1.696 6.039 1.63 1.938-.073 3.63-.823 5.423-1.617 2.535-1.124 5.157-2.286 8.752-1.682 3.547.596 5.584 3.504 5.068 7.237-.071.51-.196 1.007-.317 1.489-.419 1.66-.572 2.546.824 2.934.77.215 2.074.064 3.452-.095 2.711-.31 5.78-.662 6.37 1.589a.299.299 0 0 1-.207.364.29.29 0 0 1-.358-.21c-.46-1.756-3.264-1.433-5.739-1.15-1.436.164-2.793.32-3.671.076-2.017-.56-1.621-2.134-1.237-3.656.117-.465.238-.946.304-1.425.469-3.387-1.374-6.026-4.583-6.565-3.425-.574-5.967.55-8.424 1.64-1.844.817-3.586 1.589-5.635 1.667-1.905.07-4.033-.774-6.274-1.672-3.394-1.359-6.903-2.764-9.942-1.014-2.653 1.528-2.783 3.99-2.91 6.37-.075 1.424-.146 2.768-.813 3.726-.794 1.138-3.106 1.606-5.553 2.103-2.846.577-5.788 1.173-5.662 2.757a.297.297 0 0 1-.268.321h-.023Z"/><path fill="url(#J)" d="M18.32 13.048c-.521-1.31-1.235-2.531-2.13-3.555a8.811 8.811 0 0 0-1.458-1.348 5.725 5.725 0 0 0-.908-.54C7.31 15.409.261 31.336.415 34.89c.18 4.149 13.212 5.808 18.361 5.887 3.374-1.415 2.206-5.538 2.206-5.538s-10.104-2.193-10.015-3.392c.09-1.186 6.32-11.178 8.457-12.362.027-2.226-.306-4.43-1.105-6.437Z" transform="translate(181 41.26)"/><path fill="#F2D265" d="M201.647 53.375c-.584-1.565-1.403-3.059-2.494-4.368a11.468 11.468 0 0 0-1.859-1.797c-.181-.136-.37-.269-.568-.397a24.297 24.297 0 0 0-1.901 2.053c.301.14.606.322.908.539.52.376 1.012.838 1.458 1.348.895 1.024 1.609 2.245 2.129 3.555.799 2.006 1.132 4.21 1.105 6.438.02-.013.045-.029.065-.04.56-.274 1.046.634 1.454 2.176.82-3.219.798-6.557-.297-9.507Z"/><path fill="url(#K)" d="M59.417 7.606c-.302.14-.607.322-.908.54a8.804 8.804 0 0 0-1.457 1.348c-.895 1.024-1.609 2.246-2.13 3.554-.799 2.006-1.132 4.21-1.104 6.437 2.137 1.184 8.367 11.176 8.456 12.363.09 1.199-10.014 3.392-10.014 3.392s-1.169 4.122 2.206 5.537c5.148-.078 18.18-1.738 18.36-5.887.154-3.555-6.895-19.481-13.409-27.284Z" transform="translate(181 41.26)"/><path fill="#F2D265" d="M235.923 54.307c.52-1.309 1.234-2.53 2.13-3.554.444-.511.936-.973 1.456-1.349a5.73 5.73 0 0 1 .908-.539 24.3 24.3 0 0 0-1.902-2.052c-.196.127-.386.26-.567.396a11.472 11.472 0 0 0-1.86 1.797c-1.09 1.31-1.91 2.804-2.492 4.369-1.085 2.918-1.057 6.021-.22 9.217.392-1.366.851-2.144 1.376-1.887.02.01.044.027.066.039-.028-2.226.305-4.43 1.105-6.437Z"/><path fill="url(#L)" d="M56.232 4.464c-2.06-1.518-4.415-2.568-6.833-3.297-.082.4-.2.79-.352 1.16a7.852 7.852 0 0 1-1.221 2.008c-.985 1.175-2.185 2.054-3.45 2.728-2.546 1.34-5.34 1.929-8.142 1.919-2.757-.014-5.576-.62-8.092-1.977-1.253-.68-2.447-1.557-3.404-2.734-.677-.818-1.224-1.817-1.485-2.925-2.21.72-4.353 1.724-6.244 3.119-.42.309-.85.678-1.284 1.09.197.127.387.26.568.396a11.444 11.444 0 0 1 1.86 1.797c1.09 1.31 1.909 2.804 2.492 4.368 1.096 2.95 1.117 6.288.298 9.506 1.105 4.162 1.657 12.983 1.657 15.942 1.893 1.72 9.234 1.602 14.02 1.464 4.785.138 12.127.256 14.02-1.464 0-3.03.578-12.2 1.735-16.23-.838-3.196-.865-6.3.22-9.218.582-1.565 1.401-3.059 2.492-4.368a11.446 11.446 0 0 1 1.86-1.797c.181-.136.37-.269.567-.397-.433-.412-.862-.78-1.282-1.09Z" transform="translate(181 41.26)"/><path fill="#F2D265" d="M209.144 48.265c2.515 1.356 5.334 1.962 8.091 1.976 2.802.01 5.596-.58 8.142-1.918 1.265-.675 2.465-1.554 3.45-2.729a7.869 7.869 0 0 0 1.221-2.008c.152-.37.27-.76.352-1.16a30.662 30.662 0 0 0-2.237-.583c-.006.029-.009.058-.014.088-.055.245-.131.49-.234.727a4.928 4.928 0 0 1-.874 1.339c-.739.825-1.73 1.475-2.794 1.974-2.142.996-4.6 1.39-6.989 1.413a19.195 19.195 0 0 1-3.615-.312c-1.182-.217-2.346-.548-3.424-1.043-1.075-.492-2.073-1.145-2.837-1.97a5.224 5.224 0 0 1-.903-1.358 3.76 3.76 0 0 1-.22-.664c-.671.167-1.34.352-2.004.568.261 1.108.808 2.108 1.484 2.925.958 1.178 2.151 2.054 3.405 2.735Z"/><g transform="translate(197 57.36)"><path fill="url(#M)" d="M41.978 25.436c0 .913-.714 1.652-1.595 1.652H1.956c-.88 0-1.595-.74-1.595-1.652V2.177c0-.911.715-1.651 1.595-1.651h38.427c.881 0 1.595.74 1.595 1.651v23.26Z"/><ellipse cx="21.17" cy="13.532" fill="#EFEEEF" rx="3.191" ry="3.303"/></g><path fill="url(#N)" d="M74.926 20.68c-.404-2.04-1.245-2.452-1.121-3.77.157-1.664 1.727-4.57.762-7.942-.858-2.998-3.433-4.17-5.451-4.392-2.02-.222-3.971.31-5.362-.09-1.391-.399-2.154-4.783-7.628-4.39-7.74.553-13.147 7.364-16.422 9.05-3.275 1.686-6.367-.13-9.781 1.597-3.95 1.996-4.972 6.356-7 8.563-2.244 2.44-7.392 3.709-10.14 4.259-5.049 1.01-7.775 2.107-10.186 4.525C.358 30.335-.51 33.06.578 34.7c1.262 1.905 4.421.33 5.474.09 2.322-.533 3.904.033 3.141 1.552-.866 1.724-1.688 3.498-.18 4.658 1.616 1.242 4.443.489 6.372.09 1.93-.4 5.493-1.86 7.583-1.776 3.276.133 4.89 2.307 8.66 1.73 3.768-.576 5.312-3.013 6.506-4.48 1.334-1.642 2.804-3.45 5.519-2.796 2.58.62 3.5 1.739 5.25 1.464 1.838-.289 2.549-1.232 3.492-1.895l.334-1.593c-1.478-1.81-2.61-4.281-3.205-6.943-.13.025-.263.046-.4.046-1.3 0-2.355-1.206-2.355-2.695 0-.481.118-.926.31-1.317a5.379 5.379 0 0 0 .534-.054c.17-.026.345-.058.527-.101a3.56 3.56 0 0 0 .455-.147c.102-.04.211-.092.319-.141.05-.024.098-.042.15-.068h.002c.158-.078.32-.167.487-.262l.02-.01.004-.003a14.857 14.857 0 0 0 1.013-.647c1.227-.848 2.544-1.961 3.649-2.95l.01-.009c.135-.12.265-.238.393-.354l.03-.027c.381-.346.726-.666 1.023-.942l.019-.018.383-.357.084-.078.26-.242c1.256-1.153 4.532-3.682 5.608-2.795 1.077.887-.673 3.55.27 4.747.942 1.198 3.454-.488 3.903.4a.89.89 0 0 1 .073.234 1.636 1.636 0 0 1 .029.291c0 .026.003.05.003.078 0 .095-.005.194-.012.298-.005.08-.012.16-.02.244v.02c-.029.304-.061.63-.062.958v.025c.001.127.008.254.02.38.003.011.003.023.005.034.029.244.088.482.194.706l.011.02a1.889 1.889 0 0 0 .436.568c.03.027.057.055.088.08h.001c.107.084.224.164.36.237.143.076.298.135.457.188.046.015.092.027.14.04a4.2 4.2 0 0 0 .38.09l.135.023c.362.056.741.075 1.122.065.07.254.117.518.117.798 0 1.488-1.055 2.695-2.355 2.695-.198 0-.387-.037-.571-.088a19.607 19.607 0 0 1-1.511 4.03c1.88-.206 4.908-.985 6.837-2.341 1.795-1.264 3.231-3.729 2.827-5.77Z" transform="translate(159)"/><path fill="#E08C7C" d="M206.08 20.837c-.193.39-.311.835-.311 1.316 0 1.488 1.054 2.695 2.355 2.695 1.3 0 2.355-1.206 2.355-2.695 0-1.08-.559-2.005-1.36-2.435-.735.473-1.42.828-1.98.963-.377.09-.728.137-1.06.156ZM226.348 20.949c-.593-.314-.883-.747-1.017-1.22-.792.434-1.342 1.352-1.342 2.423 0 1.489 1.055 2.696 2.355 2.696s2.355-1.207 2.355-2.696c0-.28-.048-.543-.117-.797-.803.02-1.608-.075-2.234-.406Z"/><path fill="url(#O)" d="m64.728 40.808-2.366-10.722h-9.289l-2.265 10.848c-1.258.162-2.543.381-3.826.69.054.218.125.435.22.638.216.467.524.908.898 1.308.76.793 1.754 1.421 2.823 1.895 1.071.477 2.23.795 3.407 1.004 1.183.207 2.37.31 3.597.3 2.377-.022 4.823-.401 6.954-1.36 1.058-.48 2.045-1.105 2.78-1.9.365-.396.669-.829.87-1.288.102-.229.178-.463.233-.7.006-.028.008-.056.013-.085a38.119 38.119 0 0 0-4.049-.628Z" transform="translate(159)"/><path fill="url(#P)" d="M66.221 16.777c-.449-.888-2.961.798-3.903-.4-.943-1.198.807-3.86-.27-4.747-1.076-.887-4.351 1.642-5.608 2.795-1.109 1.02-4.864 4.666-7.376 5.9-.002.12-.005.235-.005.356 0 6.872 4.023 14.041 8.985 14.041 4.786 0 9.01-7.102 9.304-13.773-1.923-1.02-.678-3.285-1.127-4.172Z" transform="translate(159)"/><path fill="#6A74EF" d="M162.99 33.159c-.063 0-.126-.003-.19-.01-.928-.092-1.601-.597-1.95-1.46-.504-1.253-.175-3.01.284-3.538a.299.299 0 0 1 .417-.03.29.29 0 0 1 .03.412c-.269.31-.635 1.817-.182 2.94.265.657.756 1.026 1.461 1.096.936.1 1.832-.88 2.707-1.82.827-.89 1.682-1.808 2.667-1.97 1.643-.271 2.815.388 4.172 1.151 1.453.817 3.262 1.834 6.335 2.107 5.545.492 8.837-2.907 11.239-5.39l.367-.378c.719-.738 1.433-1.556 2.124-2.348 1.806-2.068 3.673-4.208 5.843-5.169 1.799-.799 3.461-.494 5.081.933a.29.29 0 0 1 .024.412.298.298 0 0 1-.417.024c-.91-.801-2.361-1.76-4.447-.836-2.05.909-3.873 2.997-5.637 5.018-.696.797-1.416 1.622-2.146 2.372l-.366.377c-2.344 2.423-5.884 6.088-11.719 5.567-3.2-.284-5.07-1.336-6.573-2.181-1.363-.766-2.346-1.319-3.784-1.083-.784.13-1.57.974-2.329 1.79-.923.99-1.876 2.014-3.012 2.014Z"/><path fill="url(#Q)" d="M58.042 19.516c.41 0 1.393 5.573 1.29 6.106-.102.532-1.071.748-1.534.748-.462 0-1.425-.499-1.425-.765s1.079-6.09 1.669-6.09Z" transform="translate(159)"/><path fill="#BE4118" d="M217.024 30.322c-1.06 0-1.974-.78-2.125-1.817a.293.293 0 0 1 .25-.33.296.296 0 0 1 .335.247c.11.75.771 1.316 1.54 1.316.736 0 1.378-.518 1.524-1.23a.294.294 0 0 1 .348-.229c.16.032.263.186.231.344a2.145 2.145 0 0 1-2.103 1.7Z"/><path fill="#6A74EF" d="M213.24 22.744a.67.67 0 0 1-.672.665.67.67 0 0 1-.674-.665v-1.265a.67.67 0 0 1 .674-.665.67.67 0 0 1 .673.665v1.265Z"/><path fill="#2421A2" d="M214.218 20.616a.294.294 0 0 1-.287-.227c-.158-.681-.709-1.156-1.341-1.156-.63 0-1.182.473-1.34 1.15a.293.293 0 0 1-.355.218.292.292 0 0 1-.221-.35c.221-.944 1.01-1.602 1.915-1.602.91 0 1.698.662 1.917 1.61a.291.291 0 0 1-.288.357Z"/><path fill="#6A74EF" d="M222.092 22.641a.67.67 0 0 1-.674.666.67.67 0 0 1-.673-.666v-1.264a.67.67 0 0 1 .673-.666.67.67 0 0 1 .674.666v1.264Z"/><path fill="#2421A2" d="M223.068 20.515a.294.294 0 0 1-.287-.227c-.157-.681-.708-1.156-1.341-1.156-.63 0-1.18.473-1.34 1.149a.297.297 0 0 1-.354.219.292.292 0 0 1-.222-.35c.221-.944 1.008-1.602 1.915-1.602.91 0 1.699.662 1.917 1.61a.292.292 0 0 1-.288.357Z"/><path fill="#6A74EF" d="M228.394 21.652c-.783 0-1.562-.115-2.185-.445-1.444-.765-1.315-2.161-1.22-3.18.043-.46.084-.893-.032-1.12-.103-.203-.703-.08-1.233.03-.898.185-2.013.415-2.64-.38-.546-.695-.344-1.707-.149-2.685.173-.863.336-1.678-.076-2.017-.75-.62-3.513 1.218-5.219 2.784l-.464.433c-1.715 1.602-5.733 5.356-7.967 5.892-2.182.524-3.505-.244-4.1-.748a.29.29 0 0 1-.033-.412.298.298 0 0 1 .416-.032c.51.432 1.655 1.087 3.578.625 2.081-.5 6.019-4.18 7.7-5.75l.47-.436c.181-.167 4.467-4.066 5.998-2.806.68.561.476 1.587.277 2.58-.17.849-.345 1.727.036 2.212.4.508 1.24.336 2.053.167.774-.16 1.576-.325 1.883.281.19.376.144.866.091 1.433-.093.999-.188 2.031.91 2.613 1.79.948 5.29-.188 5.326-.2a.296.296 0 0 1 .374.185.291.291 0 0 1-.186.369c-.107.036-1.867.607-3.608.607Z"/><path fill="#93778B" d="M189.84 373.76h-37.538l-17.695 14.362h41.517z"/><path fill="url(#R)" d="m19.572 7.177 14.754 6.583-17.72 14.362L.446 19.187z" transform="translate(118 360)"/><path fill="url(#S)" d="M65.093 31.197H24.91l7.414-29.146h40.183z" transform="translate(118 360)"/><path fill="#BE4118" d="M180.795 389.22h-40.183l7.414-29.147h40.183z"/><path fill="url(#T)" d="M40.183 29.586H0L7.414.439h40.183z" transform="translate(135.793 362.93)"/><path fill="#92A6EB" d="m175.976 392.515 7.414-29.146h-18.423c-.39.38-.703.839-.891 1.423-.81 2.512.327 4.967 1.407 6.11 1.079 1.14 2.389 3.349-.232 3.881-2.62.533-5.935-.675-8.247-.875-3.525-.305-8.285-.4-10.5 2.969-1.639 2.493-.384 4.872 1.455 5.206 1.403.253 2.9-.401 3.468-1.713.524-1.21-.105-2.271-1.01-2.455-.935-.19-1.819.437-2.005 1.018-.174.543.15.829.501.8.558-.05.8-.534 1.021-.305.284.291-.139 1.013-.963 1.16-.621.112-1.401-.034-1.58-1.142-.167-1.039.366-1.99 1.599-2.532 1.144-.502 2.505-.266 3.352.915.848 1.18.588 3.226-.54 4.244-1.682 1.52-3.758 1.711-6.974 2.455-2.32.537-5.328 1.256-7.673 2.631l-1.362 5.356h40.183Z"/><path fill="#6A74EF" d="M171.26 363.369c-1.175.257-2.235.774-3.012 1.784-1.675 2.176-.145 4.587.81 5.796.643.816 1.634 3.778-1.215 4.54-3.526.94-6.738-.292-9.017-.715-2.822-.524-4.942.352-5.319 1.455-.635 1.868 1.98 2.326 1.822 4.825-.136 2.123-3.766 3.963-8.93 4.71-5.79.839-7.984 2.97-8.064 5.52-.015.453.036.863.14 1.231h24.953c2.17-.82 4.396-2.228 5.252-4.895 1.244-3.868-1.994-4.42-1.734-7.583.231-2.807 4.934-2.386 10.118-3.478 1.355-.285 2.974-2.171 3.63-2.595l1.064-4.186c-.055-.672-.024-1.928.745-2.928l.885-3.481H171.26Z"/><path fill="#6A74EF" d="M178.384 383.05c-3.628.206-11.011-2.682-12.815-.045-1.559 2.282 1.86 3.577.19 8.183a3.355 3.355 0 0 1-.87 1.328h11.087l2.408-9.465Z"/><path fill="#5C60D5" d="M179.313 371.557c.071 1.422.47 4.36-5.615 4.451-6.013.088-12.239.132-13.12 3.207-.994 3.464 2.486 4.783.241 8.818-1.81 3.254-5.317 4.187-8.233 4.483h12.302c.373-.35.674-.784.87-1.328 1.67-4.606-1.749-5.9-.19-8.183 1.804-2.637 9.188.251 12.815.046l4.059-15.957c-3.179.788-3.129 4.463-3.129 4.463ZM158.286 368.452a1.72 1.72 0 0 1-1.73 1.71h-8.852a1.72 1.72 0 0 1-1.73-1.71v-.263a1.72 1.72 0 0 1 1.73-1.71h8.851c.956 0 1.731.766 1.731 1.71v.263Z"/><path fill="#F2D265" d="M134.607 388.122h41.517v29.488h-41.517z"/><g fill="#93778B"><path fill-rule="nonzero" d="M155.44 413.919a.448.448 0 0 1-.354-.172l-11.819-15.182a.435.435 0 0 1-.046-.461.445.445 0 0 1 .4-.246l23.344-.007c.168 0 .322.094.398.243.075.15.06.327-.042.46l-11.526 15.19a.507.507 0 0 1-.356.175Zm-10.916-15.182 10.91 14.016 10.641-14.023-21.551.007Z"/><path fill-rule="nonzero" d="M143.62 398.737a.445.445 0 0 1-.41-.269.435.435 0 0 1 .092-.477l5.697-5.766a.448.448 0 0 1 .318-.133l12.084-.004a.45.45 0 0 1 .322.136l5.564 5.763a.435.435 0 0 1 .086.476.445.445 0 0 1-.408.267l-23.345.007Zm5.885-5.766-4.829 4.887 21.25-.006-4.715-4.885-11.706.004Z"/><path d="M148.556 398.736a.441.441 0 0 1-.442-.496l.762-5.765a.447.447 0 0 1 .5-.38.441.441 0 0 1 .383.493l-.762 5.765a.443.443 0 0 1-.44.383ZM162.147 398.731a.442.442 0 0 1-.44-.382l-.765-5.764a.44.44 0 0 1 .383-.493.44.44 0 0 1 .499.379l.765 5.764a.44.44 0 0 1-.442.496Z"/><path d="M148.556 398.736a.443.443 0 0 1-.338-.154.435.435 0 0 1 .049-.62l6.877-5.813a.448.448 0 0 1 .58.002l6.741 5.81c.186.158.205.436.043.62a.449.449 0 0 1-.628.042l-6.451-5.56-6.585 5.567a.44.44 0 0 1-.288.106Z"/><path d="M155.44 413.919a.447.447 0 0 1-.407-.26l-6.884-15.183c-.1-.221 0-.481.224-.58.225-.1.487 0 .588.221l6.473 14.278 6.33-14.279a.45.45 0 0 1 .586-.227.437.437 0 0 1 .23.58l-6.733 15.187a.446.446 0 0 1-.407.263Z"/></g><path fill="url(#U)" d="M58.124 57.61 71.84 38.154V13.768L58.124 28.122z" transform="translate(118 360)"/><path fill="url(#V)" d="m71.84 13.76 14.012 4.768L74.138 34.76l-16.014-6.64z" transform="translate(118 360)"/><path fill="url(#W)" d="M33.941.358C31.59.248 16.695.893 7.898 13.21-.9 25.526-4.398 51.051 10.697 56.713c3.899-4.47 10.796-28.704 10.796-28.704L30.69 5.66 33.941.358Z" transform="translate(19.106 248.379)"/><path fill="#F2D265" d="M44.63 255.376a.455.455 0 0 1-.259-.082 41.997 41.997 0 0 1-.952-.703c-1.222-.916-3.067-2.302-4.016-2.543a.447.447 0 1 1 .222-.865c1.125.284 2.98 1.677 4.336 2.694.366.275.687.515.93.685a.446.446 0 0 1 .108.623.45.45 0 0 1-.369.19ZM41.387 261.342a.45.45 0 0 1-.381-.21c-1.318-2.083-7.094-4.267-9.158-4.373a.448.448 0 1 1 .047-.893c2.33.12 8.37 2.414 9.872 4.79a.446.446 0 0 1-.38.686Z"/><path fill="#5C60D5" d="m14.74 257.898 35.012 5.96-5.806 34.923-35.011-5.96z"/><path fill="#5B252C" fill-rule="nonzero" d="m29.669 288.718 3.602-21.66-.385-.063-2.214 13.313-13.093-2.169 2.23-13.41 29.074 4.817.065-.385-29.46-4.88-4.59 27.6.378.107.85-5.118 29.027 4.809.065-.385-15.55-2.576Zm.939-8.028-.466 2.807-2.81-.465.468-2.806 2.808.464Zm-3.194-.528-.466 2.806-1.59-.263.467-2.806 1.59.263Zm-11.223 6.323 1.324-7.963 7.925 1.312-1.324 7.964-7.925-1.313Zm8.31 1.376.794-4.772 4.783.793-.794 4.772-4.784-.793Z"/><path fill="#A5C149" d="M33.108 266.846c-7.56-1.252-14.732 3.868-15.986 11.414-.776 4.66 2.387 9.114 7.05 9.928l.074.012a5.389 5.389 0 0 0 4.042-.936 5.38 5.38 0 0 0 2.195-3.515 3.42 3.42 0 0 0-2.814-3.927 2.186 2.186 0 0 0-2.511 1.794 1.418 1.418 0 0 0 1.167 1.628.948.948 0 0 0 1.09-.777.293.293 0 0 0-.578-.097.36.36 0 0 1-.416.296.832.832 0 0 1-.686-.956 1.6 1.6 0 0 1 1.838-1.313 2.834 2.834 0 0 1 2.332 3.255 4.794 4.794 0 0 1-1.956 3.136 4.814 4.814 0 0 1-3.606.836l-.073-.013c-4.344-.758-7.293-4.912-6.57-9.258 1.202-7.227 8.072-12.131 15.313-10.933 6.229 1.032 11.401 4.623 14.626 9.512l.14-.833c-3.33-4.756-8.495-8.23-14.67-9.253Z"/><g transform="translate(14.812 285.65)"><circle cx="1.17" cy=".997" r="1" fill="#6A74EF"/><path fill="#5B252C" fill-rule="nonzero" d="M1.32.087c.503.084.844.56.76 1.06A.924.924 0 0 1 .258.847.926.926 0 0 1 1.322.087Zm-.063.384a.533.533 0 1 0-.176 1.05.533.533 0 0 0 .176-1.05Z"/></g><g transform="translate(29.759 279.086)"><circle cx="1.055" cy="1.428" r="1" fill="#6A74EF"/><path fill="#5B252C" fill-rule="nonzero" d="M1.207.519a.923.923 0 1 1-.302 1.82.923.923 0 0 1 .302-1.82Zm-.064.384a.533.533 0 1 0-.176 1.052.533.533 0 0 0 .176-1.052Z"/></g><g transform="translate(31.553 265.957)"><circle cx="1.498" cy="1.112" r="1" fill="#6A74EF"/><path fill="#5B252C" fill-rule="nonzero" d="M1.649.202a.923.923 0 1 1-.3 1.82.923.923 0 0 1 .3-1.82Zm-.064.384a.534.534 0 0 0-.614.438.534.534 0 0 0 1.053.174.533.533 0 0 0-.439-.612Z"/></g><g transform="translate(23.182 286.844)"><circle cx="1.107" cy="1.18" r="1" fill="#6A74EF"/><path fill="#5B252C" fill-rule="nonzero" d="M1.258.27c.502.084.844.56.76 1.06a.924.924 0 0 1-1.822-.302A.925.925 0 0 1 1.258.27Zm-.063.385a.533.533 0 1 0-.175 1.05.533.533 0 0 0 .175-1.05Z"/></g><path fill="url(#X)" fill-rule="nonzero" d="M6.776.2.503 37.42l37.342 6.27 6.273-37.22L6.776.2Zm27.637 38.677L5.325 33.993 10.21 5.012l29.087 4.884-4.884 28.981Z" transform="translate(7.039 256.408)"/><path fill="url(#Y)" d="M22.74 14.624c1.809 1.149 6.297 1.925 6.174 3.43-.113 1.365-2.282 3.203-2.282 3.203l-3.891-6.633Z" transform="translate(49.272 205.22)"/><path fill="url(#Z)" d="M17.953 10.968s-2.777-1.796-5.753.461-4.538 7.498-3.943 12.885c.234 2.113 2.025 4.113 4.115 5.764-.88.356-1.694 1.163-2.205 2.826-1.538 5-5.555 10.095-5.605 10.435-.05.34.845 2.394 4.215 3.033 4.613.874 8.432-.752 9.324-2.014.832-1.176 2.18-6.94 2.744-10.326 2.404-.694 7.417-2.537 8.167-6.005 1.227-5.67-7.39-15.99-11.059-17.059Z" transform="translate(49.272 205.22)"/><path fill="#BE4118" d="M75.386 229.454c.256.328.775.56 1.248.588.24.014.482-.028.695-.136.215-.107.393-.283.532-.493a.139.139 0 0 1 .19-.043c.06.037.079.114.048.176a1.705 1.705 0 0 1-.59.659 1.75 1.75 0 0 1-.877.262c-.307.013-.61-.04-.897-.14-.283-.104-.569-.245-.801-.493l-.005-.005a.287.287 0 0 1 .019-.412.302.302 0 0 1 .438.037Z"/><path fill="url(#aa)" d="M9.68 34.291c.547-.11 1.321-1.08 2.52-1.532 1.451-.546 5.64-.718 5.58-3.058-.038-1.42-1.218-1.164-2.506-1.444-1.674-.364-1.828-2.46-.378-3.333 1.45-.874 3.813-1.155 4.297-4.722.454-3.356-1.934-4.95-1.526-6.989.438-2.18 3.104-2.947 4.278-5.86 1.042-2.585.93-6.989-.967-6.989s-3.208 3.225-4.166 3.64c-.967.419-.93-1.383-2.38-1.274-1.02.076-2.344 1.055-3.385 2.875-.797 1.392-.707 2.876-1.637 3.567C8.48 9.864.111 15.18.595 22.276c.471 6.93 5.738 7.21 7.067 8.226 2.046 1.566 1.514 3.89 2.017 3.79Z" transform="translate(49.272 205.22)"/><path fill="#5C60D5" d="M72.57 222.801c.228.4.237.78-.091.99a.719.719 0 0 1-.984-.202l-1.158-1.836a.686.686 0 0 1 .207-.962.719.719 0 0 1 .984.202l1.043 1.808Z"/><path fill="url(#ab)" d="M8.101 98.87c.973.216 2.495-.162 3.977-.276-.655-1.412-1.079-2.965-1.06-4.71.03-2.919 4.646-9.094 5.814-10.454 0 0-1.642-2.63-3.592-4.01-1.95-1.38-3.919-1.281-3.919-1.281S5.037 89.833 4.486 91.115c-.267.62-.991 1.512-1.775 2.414 1.394 1.557 4.044 5.043 5.39 5.342Z" transform="translate(0 306.592)"/><path fill="url(#ac)" d="M7.09 103.511c4.946 3.547 9.732 4.846 10.04 4.794.358-.061.897-.445.787-1.851-.08-1.026-1.932-2.109-3.349-3.943-.922-1.194-1.825-2.482-2.49-3.916-1.482.113-3.003.492-3.977.276-1.346-.298-3.996-3.784-5.39-5.342C1.605 94.803.381 96.1.146 96.7c-.137.35 1.025 2.567 6.945 6.812Z" transform="translate(0 306.592)"/><path fill="#BE4118" d="M17.917 413.342a.28.28 0 0 1-.066-.008C9.505 411.38 1.67 403.729.804 402.154a.299.299 0 0 1 .113-.404.292.292 0 0 1 .398.115c.943 1.717 8.868 9.066 16.668 10.891a.297.297 0 0 1-.066.586Z"/><path fill="url(#ad)" d="M52.807 3.455c-1.172 7.01-5.174 32.974-12.3 45.413-7.124 12.439-13.665 21.422-16.495 24.976-2.83 3.554-8.394 11.353-8.394 11.353s-4.88 0-8.102-3.06c-3.22-3.06-4.49-4.739-4.294-5.923.195-1.185 5.466-11.353 8.394-14.907 2.928-3.554 6.832-7.997 10.346-15.697 3.514-7.7 3.612-16.585 4.49-23.89.879-7.307 2.18-15.145 3.612-19.647 1.432-4.502 22.743 1.382 22.743 1.382Z" transform="translate(0 306.592)"/><path fill="#6A74EF" d="M18.188 388.397c-5.88 0-11.667-6.242-13.267-9.761a.297.297 0 0 1 .144-.393.29.29 0 0 1 .388.145c1.501 3.302 7.185 9.417 12.737 9.417h.086c.16 0 .291.13.293.292a.295.295 0 0 1-.29.3h-.091Z"/><path fill="#5C60D5" d="M12.586 386.64a.297.297 0 0 1-.273-.402c.779-2.058 4.123-6.547 8.358-12.23 4.879-6.55 10.951-14.7 14.21-20.86 5.856-11.07 11.586-37.927 12.333-44.432a.298.298 0 0 1 .325-.26c.16.019.275.166.257.329-.775 6.744-6.407 33.317-12.399 44.643-3.28 6.2-9.367 14.37-14.258 20.936-4.04 5.423-7.53 10.107-8.28 12.086a.293.293 0 0 1-.273.19Z"/><path fill="url(#ae)" d="M50.367 104.105c-.637-.325-1.203-.668-1.643-1.027-2.266-1.846-3.788-8.86-4.085-10.633 0 0-3.095-.394-5.422.246-2.328.64-3.863 2.215-3.863 2.215s6.198 9.538 6.834 10.78c.305.598.377 1.8.394 3.074 1.84-.042 4.764-.265 5.25-.809.456-.51 1.263-2.644 2.535-3.846Z" transform="translate(35.194 304.585)"/><path fill="url(#af)" d="M42.831 113.12c.183.33 5.111.396 11.042-.345 6.103-.762 10.982-3.517 11.141-3.79.184-.316.223-1.18-.637-1.957-.765-.69-3.72-.357-6.048-.554-1.853-.157-5.471-1.102-7.962-2.37-1.272 1.202-2.08 3.336-2.535 3.847-.487.544-3.41.766-5.25.809.025 1.824-.064 3.795.25 4.36Z" transform="translate(35.194 304.585)"/><path fill="#BE4118" d="M77.86 416.559c-.203 0-.355-.114-.355-.296 0-.163.133-.295.297-.295.026.002.038 0 .059 0 1.357 0 7.623-.073 12.782-1.356 5.817-1.445 8.743-3.232 8.772-3.25a.3.3 0 0 1 .41.095.293.293 0 0 1-.095.406c-.121.075-3.024 1.85-8.944 3.322-5.225 1.3-11.555 1.374-12.926 1.374Z"/><path fill="url(#ag)" d="M24.758 2.166c1.684 3.347 11.983 31.209 13.072 42.038 1.09 10.83 3.665 23.333 4.655 29.83.99 6.499 4.407 16.688 4.06 17.87-.347 1.181-3.665 3.15-8.17 4.036-4.506.886-9.507.738-9.755.295-.248-.443 0-2.016-.99-5.167-.991-3.15-3.665-10.337-4.457-15.95-.792-5.61-2.278-18.312-3.367-21.757-1.09-3.446-6.537-16.145-8.418-21.364-1.882-5.218-2.179-8.073-3.763-9.845C6.04 20.38-.793 15.852.297 6.203c1.09-9.649 24.461-4.037 24.461-4.037Z" transform="translate(35.194 304.585)"/><path fill="#5B252C" d="M46.434 336.634a77.301 77.301 0 0 1-1.208-3.531c-.38-1.184-.725-2.38-1.144-3.535-.42-1.154-.942-2.262-1.852-3.06-.905-.833-1.854-1.671-2.705-2.6a.294.294 0 0 1 .016-.417.298.298 0 0 1 .425.022c.816.922 1.72 1.752 2.63 2.621.465.436.874.97 1.174 1.534.306.565.537 1.157.743 1.75.404 1.187.726 2.385 1.083 3.572.353 1.19.727 2.37 1.137 3.54a.157.157 0 0 1-.097.2.16.16 0 0 1-.202-.096Z"/><path fill="#5C60D5" d="M73.62 396.833a.297.297 0 0 1-.249-.132c-.778-1.16-5.19-16.351-6.19-30.663-.843-12.086-1.8-17.956-4.445-27.31-2.938-10.385-12.454-33.103-12.55-33.329a.295.295 0 0 1 .16-.386.299.299 0 0 1 .388.158c.096.228 9.626 22.979 12.574 33.397 2.659 9.4 3.62 15.296 4.467 27.43.993 14.218 5.328 29.239 6.09 30.376a.294.294 0 0 1-.246.459Z"/><path fill="#6A74EF" d="M66.03 397.62c-.855 0-1.592-.017-2.167-.031l-.601-.013a.297.297 0 0 1-.293-.3c.003-.162.11-.288.302-.29l.606.013c3.31.078 12.1.283 17.25-3.493a.299.299 0 0 1 .414.062.294.294 0 0 1-.062.413c-4.405 3.231-11.303 3.64-15.45 3.64Z"/><path fill="url(#ah)" d="M20.722 40.685c.482.639 3.767-.055 8.022-1.477 2.885-.965 5.526-2.37 7.398-3.495-1.152-4.489-2.735-9.637-4.362-14.543-4.429 2.005-16.553 5.19-16.553 5.19s4.159 12.553 5.495 14.325Z" transform="translate(35.194 304.585)"/><path fill="url(#ai)" d="M26.442 29.83c.738-.314 3.93-4.88 5.72-7.5-.127-.388-.254-.776-.382-1.16-4.43 2.005-16.554 5.19-16.554 5.19s10.176 3.914 11.216 3.47Z" transform="translate(35.194 304.585)"/><path fill="url(#aj)" d="M40.412 1.293S28.235.15 27.168.25c-1.067.1-3.827.995-5.846 2.66-3.348 2.76-8.587 12.831-13.463 31.257C4.06 48.526.5 62.962.437 64.005c-.049.796 4.996 1.79 13.2 1.775 9.46-.018 21.625-4.278 23.476-6.699 2.91-3.804 2.91-32.524 6.84-38.79.043-.068.1-.142.154-.214-1.462-2.052-3.593-5.591-4.229-9.534-.97-6.017.534-9.25.534-9.25Z" transform="translate(27.15 248.379)"/><path fill="#F2D265" d="M67.222 259.919a.424.424 0 0 1-.169-.036c-1.8-.774-3.802-1.437-5.949-1.969-1.955-.485-4.95-.82-7.847-1.145-4.39-.491-7.117-.835-7.988-1.466a.455.455 0 0 1-.105-.624.429.429 0 0 1 .608-.107c.75.542 4.379.949 7.58 1.308 2.924.327 5.947.666 7.957 1.163 2.192.544 4.238 1.221 6.082 2.014a.45.45 0 0 1-.169.862ZM70.34 270.624c-.493 0-1.286-.38-2.93-1.19-2.042-1.008-4.84-2.388-7.918-3.243-1.222-.338-3.082-.594-5.052-.865-5.057-.695-10.787-1.483-12.438-4.175a.455.455 0 0 1 .138-.617.43.43 0 0 1 .602.14c1.432 2.338 7.188 3.13 11.813 3.765 1.999.275 3.887.535 5.164.889 3.157.876 5.995 2.275 8.068 3.298 1.1.543 2.237 1.104 2.54 1.104l.042-.001c.226 0 .423.177.44.412a.44.44 0 0 1-.47.483ZM68.88 276.732a.424.424 0 0 1-.22-.062c-.672-.402-6.786-.973-10.832-1.35-1.46-.138-2.851-.267-4.015-.387-6.834-.703-13.411-2.101-15.639-3.326a.454.454 0 0 1-.178-.607.433.433 0 0 1 .591-.183c2.105 1.157 8.688 2.544 15.313 3.225 1.162.12 2.55.249 4.006.386 6.255.584 10.413 1.002 11.194 1.47a.454.454 0 0 1 .156.612.433.433 0 0 1-.377.222ZM56.41 284.064c-2.579 0-5.065-.064-6.82-.254-2.032-.22-12.274-1.393-14.291-2.952a.455.455 0 0 1-.086-.627.429.429 0 0 1 .611-.087c1.331 1.028 7.92 2.135 13.858 2.776 5.433.587 18.076-.043 18.204-.05a.434.434 0 0 1 .457.426.443.443 0 0 1-.414.469c-.088.005-6.012.299-11.519.299ZM55.617 291.238c-10.451 0-20.126-2.022-22.189-2.883a.452.452 0 0 1-.24-.583.43.43 0 0 1 .57-.246c2.784 1.162 19.717 4.474 33.381 1.819a.438.438 0 0 1 .51.357.447.447 0 0 1-.347.523c-3.765.731-7.78 1.013-11.685 1.013ZM50.87 299.457c-10.051 0-17.808-2.292-19.51-3.308a.453.453 0 0 1-.157-.612.431.431 0 0 1 .597-.161c1.435.857 16.824 5.95 34.555 1.218a.436.436 0 0 1 .533.32.448.448 0 0 1-.313.546c-5.485 1.464-10.863 1.997-15.706 1.997ZM45.726 306.56c-8.546 0-15.505-1.32-16.484-1.777a.452.452 0 0 1-.216-.592c.1-.225.359-.325.578-.222 1.676.782 21.327 4.134 35.886-1.405a.434.434 0 0 1 .561.264.451.451 0 0 1-.257.575c-6.341 2.413-13.652 3.158-20.068 3.158Z"/><path fill="url(#ak)" d="M54.227 7.124c-.295-.542-1.618 1.183-1.898 1.008-.237-.15.11-.466.438-1.38.434-1.207.73-2.966.438-3.358-.298-.399-.784.057-1.022.336.256-.634 1.095-3.431.256-3.506-.839-.074-2.627 3.171-3.43 4.327-.803 1.156-3.503 3.693-3.795 3.655-.292-.037-.183-2.312-.183-3.32 0-1.007-.657-2.35-1.423-2.237-.759.11-.791 2.15-1.132 4.625-.316 2.29-.878 5.114-1.265 6.423-.227.768-1.214 2.518-2.654 4.767 1.513.59 3.725 1.892 5.118 4.38 1.186-2.807 1.975-4.813 2.231-5.238.82-1.362 3.13-2.373 4.854-4.44 1.545-1.852 3.923-5.203 3.467-6.042Z" transform="translate(66.367 203.213)"/><path fill="#B07D7C" d="M114.86 212.257c.352-.373.692-.842 1.02-1.285.329-.45.648-.91.958-1.376.614-.932 1.215-1.885 1.68-2.898a.115.115 0 0 1 .152-.06.122.122 0 0 1 .06.152c-.423 1.064-.977 2.054-1.549 3.031a40.09 40.09 0 0 1-.896 1.443c-.317.475-.61.94-1.003 1.405a.288.288 0 0 1-.412.031.304.304 0 0 1-.03-.421l.01-.012.01-.01ZM116.834 213.079c.347-.395.685-.693 1.004-1.049.316-.348.618-.712.834-1.12l.001-.004a.119.119 0 0 1 .163-.05c.054.03.077.097.055.154-.182.472-.454.889-.736 1.289-.276.395-.611.78-.857 1.142l-.006.01a.288.288 0 0 1-.408.074.303.303 0 0 1-.05-.446Z"/><path fill="url(#al)" d="M38.557 18.464C34.325 25.07 26.16 36.01 21.677 39.238 15.182 43.913 5.06 45.903 1.41 47.245c0 0-1.508 3.233-.535 9.25.637 3.942 2.774 7.482 4.241 9.534 2.576-3.44 17.763-11.627 26.412-21.345 5.013-5.632 9.54-15.672 12.147-21.841-1.393-2.487-3.606-3.79-5.119-4.38Z" transform="translate(66.367 203.213)"/><path fill="#F2D265" d="M106.795 233.768a.438.438 0 0 1-.401-.266c-1.253-2.907-4.173-3.867-5.742-4.384a17.127 17.127 0 0 1-.57-.195.45.45 0 0 1-.26-.573.437.437 0 0 1 .561-.268c.147.055.329.115.538.183 1.579.52 4.863 1.6 6.275 4.875a.452.452 0 0 1-.224.59.428.428 0 0 1-.177.038ZM103.622 239.935a.438.438 0 0 1-.4-.267c-1.382-3.203-5.667-4.786-7.074-5.306l-.159-.06a.45.45 0 0 1-.26-.573.434.434 0 0 1 .561-.267l.156.058c1.495.552 6.045 2.233 7.578 5.787a.452.452 0 0 1-.224.59.43.43 0 0 1-.178.038ZM100.292 245.29a.438.438 0 0 1-.401-.268c-1.376-3.192-6.768-5.214-8.383-5.335a.444.444 0 0 1-.405-.479.446.446 0 0 1 .469-.414c1.642.123 7.506 2.123 9.121 5.867a.452.452 0 0 1-.224.59.443.443 0 0 1-.177.038ZM95.004 251.326a.438.438 0 0 1-.401-.266c-1.441-3.344-7.643-6.356-9.213-6.52a.445.445 0 0 1-.391-.49.44.44 0 0 1 .48-.4c1.797.187 8.306 3.291 9.926 7.048a.452.452 0 0 1-.224.59.437.437 0 0 1-.177.038ZM88.546 256.838a.439.439 0 0 1-.41-.292c-1.566-4.304-9.57-7.68-11.628-8.35a.45.45 0 0 1-.284-.561.435.435 0 0 1 .55-.291c.101.033 10.235 3.539 12.182 8.89a.451.451 0 0 1-.258.576.424.424 0 0 1-.152.028ZM81.678 261.891a.436.436 0 0 1-.396-.256c-1.45-3.128-8.745-9.215-13.633-10.75a.45.45 0 0 1-.29-.558.437.437 0 0 1 .547-.297c5.206 1.632 12.63 7.905 14.167 11.221.104.224.01.49-.208.597a.418.418 0 0 1-.187.043ZM75.023 266.608a.435.435 0 0 1-.391-.245c-1.043-2.106-3.59-4.074-7.364-5.692a.45.45 0 0 1-.235-.586.433.433 0 0 1 .573-.24c3.97 1.702 6.67 3.816 7.807 6.114.11.22.024.49-.193.601a.445.445 0 0 1-.197.048ZM156.259 197.249l-41.067-13.796 23.12-37.55 41.513 8.96z"/><path fill="#6A74EF" d="M146.644 180.454c.079-1.16-1.334-8.025-7.684-11.396-5.736-3.045-9.285-1.375-9.231.07.035.967 1.538 1.352 2.184 1.443.645.092 1.908-.037 2.425.597.514.632.045 1.47.574 2.098.948 1.125 2.641.676 3.849.73 1.454.065 3.739.546 4.623 2.563 1.084 2.468.822 4.08.262 6.864-.559 2.785-.848 4.157-.798 4.365.064.259.208.58.964.61.755.032 1.378-3.58 2.036-4.87.657-1.287.796-3.074.796-3.074Z"/><path fill="#2421A2" d="M140.207 188.664c.12-.288-.053-2.59.54-4.445.773-2.418.694-5.354.058-6.747-.763-1.673-2.152-2.924-3.235-2.376-.94.475-.944 2.089-.538 3.085.52 1.275 3.616 5.52 2.296 6.536-.716.55-.957-.83-1.061-1.482-.184-1.142-.773-2.443-1.56-2.32-.82.13-1.176 1.48-.145 2.882 1.008 1.371 1.926 2.543 2.22 3.448.277.856-.247.6-.104 1.084.164.556 1.208 1.103 1.529.335Z"/><path fill="#5C60D5" d="M146.117 191.212c-.271-.377.94-2.18 2.076-2.845 1.136-.666 2.667-.562 2.977-1.257.31-.694.236-1.458 1.023-2.142.713-.618 2.009.313 2.623-.913.614-1.226.66-3.047 1.383-5.984.647-2.624 1.421-3.288 2.232-3.393.997-.13 1.674-1.195 1.804-3.064.09-1.3 3.475-8.26 6.064-7.344 2.202.78 1.403 4.925.566 6.854-1.231 2.832-2.644 3.053-2.866 4.691-.263 1.943.322 2.486-.376 4.45-.575 1.619-1.537 3.744-6.637 6.298-4.827 2.416-7.617 3.14-8.523 3.68-1.114.666-1.87 1.631-2.346.969ZM151.967 149.38c.153 1.462.416 4.01-.33 5.079-.745 1.069-1.54.872-2.186 2.484-1.267 3.169 1.01 9.873.153 14.578-.712 3.904-2.292 8.294-3.266 8.069-.973-.227-3.748 8.561-3.712 9.602.036 1.042.802.68.802.68.62-1.39 2.01-6.16 4.37-7.986 2.358-1.825 4.18-3.95 4.752-6.888.573-2.936-.167-9.402.851-11.082 1.019-1.68 3.285-4.275 4.22-10.806.195-1.37.215-2.679.097-3.856l-5.693-1.229c-.077.518-.096.995-.058 1.356Z"/><path fill="#2421A2" d="M162.742 153.865c-1.09.187-1.78 1.48-1.856 2.553-.076 1.073.044 1.636-.315 2.209-.39.626-1.782.283-2.806 1.474s-1.573 4.226-1.738 6.5c-.165 2.275-.997 3.638-1.758 3.438-.761-.2-.967-1.44-.663-2.724.304-1.284 2.742-6.458-.85-6.922-1.438-.186-2.295 1.985-2.16 3.837.105 1.428 1.07 4.871.608 8.765-.427 3.601-.773 6.455-2.898 5.993-1.816-.395-1.907-2.647-1.603-3.931.305-1.284 1.361-5.695-2.647-6.601-1.89-.427-2.67 4.231-1.083 7.54 1.082 2.255 2.473 5.083 1.961 7.938-.555 3.099-2.83 5.537-2.665 6.272.164.736 1.923 1.106 2.051.72.128-.388.047-1.309 1.114-1.595 1.068-.286 3.285-.358 4.916-.686 1.63-.328 2.115-1.732 1.694-2.492-.422-.76-1.428-.475-1.847-.275-.825.393-3.786 3.67-4.833 2.006-.667-1.06 2.265-3.54 3.979-4.504 2.57-1.445 6.547-.682 9.795-2.495 2.29-1.277 2.399-3.785 1.593-4.571-1.106-1.081-2.856-.422-3.659.665-1.075 1.455-2.935 3.702-4.212 1.43-1.485-2.64 3.271-4.314 5.714-5.383 4.532-1.983 8.316-6.55 6.04-8.518-1.014-.876-2.716.32-3.824 2.049-1.271 1.985-5.888 8.098-6.933 6.71-.646-.858 1.991-1.653 2.677-2.992.687-1.338 1.376-3.383 2.828-4.83 1.451-1.446 5.278-5.281 5.548-8.421.248-2.857-1.683-3.243-2.168-3.16Z"/><path fill="#FFF" fill-rule="nonzero" d="m138.006 145-23.935 38.873 42.514 14.283 24.396-43.881L138.006 145Zm16.346 47.467-33.174-11.145 19.113-31.043 33.496 7.23-19.435 34.958Z"/><path fill="#FFF" d="m310.834 74.396-18.963-.292.8-18.062 18.454-.593z"/><path fill="#F2D265" fill-rule="nonzero" d="M310.834 74.81h-.007l-18.962-.292a.413.413 0 0 1-.406-.432l.8-18.062a.413.413 0 0 1 .399-.395l18.453-.593a.415.415 0 0 1 .426.419l-.291 18.947a.414.414 0 0 1-.412.407Zm-18.53-1.113 18.123.279.278-18.101-17.637.567-.764 17.255Z"/><path fill="#E3DDE4" d="m310.834 74.219-18.963-.278 9.94 6.155 16.138.08z"/><path fill="#F2D265" fill-rule="nonzero" d="M317.95 80.57h-.002l-16.141-.08a.428.428 0 0 1-.223-.064l-9.94-6.156a.384.384 0 0 1-.17-.445c.054-.167.243-.26.402-.278l18.963.278a.423.423 0 0 1 .266.098l7.116 5.958c.13.109.174.282.114.435a.41.41 0 0 1-.386.254Zm-16.016-.867 14.913.075-6.172-5.168-17.377-.254 8.636 5.347Z"/><path fill="#5C5ED6" d="m309.898 73.959 7.26 6.114.133-17.677-7.096-6.958z"/><path fill="#F2D265" fill-rule="nonzero" d="M317.158 80.477c-.1 0-.2-.034-.278-.1l-7.26-6.115a.398.398 0 0 1-.144-.31l.298-18.52a.404.404 0 0 1 .266-.369.436.436 0 0 1 .458.093l7.094 6.958a.392.392 0 0 1 .12.285l-.131 17.677a.403.403 0 0 1-.25.366.43.43 0 0 1-.173.035Zm-6.835-6.7 6.42 5.408.124-16.626-6.266-6.145-.278 17.364Z"/><path fill="#FFF" d="m39.287 133.582 13.453-14.05 14.428 13.066-13.454 14.049z"/><path fill="#E3DDE4" d="M52.179 119.18 39 133.604l1.508-12.358L53.05 107.52z"/><path fill="#6A74EF" d="m53.05 119.172.909-11.652 14.145 12.884-.308 12.198z"/><path fill="#B5A8AE" d="M54.668 134.608a.424.424 0 0 1-.3-.126l-13.231-13.31a.453.453 0 0 1-.008-.627.421.421 0 0 1 .608-.008l12.92 12.997 12.705-13.836a.42.42 0 0 1 .607-.017c.173.169.18.449.017.627L54.98 134.47a.425.425 0 0 1-.303.139l-.01-.001Z"/><path fill="#B5A8AE" d="M53.36 146.648h-.013c-.171-.01-.304-.205-.297-.436l.384-12.205c.007-.231.173-.406.323-.401.17.01.303.205.296.436l-.383 12.205c-.008.225-.145.401-.31.401Z"/><path fill="#B5A8AE" fill-rule="nonzero" d="M54.053 147.651a.448.448 0 0 1-.301-.114L39.14 134.402a.414.414 0 0 1-.022-.602l13.608-14.105a.453.453 0 0 1 .624-.021l14.612 13.136a.414.414 0 0 1 .022.602l-13.609 14.104a.452.452 0 0 1-.323.135Zm-13.988-13.583 13.966 12.555 13.006-13.48-13.965-12.555-13.007 13.48Z"/><path fill="#F2D265" fill-rule="nonzero" d="M39.432 134.609a.44.44 0 0 1-.428-.492l1.522-12.418a.446.446 0 0 1 .112-.244l12.668-13.795a.425.425 0 0 1 .489-.102.44.44 0 0 1 .257.434l-.88 11.716a.44.44 0 0 1-.115.265l-13.31 14.496a.428.428 0 0 1-.315.14Zm1.934-12.662-1.34 10.934 12.297-13.393.775-10.316-11.732 12.775Z"/><path fill="#F2D265" fill-rule="nonzero" d="M67.345 133.605a.454.454 0 0 1-.306-.117L52.19 119.99a.435.435 0 0 1-.141-.354l.915-11.711a.442.442 0 0 1 .283-.375.46.46 0 0 1 .47.087l14.245 12.95a.432.432 0 0 1 .142.33l-.31 12.261a.439.439 0 0 1-.275.393.442.442 0 0 1-.173.034Zm-14.387-14.113 13.963 12.692.28-11.09-13.415-12.195-.828 10.593Z"/><path fill="#5C60D5" d="m306.179 359.385 7.611-9.6-9.956-5.396-8.145 10.048z"/><path fill="#FFF" d="m303.834 344.39-8.145 10.047-4.333-8.972 7.86-8.735z"/><path fill="#E3DDE4" d="m313.79 349.785-4.922-7.877-9.651-5.178 4.617 7.66z"/><path fill="#B5A8AE" d="M306.179 359.68a.295.295 0 0 1-.255-.146l-4.708-8.048a.294.294 0 0 1 .022-.33l7.397-9.431a.296.296 0 0 1 .465.364l-7.273 9.272 4.607 7.875a.294.294 0 0 1-.255.444Z"/><path fill="#B5A8AE" d="M301.471 351.633a.293.293 0 0 1-.148-.04l-10.115-5.872a.296.296 0 0 1 .296-.511l10.115 5.873a.296.296 0 0 1-.148.55Z"/><path fill="#B5A8AE" fill-rule="nonzero" d="M295.69 354.732c-.012 0-.023 0-.035-.002a.3.3 0 0 1-.232-.165l-4.333-8.971a.295.295 0 0 1 .046-.326l7.86-8.735a.305.305 0 0 1 .248-.097c.093.01.177.062.225.142l4.618 7.66a.295.295 0 0 1-.024.337l-8.144 10.047a.295.295 0 0 1-.23.11Zm-3.982-9.217 4.045 8.374 7.722-9.525-4.306-7.141-7.461 8.292Z"/><path fill="#F2D265" fill-rule="nonzero" d="M313.79 350.08a.293.293 0 0 1-.14-.035l-9.956-5.397a.293.293 0 0 1-.113-.107l-4.617-7.66a.296.296 0 0 1 .393-.412l9.651 5.178c.046.024.084.06.111.103l4.923 7.878a.295.295 0 0 1-.252.453Zm-9.744-5.912 8.9 4.824-4.288-6.86-8.634-4.634 4.022 6.67Z"/><path fill="#F2D265" fill-rule="nonzero" d="M306.179 359.68a.3.3 0 0 1-.126-.028l-10.49-4.949a.294.294 0 0 1-.103-.453l8.145-10.047a.295.295 0 0 1 .37-.073l9.957 5.396a.295.295 0 0 1 .09.442l-7.612 9.6a.293.293 0 0 1-.231.112Zm-10.024-5.35 9.938 4.688 7.247-9.14-9.431-5.112-7.754 9.564Z"/></g></svg>