<svg xmlns="http://www.w3.org/2000/svg" version="1.1" width="1000" height="1000" viewBox="0 0 1000 1000"><rect width="1000" height="1000" fill="#000000"></rect><g transform="matrix(0.7,0,0,0.7,150.07466666666664,335.7993788329038)"><svg viewBox="0 0 375 176" data-background-color="#fce44d" preserveAspectRatio="xMidYMid meet" height="469" width="1000" xmlns="http://www.w3.org/2000/svg"><g id="tight-bounds" transform="matrix(1,0,0,1,-0.03976036071776434,0.02713775634765625)"><svg viewBox="0 0 375.07952880859375 175.9457244873047" height="175.9457244873047" width="375.07952880859375"><g><svg></svg></g><g><svg viewBox="0 0 375.07952880859375 175.9457244873047" height="175.9457244873047" width="375.07952880859375"><g transform="matrix(1,0,0,1,-10.220239639282227,-40.67156982421875)"><path xmlns="http://www.w3.org/2000/svg" d="M10.22 206.528v-165.856h375.08v165.856h-145.784l0-4.046h141.737v-157.764h-366.986v157.764l20.384 0 0 4.046z" fill="#000000" fill-rule="nonzero" stroke="none" stroke-width="1" stroke-linecap="butt" stroke-linejoin="miter" stroke-miterlimit="10" stroke-dasharray="" stroke-dashoffset="0" font-family="none" font-weight="none" font-size="none" text-anchor="none" style="mix-blend-mode: normal" data-fill-palette-color="tertiary"></path><g><path xmlns="http://www.w3.org/2000/svg" d="M52.603 210.78v0c-1.048 0-2.007-0.19-2.879-0.569-0.875-0.379-1.578-0.938-2.11-1.677-0.532-0.742-0.807-1.657-0.824-2.744v0h1.897c0 0.732 0.18 1.332 0.538 1.801 0.356 0.469 0.83 0.818 1.422 1.048 0.589 0.23 1.232 0.344 1.931 0.344v0c0.755 0 1.412-0.121 1.971-0.364 0.559-0.239 0.99-0.557 1.293-0.953 0.303-0.396 0.454-0.83 0.454-1.302v0c0-0.665-0.203-1.204-0.609-1.617-0.409-0.412-1.013-0.747-1.811-1.003v0l-2.77-0.973c-1.297-0.466-2.279-0.998-2.943-1.596-0.665-0.599-0.998-1.439-0.998-2.52v0c0-1.214 0.467-2.204 1.402-2.969 0.938-0.765 2.267-1.148 3.986-1.147v0c1.597 0 2.844 0.368 3.743 1.102 0.898 0.735 1.414 1.723 1.546 2.964v0h-1.921c-0.123-0.725-0.462-1.289-1.018-1.691-0.552-0.402-1.336-0.604-2.35-0.604v0c-1.031 0-1.833 0.228-2.405 0.683-0.575 0.459-0.863 1.038-0.863 1.737v0c0 0.572 0.181 1.028 0.544 1.367 0.363 0.336 0.93 0.637 1.702 0.903v0l3.243 1.123c1.124 0.373 2.012 0.896 2.664 1.571 0.652 0.672 0.978 1.545 0.978 2.62v0c0 0.832-0.223 1.583-0.668 2.255-0.442 0.675-1.096 1.212-1.961 1.612-0.865 0.399-1.926 0.599-3.184 0.599zM64.618 210.48h-1.946v-17.014h1.946zM64.319 205.715v-2.071l6.087-5.089h2.719zM73.4 210.48h-2.395l-5.663-7.534 1.97-0.349zM80.869 210.78v0c-1.031 0-1.953-0.264-2.764-0.794-0.808-0.529-1.449-1.262-1.921-2.2-0.469-0.938-0.704-2.019-0.704-3.243v0c0-1.307 0.233-2.43 0.699-3.368 0.466-0.941 1.104-1.663 1.916-2.166 0.812-0.502 1.736-0.753 2.774-0.753v0c0.908 0 1.681 0.183 2.32 0.549 0.642 0.366 1.158 0.86 1.547 1.482 0.393 0.625 0.665 1.331 0.818 2.115 0.153 0.785 0.196 1.598 0.13 2.44v0h-8.632v-1.198h7.35l-0.574 0.375c0.023-0.492-0.005-0.983-0.085-1.472-0.077-0.492-0.223-0.943-0.439-1.352-0.216-0.412-0.521-0.743-0.913-0.993-0.389-0.249-0.888-0.374-1.497-0.375v0c-0.765 0-1.405 0.195-1.921 0.584-0.516 0.393-0.901 0.906-1.158 1.542-0.259 0.635-0.389 1.324-0.389 2.066v0 0.798c0 0.832 0.126 1.575 0.379 2.23 0.256 0.659 0.637 1.179 1.143 1.562 0.509 0.383 1.149 0.574 1.921 0.574v0c0.775 0 1.412-0.188 1.911-0.564 0.499-0.373 0.802-0.925 0.908-1.656v0h2.021c-0.123 0.792-0.406 1.472-0.848 2.04-0.439 0.569-1 1.006-1.682 1.313-0.682 0.309-1.452 0.464-2.31 0.464zM93.208 210.78v0c-0.649 0-1.231-0.125-1.746-0.375-0.519-0.249-0.926-0.624-1.223-1.122-0.299-0.499-0.449-1.123-0.449-1.871v0-12.175h1.921v12.125c0 1.231 0.574 1.846 1.722 1.846v0c0.339 0 0.669-0.038 0.988-0.115 0.323-0.073 0.684-0.185 1.082-0.334v0l0.275 1.397c-0.426 0.183-0.848 0.333-1.268 0.449-0.419 0.116-0.853 0.175-1.302 0.175zM95.478 199.902h-7.609v-1.347h7.609zM103.112 210.78v0c-0.958 0-1.851-0.258-2.679-0.774-0.828-0.516-1.495-1.244-2.001-2.185-0.509-0.938-0.763-2.047-0.763-3.328v0c0-1.314 0.254-2.437 0.763-3.368 0.506-0.931 1.173-1.643 2.001-2.136 0.828-0.489 1.721-0.733 2.679-0.733v0c0.672 0 1.276 0.101 1.812 0.304 0.539 0.203 1.008 0.484 1.407 0.843 0.396 0.356 0.725 0.762 0.988 1.218 0.263 0.452 0.456 0.928 0.578 1.427v0l-1.995 0.174c-0.206-0.692-0.552-1.239-1.038-1.641-0.486-0.402-1.078-0.604-1.777-0.604v0c-0.592 0-1.148 0.168-1.666 0.504-0.519 0.336-0.941 0.84-1.267 1.512-0.326 0.669-0.489 1.502-0.489 2.5v0c0 0.925 0.148 1.725 0.444 2.4 0.296 0.679 0.702 1.204 1.217 1.576 0.516 0.376 1.103 0.564 1.761 0.564v0c0.921 0 1.622-0.226 2.101-0.678 0.476-0.456 0.714-1.086 0.714-1.891v0h1.995c0 0.832-0.195 1.572-0.583 2.22-0.389 0.649-0.945 1.159-1.667 1.532-0.718 0.376-1.563 0.564-2.535 0.564zM122.197 210.48h-1.921v-7.01c0-1.141-0.273-2.007-0.818-2.6-0.546-0.595-1.287-0.893-2.225-0.893v0c-0.715 0-1.336 0.195-1.861 0.584-0.522 0.393-0.925 0.953-1.208 1.681-0.283 0.725-0.424 1.592-0.424 2.6v0h-0.748c0-1.39 0.183-2.576 0.549-3.558 0.366-0.981 0.9-1.731 1.601-2.25 0.702-0.519 1.557-0.778 2.565-0.778v0c0.938 0 1.741 0.21 2.41 0.628 0.672 0.419 1.186 1.02 1.542 1.802 0.359 0.782 0.539 1.71 0.538 2.784v0zM113.74 210.48h-1.946v-17.014h1.946zM136.068 204.044l-5.588-9.231h2.345l4.491 7.609h-0.499l4.565-7.609h2.32l-5.663 9.231v6.436h-1.971zM149.151 210.78v0c-1.071 0-2.026-0.238-2.864-0.714-0.835-0.472-1.494-1.174-1.976-2.106-0.482-0.931-0.723-2.079-0.723-3.442v0c0-1.37 0.241-2.52 0.723-3.448 0.482-0.928 1.141-1.63 1.976-2.106 0.838-0.472 1.793-0.709 2.864-0.708v0c1.064 0 2.014 0.236 2.849 0.708 0.838 0.476 1.495 1.178 1.971 2.106 0.479 0.928 0.718 2.077 0.718 3.448v0c0 1.364-0.239 2.511-0.718 3.442-0.476 0.931-1.133 1.633-1.971 2.106-0.835 0.476-1.785 0.714-2.849 0.714zM149.101 209.083v0c0.775 0 1.432-0.185 1.971-0.554 0.542-0.373 0.951-0.9 1.227-1.581 0.279-0.682 0.419-1.492 0.419-2.43v0c0-1.424-0.294-2.545-0.883-3.363-0.592-0.818-1.47-1.227-2.634-1.228v0c-0.782 0-1.44 0.185-1.976 0.554-0.536 0.369-0.943 0.898-1.222 1.587-0.279 0.685-0.419 1.502-0.42 2.45v0c0 1.404 0.298 2.516 0.894 3.338 0.595 0.818 1.47 1.227 2.624 1.227zM166.579 210.48v-11.95h1.946v11.95zM158.122 206.114v-7.584h1.946v7.435c0 0.998 0.243 1.755 0.729 2.27 0.486 0.516 1.183 0.773 2.09 0.773v0c0.748 0 1.399-0.2 1.951-0.598 0.552-0.399 0.98-0.95 1.282-1.652 0.306-0.705 0.459-1.51 0.459-2.415v0h0.724c0 1.337-0.195 2.48-0.584 3.428-0.386 0.948-0.93 1.675-1.631 2.18-0.702 0.502-1.527 0.753-2.475 0.754v0c-0.898 0-1.685-0.166-2.36-0.499-0.672-0.333-1.196-0.838-1.572-1.517-0.373-0.679-0.559-1.537-0.559-2.575zM175.521 210.48h-1.946v-11.95h1.946zM175.521 205.091h-0.599c0-1.513 0.146-2.771 0.439-3.772 0.289-1.005 0.715-1.753 1.277-2.245 0.562-0.496 1.246-0.743 2.051-0.743v0c0.266 0 0.509 0.018 0.729 0.055 0.223 0.037 0.446 0.093 0.668 0.169v0l-0.125 1.921c-0.233-0.077-0.486-0.141-0.758-0.194-0.276-0.053-0.522-0.08-0.738-0.08v0c-0.705 0-1.274 0.201-1.707 0.603-0.432 0.402-0.747 0.97-0.943 1.702-0.196 0.732-0.294 1.593-0.294 2.584zM188.518 210.48v-15.667h4.591c1.58 0 2.952 0.323 4.116 0.968 1.164 0.642 2.067 1.55 2.709 2.724 0.639 1.171 0.958 2.551 0.958 4.142v0c0 1.57-0.319 2.942-0.958 4.116-0.642 1.171-1.545 2.084-2.709 2.739-1.164 0.652-2.536 0.978-4.116 0.978v0zM193.109 196.534h-2.645v12.25h2.645c1.181 0 2.197-0.266 3.048-0.799 0.855-0.532 1.512-1.262 1.971-2.19 0.462-0.928 0.694-1.978 0.694-3.148v0c0-1.181-0.231-2.23-0.694-3.149-0.459-0.921-1.116-1.645-1.971-2.17-0.852-0.529-1.868-0.793-3.048-0.794zM214.065 210.48h-1.697l-0.249-2.619v-5.115c0-1.074-0.228-1.846-0.684-2.315-0.459-0.469-1.146-0.704-2.06-0.703v0c-0.516 0-0.983 0.075-1.402 0.224-0.419 0.15-0.752 0.381-0.998 0.694-0.246 0.309-0.369 0.71-0.369 1.202v0h-2.171c0-0.865 0.213-1.562 0.639-2.09 0.422-0.529 1.006-0.911 1.751-1.148 0.745-0.236 1.595-0.354 2.55-0.354v0c0.915 0 1.726 0.153 2.435 0.459 0.705 0.309 1.257 0.798 1.656 1.467 0.399 0.669 0.599 1.54 0.599 2.614v0zM208.302 210.78v0c-0.981 0-1.791-0.175-2.43-0.524-0.642-0.349-1.121-0.803-1.437-1.363-0.316-0.555-0.474-1.141-0.474-1.756v0c0-0.808 0.201-1.465 0.604-1.971 0.406-0.509 0.958-0.881 1.656-1.117 0.699-0.236 1.484-0.354 2.355-0.355v0c0.625 0 1.251 0.062 1.876 0.185 0.629 0.126 1.242 0.298 1.842 0.514v0 1.222c-0.499-0.2-1.063-0.358-1.692-0.474-0.625-0.116-1.201-0.175-1.726-0.174v0c-0.798 0-1.472 0.165-2.021 0.494-0.549 0.326-0.823 0.885-0.823 1.676v0c0 0.582 0.21 1.081 0.628 1.497 0.422 0.416 1.094 0.624 2.016 0.624v0c0.649 0 1.232-0.151 1.751-0.454 0.522-0.306 0.935-0.687 1.238-1.143 0.303-0.459 0.454-0.916 0.454-1.372v0h0.474c0 0.798-0.173 1.538-0.519 2.22-0.343 0.682-0.835 1.231-1.477 1.647-0.639 0.416-1.404 0.624-2.295 0.624zM221.639 210.48l-4.89-11.925h2.171l3.892 10.229h-0.45l3.019-10.229h1.996l-4.491 14.32c-0.376 1.197-0.875 2.121-1.496 2.769-0.625 0.649-1.424 0.973-2.395 0.973v0c-0.526 0-1.023-0.075-1.492-0.224-0.469-0.15-0.953-0.366-1.452-0.649v0-1.796c0.439 0.349 0.865 0.599 1.277 0.748 0.412 0.15 0.843 0.225 1.292 0.225v0c0.499 0 0.916-0.158 1.253-0.474 0.336-0.316 0.617-0.722 0.843-1.218 0.223-0.492 0.414-1.01 0.574-1.551v0z" fill="#ffffff" fill-rule="nonzero" stroke="none" stroke-width="1" stroke-linecap="butt" stroke-linejoin="miter" stroke-miterlimit="10" stroke-dasharray="" stroke-dashoffset="0" font-family="none" font-weight="none" font-size="none" text-anchor="none" style="mix-blend-mode: normal" data-fill-palette-color="secondary"></path></g></g><g transform="matrix(1,0,0,1,29.331764404296877,56.96709645799787)"><svg viewBox="0 0 316.416 62.01153157130895" height="62.01153157130895" width="316.416"><g><svg viewBox="0 0 396.2555973429298 77.65857758437936" height="62.01153157130895" width="316.416"><g transform="matrix(1,0,0,1,79.83959734292978,10.732842488145046)"><svg viewBox="0 0 316.416 56.19289260808927" height="56.19289260808927" width="316.416"><g><svg viewBox="0 0 316.416 56.19289260808927" height="56.19289260808927" width="316.416"><g><svg viewBox="0 0 316.416 56.19289260808927" height="56.19289260808927" width="316.416"><g transform="matrix(1,0,0,1,0,0)"><svg width="316.416" viewBox="1.7999999523162842 -37.5 215.0800018310547 38.20000076293945" height="56.19289260808927" data-palette-color="#374151"><path d="M11.8 0.7Q9.25 0.7 6.58 0.13 3.9-0.45 2.1-1.35L2.1-1.35 2.75-7.15Q7.5-4.35 12.25-4.35L12.25-4.35Q15.05-4.35 16.63-5.48 18.2-6.6 18.2-8.75L18.2-8.75Q18.2-11.05 16.57-12.5 14.95-13.95 10.85-15.75L10.85-15.75Q7.7-17.15 5.8-18.45 3.9-19.75 2.85-21.6 1.8-23.45 1.8-26.1L1.8-26.1Q1.8-28.95 3.25-31.13 4.7-33.3 7.33-34.5 9.95-35.7 13.45-35.7L13.45-35.7Q18.2-35.7 22.3-33.75L22.3-33.75 21.75-28.2Q17.3-30.65 13.05-30.65L13.05-30.65Q10.4-30.65 8.95-29.6 7.5-28.55 7.5-26.35L7.5-26.35Q7.5-24.8 8.35-23.75 9.2-22.7 10.6-21.93 12-21.15 15.1-19.7L15.1-19.7Q19.65-17.55 21.75-15.18 23.85-12.8 23.85-9.15L23.85-9.15Q23.85-4.6 20.65-1.95 17.45 0.7 11.8 0.7L11.8 0.7ZM27.45 0L27.45-37.5 32.55-37.5 32.55-14.1 39.4-24.7 45.3-24.7 37.5-13.2 45.45 0 39.55 0 32.55-12 32.55 0 27.45 0ZM57.84 0.5Q54.09 0.5 51.47-1.23 48.84-2.95 47.52-5.9 46.2-8.85 46.2-12.45L46.2-12.45Q46.2-16 47.42-18.9 48.65-21.8 51.02-23.48 53.4-25.15 56.7-25.15L56.7-25.15Q60.84-25.15 63.37-22.3 65.9-19.45 65.9-14.5L65.9-14.5Q65.9-13.4 65.65-11.8L65.65-11.8 51.4-11.8Q51.59-7.9 53.5-5.9 55.4-3.9 58.3-3.9L58.3-3.9Q59.95-3.9 61.62-4.33 63.3-4.75 64.65-5.55L64.65-5.55 64.94-1.05Q62.09 0.5 57.84 0.5L57.84 0.5ZM51.55-15.35L60.75-15.35Q60.75-17.8 59.72-19.3 58.7-20.8 56.55-20.8L56.55-20.8Q54.55-20.8 53.25-19.43 51.95-18.05 51.55-15.35L51.55-15.35ZM76.74 0.5Q73.94 0.5 72.47-1.18 70.99-2.85 70.99-5.65L70.99-5.65 70.99-20.55 67.89-20.55 68.34-24.7 70.99-24.7 70.99-30.55 76.09-31.05 76.09-24.7 80.94-24.7 80.94-20.55 76.09-20.55 76.09-7.3Q76.09-5.4 76.84-4.58 77.59-3.75 79.29-3.75L79.29-3.75 80.94-3.75 80.49 0.5 76.74 0.5ZM94.69 0.5Q90.94 0.5 88.34-1.18 85.74-2.85 84.44-5.75 83.14-8.65 83.14-12.25L83.14-12.25Q83.14-17.95 86.14-21.55 89.14-25.15 94.84-25.15L94.84-25.15Q97.84-25.15 100.04-24.1L100.04-24.1 99.44-19.8Q97.44-20.85 95.19-20.85L95.19-20.85Q91.94-20.85 90.14-18.57 88.34-16.3 88.34-12.35L88.34-12.35Q88.34-8.5 90.17-6.15 91.99-3.8 95.29-3.8L95.29-3.8Q97.54-3.8 99.54-4.85L99.54-4.85 100.04-0.6Q99.04-0.1 97.62 0.2 96.19 0.5 94.69 0.5L94.69 0.5ZM114.84-25.15Q118.64-25.15 120.64-22.4 122.64-19.65 122.64-15L122.64-15 122.64 0 117.54 0 117.54-14.35Q117.54-17.6 116.56-19.2 115.59-20.8 113.54-20.8L113.54-20.8Q110.59-20.8 108.84-17.9L108.84-17.9 108.84 0 103.74 0 103.74-37.5 108.84-37.5 108.84-22.7Q111.14-25.15 114.84-25.15L114.84-25.15ZM158.19 0L152.69 0 150.24-24 142.29-7.15 134.34-24 131.84 0 126.34 0 130.39-35 134.74-35 142.29-18.15 149.79-35 154.14-35 158.19 0ZM167.33 0.5Q164.53 0.5 162.68-1.43 160.83-3.35 160.83-6.55L160.83-6.55Q160.83-9.85 162.83-11.85 164.83-13.85 167.61-14.7 170.38-15.55 172.98-15.6L172.98-15.6Q172.98-18.35 172.11-19.48 171.23-20.6 169.13-20.6L169.13-20.6Q166.23-20.6 163.18-18.5L163.18-18.5 162.68-22.75Q166.13-25.15 170.28-25.15L170.28-25.15Q174.18-25.15 176.16-22.9 178.13-20.65 178.13-15.7L178.13-15.7 178.13-8.4Q178.13-5.65 178.51-4.7 178.88-3.75 180.08-3.75L180.08-3.75 180.73-3.75 180.28 0.5 178.58 0.5Q174.98 0.5 173.68-2.8L173.68-2.8Q171.03 0.5 167.33 0.5L167.33 0.5ZM168.98-3.6Q170.08-3.6 171.13-4.3 172.18-5 173.03-6.25L173.03-6.25 173.03-12.05Q166.18-11.55 166.18-6.95L166.18-6.95Q166.18-3.6 168.98-3.6L168.98-3.6ZM190.73 0.5Q187.93 0.5 186.46-1.18 184.98-2.85 184.98-5.65L184.98-5.65 184.98-20.55 181.88-20.55 182.33-24.7 184.98-24.7 184.98-30.55 190.08-31.05 190.08-24.7 194.93-24.7 194.93-20.55 190.08-20.55 190.08-7.3Q190.08-5.4 190.83-4.58 191.58-3.75 193.28-3.75L193.28-3.75 194.93-3.75 194.48 0.5 190.73 0.5ZM208.83 0.5Q205.08 0.5 202.45-1.23 199.83-2.95 198.5-5.9 197.18-8.85 197.18-12.45L197.18-12.45Q197.18-16 198.4-18.9 199.63-21.8 202-23.48 204.38-25.15 207.68-25.15L207.68-25.15Q211.83-25.15 214.35-22.3 216.88-19.45 216.88-14.5L216.88-14.5Q216.88-13.4 216.63-11.8L216.63-11.8 202.38-11.8Q202.58-7.9 204.48-5.9 206.38-3.9 209.28-3.9L209.28-3.9Q210.93-3.9 212.6-4.33 214.28-4.75 215.63-5.55L215.63-5.55 215.93-1.05Q213.08 0.5 208.83 0.5L208.83 0.5ZM202.53-15.35L211.73-15.35Q211.73-17.8 210.7-19.3 209.68-20.8 207.53-20.8L207.53-20.8Q205.53-20.8 204.23-19.43 202.93-18.05 202.53-15.35L202.53-15.35Z" opacity="1" transform="matrix(1,0,0,1,0,0)" fill="#ffffff" class="undefined-text-0" data-fill-palette-color="primary" id="text-0"></path></svg></g></svg></g></svg></g></svg></g><g><svg viewBox="0 0 66.5738040275825 77.65857758437936" height="77.65857758437936" width="66.5738040275825"><g>
    <svg xmlns="http://www.w3.org/2000/svg"  version="1.1" x="0" y="0" viewBox="138.68402099609375 44.56304168701172 1959.5029296875 2285.76708984375" enable-background="new 0 0 2551.18 2551.18" xml:space="preserve" height="77.65857758437936" width="66.5738040275825" class="icon-icon-0" data-fill-palette-color="accent" id="icon-0"><g fill="#000000" data-fill-palette-color="accent"><path d="M1642.605 1046.776l-22.975 15.27 435.367 655.122-892.426 285.637L325.654 940.309l887.867-242.091-7.252-26.617-928.062 253.05 220.272 279.643-359.795 320.791 1220.452 805.245 459.641-508.592 279.41-89.431L1642.605 1046.776zM1354.558 2294.258L183.814 1521.81l331.766-295.804 637.164 808.906 613.715-196.43L1354.558 2294.258z" fill="#ffffff" data-fill-palette-color="accent"></path><path d="M1211.732 1017.36c-71.591-59.483-140.207-73.926-143.095-74.511l-4.402 21.625c0.663 0.137 66.865 14.246 134.248 70.572 23.281 19.461 43.891 41.741 61.865 66.475l-0.932 3.998 4.461 1.04c48.298 68.737 76.342 156.239 81.871 258.147-2.77 11.97-26.207 104.134-97.243 136.367-47.463 21.542-106.893 12.347-176.603-27.336l-10.916 19.182c48.675 27.705 93.245 41.593 133.245 41.593 22.673 0 43.875-4.461 63.519-13.397 85.923-39.085 108.973-148.66 109.91-153.305l0.28-1.368-0.075-1.394c-5.852-112.456-36.936-195.081-75.039-255.06l285.176-236.127 435.658-697.636-28.163-62.563-44.479 11.638-11.169-42.7-56.94 14.895-13.847-52.932-80.427 14.798-434.791 686.97-1.223 1.953-75.777 325.344C1248.527 1050.755 1229.594 1032.196 1211.732 1017.36zM1786.886 91.351l52.468-13.117 13.848 52.932 56.94-14.896 11.169 42.7 44.479-11.638 13.572 31.751-413.934 662.832-10.351-39.551-44.478 11.638-11.17-42.7-56.94 14.895-13.847-52.932-52.694 13.788L1786.886 91.351zM1363.852 778.734l45.082-11.797 13.847 52.932 56.94-14.895 11.17 42.7 44.478-11.638 7.462 28.516 4.623-1.21-251.884 208.556L1363.852 778.734z" fill="#ffffff" data-fill-palette-color="accent"></path></g></svg></g></svg></g></svg></g></svg></g></svg></g><defs><mask id="5185d7b7-aeb4-4e46-863f-c0205a009196"><rect width="640" height="400" fill="white"></rect><rect width="348.05760000000004" height="128.34619977134525" fill="black" x="145.97119999999998" y="135.82690011432737" id="transform-me" transform="matrix(1,0,0,1,-122.24000000000001,-138.4576829769931)"></rect></mask><mask id="0ec843c9-a246-4c6d-8f58-756c8e07d601"><rect width="640" height="400" fill="white"></rect><rect width="348.05760000000004" height="128.34619977134525" fill="black" x="145.97119999999998" y="135.82690011432737" id="transform-me" transform="matrix(1,0,0,1,-122.24000000000001,-138.4576829769931)"></rect></mask><mask id="6c3cd617-5aa3-4471-9146-01bcbe0d18c7"><rect width="640" height="400" fill="white"></rect><rect width="348.05760000000004" height="128.34619977134525" fill="black" x="145.97119999999998" y="135.82690011432737" id="transform-me" transform="matrix(1,0,0,1,-122.24000000000001,-138.4576829769931)"></rect></mask></defs></svg><rect width="375.07952880859375" height="175.9457244873047" fill="none" stroke="none" visibility="hidden"></rect></g></svg></g></svg>