<svg xmlns="http://www.w3.org/2000/svg" width="512" height="512" fill="none"><g clip-path="url(#a)"><path fill="#222D3A" d="M0 0h512v512H0V0Z"/><path fill="#B3BAC0" d="M330.085 110.955c-18.786-20.283-45.026-31.453-73.988-31.453-29.116 0-55.442 11.102-74.142 31.26-18.902 20.379-28.112 48.076-25.95 77.984 4.287 59.005 49.187 107.004 100.092 107.004 50.906 0 95.729-47.99 100.083-106.985 2.191-29.637-7.077-57.276-26.095-77.81ZM53.928 511.997h404.405c.667-8.997-.127-28.498-2-38.856-8.148-45.2-33.576-83.169-73.544-109.814-35.507-23.652-80.484-36.685-126.659-36.685-46.174 0-91.152 13.024-126.659 36.685-39.967 26.655-65.396 64.624-73.543 109.823-1.873 10.359-2.428 31.35-2 38.847Z"/></g><defs><clipPath id="a"><path fill="#fff" d="M0 0h512v512H0z"/></clipPath></defs></svg>